<?xml version="1.0" encoding="iso-8859-1"?>
<!-- Generator: Adobe Illustrator 17.0.0, SVG Export Plug-In . SVG Version: 6.00 Build 0)  -->
<!DOCTYPE svg PUBLIC "-//W3C//DTD SVG 1.1//EN" "http://www.w3.org/Graphics/SVG/1.1/DTD/svg11.dtd">
<svg version="1.1" id="vectorized" xmlns="http://www.w3.org/2000/svg" xmlns:xlink="http://www.w3.org/1999/xlink" x="0px" y="0px"
	 width="581.404px" height="366.242px" viewBox="0 0 581.404 366.242" style="enable-background:new 0 0 581.404 366.242;"
	 xml:space="preserve">
<g id="numbers_1_">
</g>
<path style="fill:none;stroke:#0000FF;stroke-width:28.8;stroke-linecap:round;stroke-linejoin:round;stroke-miterlimit:10;" d="
	M37.662,264.173c-2.147-5.562-22.568-32.298-23.25-52.194C14.126,203.646,105.4,76.968,164.079,36.978
	c59.066-40.234,36.102,97.181,33.332,117.334c25.998-32.664,53.196-69.726,77.995-97.328c13.829-15.393,33.073-41.08,56.333-42.5
	c28.448-1.737,38.852,28.481,38.474,51.415c-0.335,20.299-13.943,94.936-18.758,111.066c22.031-22.546,38.102-52.985,66.101-69.173
	c38.4-22.202,66.899,12.684,82.505,45.207c5.886,12.266,26.486,71.39,47.017,53.313c2.875,6.75,23.004,35.367,19.524,50.076
	c-3.936,16.636-28.846,30.057-43.854,33.255c-28.531,6.078-45.199-14.873-60.986-35.366c-11.385-14.778-25.715-36.814-41.901-46.693
	c-31.663-19.324-64.32,49.595-77.373,69.428c-12.764,19.393-22.892,42.909-39.925,59.886
	c-21.486,21.415-59.873,22.253-57.331-13.479c3.352-47.123,32.845-102.106,28.845-169.106c-38,33-82.324,91.49-113,133
	c-11.745,15.892-31.63,42.747-50.004,50.029c-42.173,16.714-30.79-42.073-25.865-62.102c7.562-30.751,16.632-61.255,22.869-92.315
	C82.852,202.842,52.39,235.605,37.662,264.173"/>
</svg>
