<?xml version="1.0" encoding="iso-8859-1"?>
<!-- Generator: Adobe Illustrator 17.0.0, SVG Export Plug-In . SVG Version: 6.00 Build 0)  -->
<!DOCTYPE svg PUBLIC "-//W3C//DTD SVG 1.1//EN" "http://www.w3.org/Graphics/SVG/1.1/DTD/svg11.dtd">
<svg version="1.1" id="vectorized" xmlns="http://www.w3.org/2000/svg" xmlns:xlink="http://www.w3.org/1999/xlink" x="0px" y="0px"
	 width="513.499px" height="728.457px" viewBox="0 0 513.499 728.457" style="enable-background:new 0 0 513.499 728.457;"
	 xml:space="preserve">
<g id="numbers_1_">
</g>
<path style="fill:none;stroke:#0000FF;stroke-width:28.8;stroke-linecap:round;stroke-linejoin:round;stroke-miterlimit:10;" d="
	M14.416,713.732c8.667-221.333,20.839-373.909,34.084-547.013c2.662-34.793,0.25-69.32,14.655-94.348
	c15.586-27.079,68.134-64.575,87.595-56.973c9.414,3.678,7.436,0.736,5.5,72c-2.416,88.926,23.095,266.294,77.5,274
	c65,9.207,140.224-165.034,192-239c28-40,41.827-38.169,52-37c74,19-67.456,484.306-79,571c-10,14-50.507,66.578-62.215,49.263
	c-6.694-9.901,0.245-41.84,5.623-91.327c10.518-96.78,34.013-246.553,54.591-330.935c-41,79.596-114,167-174,177
	c-33.494,5.582-79-30-103-95c-13,92-30,218-39,326C79.652,704.561,42.111,716.171,14.416,713.732"/>
</svg>
