<?xml version="1.0" encoding="iso-8859-1"?>
<!-- Generator: Adobe Illustrator 17.0.0, SVG Export Plug-In . SVG Version: 6.00 Build 0)  -->
<!DOCTYPE svg PUBLIC "-//W3C//DTD SVG 1.1//EN" "http://www.w3.org/Graphics/SVG/1.1/DTD/svg11.dtd">
<svg version="1.1" id="vectorized-fonts" xmlns="http://www.w3.org/2000/svg" xmlns:xlink="http://www.w3.org/1999/xlink" x="0px"
	 y="0px" width="1406.971px" height="812.882px" viewBox="0 0 1406.971 812.882"
	 style="enable-background:new 0 0 1406.971 812.882;" xml:space="preserve">
<g>
	<path style="fill:none;stroke:#0000FF;stroke-width:28.8;stroke-linecap:round;stroke-linejoin:round;stroke-miterlimit:10;" d="
		M712.998,650.162C543.913,541.534,393.501,484.926,223.525,479.137c-54.83-1.867-128.468,16.997-172.146,61.565
		c-39.507,40.312-54.504,102.536-8.901,173.473c36.912,57.418,166.822,116.387,347.223,64.013
		c246.353-56.254,483.895-487.566,529.398-554.78c55.108-81.401,159.198-220.76,191.557-208.204s-61.231,308.36-216.892,570.219"/>
	<path style="fill:none;stroke:#0000FF;stroke-width:28.8;stroke-linecap:round;stroke-linejoin:round;stroke-miterlimit:10;" d="
		M940.163,503.128c50.872-65.696,233.859-311.403,273.948-285.539c40.089,25.864-111.388,272.989-180.401,364.681"/>
	<path style="fill:none;stroke:#0000FF;stroke-width:28.8;stroke-linecap:round;stroke-linejoin:round;stroke-miterlimit:10;" d="
		M1054.442,553.589c2.653-18.792,180.36-164.652,195.232-146.87c14.872,17.781-110.452,166.918-91.17,207.234
		c14.225,29.743,197.753-69.463,234.068-85.997"/>
</g>
</svg>
