<?xml version="1.0" encoding="iso-8859-1"?>
<!-- Generator: Adobe Illustrator 17.0.0, SVG Export Plug-In . SVG Version: 6.00 Build 0)  -->
<!DOCTYPE svg PUBLIC "-//W3C//DTD SVG 1.1//EN" "http://www.w3.org/Graphics/SVG/1.1/DTD/svg11.dtd">
<svg version="1.1" xmlns="http://www.w3.org/2000/svg" xmlns:xlink="http://www.w3.org/1999/xlink" x="0px" y="0px" width="900.5px"
	 height="1022.448px" viewBox="0 0 900.5 1022.448" style="enable-background:new 0 0 900.5 1022.448;" xml:space="preserve">
<g id="TEMPLATE_FORM">
</g>
<g id="Goldie-Bayshore">
	<g id="Uppercase" style="display:none;">
		<g style="display:inline;">
			<path style="stroke:#000000;stroke-width:9;stroke-linecap:round;stroke-linejoin:round;stroke-miterlimit:10;" d="
				M523.428,285.205c2.023,9.393-4.046,14.09-10.115,15.264c-8.092,0-17.196-2.348-22.254-9.393c1.012,0,1.012,0,1.012,0
				s0,0-1.012,0c0-1.174,0-1.174,0-1.174s-1.011,0-2.023,0c1.012,0,1.012,0,0,0h-1.012c-18.207-2.348-66.761-5.87-130.488,1.174
				c-127.453,14.091-248.838,56.361-369.21,109.198l-21.242,9.393l-15.173,7.045c-13.15,7.045-26.3,14.09-39.45,18.787
				c-13.15,5.87-27.311,10.567-41.473,11.742c-7.081,1.174-14.161,1.174-22.254,0c-10.115-2.348-17.196-8.219-21.242-19.961
				c-9.104-37.573,10.115-82.191,28.323-117.416C-96.643,208.885-44.043,112.603,14.626,19.844l1.012-2.348
				C7.545,18.67-1.558,19.844-9.651,21.018c-27.311,3.523-29.334,3.523-34.392,3.523c-1.011,2.348-5.058,2.348-6.069,3.522
				c-3.035,1.174-8.092-1.174-11.127-3.522c-2.023-3.523-3.035-8.219-4.046-11.742C-69.331,4.58-61.239-1.291-55.17-1.291
				c25.288-3.522,49.565-7.044,74.854-9.393c5.057,0,10.115-1.174,15.173-1.174l70.808-111.545
				c17.196-25.832,34.392-51.663,50.577-78.67c9.104-14.09,18.207-28.179,26.3-42.269l14.162-22.309
				c3.034-3.523,5.057-8.219,7.081-11.742l1.011-1.174c0-1.174,1.011-2.348,1.011-2.348c4.046-16.438,34.393-4.696,30.346,10.567
				c-2.023,9.393-9.104,18.787-14.161,25.831c-47.542,77.495-97.107,153.816-144.65,230.137c39.45-3.522,79.911-5.871,120.373-7.045
				c28.323-1.174,57.658-2.348,86.992-1.174h41.473l42.484,2.348c8.092,1.174,25.288,14.091,13.15,24.658l-9.104,8.218
				c-6.069,4.697-15.173,2.349-20.23-2.348c-2.023-1.174-2.023-4.696-15.173-4.696c-13.15,0-26.3-1.174-39.45-1.174
				c-59.68,0-118.349,1.174-177.018,5.87c-21.242,1.174-41.473,2.348-62.715,4.697c-9.104,14.09-18.207,29.353-27.311,43.444
				c-29.335,48.14-57.658,96.281-83.958,146.77c-22.253,44.618-66.761,120.939-78.9,167.906
				c-3.035,11.742-7.081,22.309-8.092,35.225v1.174v1.174v3.523v5.87c41.473-11.742,79.911-32.877,127.453-54.012
				c56.646-23.483,113.292-45.792,171.961-62.23c63.727-18.787,128.465-32.877,193.203-39.922
				C387.883,259.373,513.313,247.632,523.428,285.205z M636.72-337.101c-21.242,7.045-42.485,11.742-63.727,14.09
				c-8.092,0-18.207-3.522-21.242-12.916c-1.012-2.348-1.012-4.696-1.012-7.045c-9.104,0-18.208,0-29.334,0
				c-124.419-1.174-244.792,18.787-370.222,23.484c-29.334,1.174-46.53,1.174-59.68-1.175c-8.092-1.174-21.242-4.696-24.277-15.264
				c-2.023-4.696-1.012-8.219,3.034-11.742l4.046-3.522c6.069-5.871,17.196-2.349,24.277,3.522h11.127
				c165.892,0,330.772-38.748,515.883-16.439c7.081,1.174,14.162,5.871,17.196,12.917
				C645.824-344.147,641.777-338.276,636.72-337.101z M491.059,289.902c0,1.174,0,1.174,0,1.174
				c-1.011-1.174-1.011-1.174-2.023-1.174C490.048,289.902,490.048,289.902,491.059,289.902z M491.059,289.902c0,0,0,0,0,1.174
				C491.059,289.902,491.059,289.902,491.059,289.902z M491.059,291.076"/>
			<path style="stroke:#000000;stroke-width:9;stroke-linecap:round;stroke-linejoin:round;stroke-miterlimit:10;" d="
				M1142.474,5.754c-4.046,2.348-6.069,5.87-10.115,8.219c-6.069,4.696-15.173,1.174-20.231-3.523
				c-1.012-1.174-2.023-2.348-3.035-3.522c-4.046,0-8.092-1.174-12.138-1.174h-39.45c-58.669-1.174-117.338,1.174-177.019,4.696
				l-62.715,4.697c-9.104,14.09-18.207,29.354-27.311,44.618c-29.334,46.966-56.646,96.281-82.946,145.597
				c-15.173,27.005-28.323,54.011-41.473,82.191c-15.173,30.528-28.323,61.057-43.496,90.41c-6.069,11.742-33.381,0-28.323-12.916
				c4.046-10.567,7.081-21.135,12.138-31.702c48.554-109.197,105.2-212.523,167.915-312.327l1.011-1.174
				c-9.104,0-17.196,1.174-25.288,2.348l-21.242,3.523c-5.058,0-10.115,2.348-15.173,1.174c-2.023,3.522-10.115,5.87-14.161-1.174
				c-3.035-3.523-3.035-7.045-5.058-10.567c-4.046-9.393,4.046-14.091,10.115-15.265l75.865-9.393
				c5.058-1.174,10.115-1.174,14.161-2.348l71.819-109.197l50.576-78.669c8.092-14.091,17.196-28.18,26.3-42.27l14.161-23.483
				c7.081-11.742,8.092-12.917,8.092-15.265c4.046-15.264,35.404-4.696,31.358,11.742c-3.035,9.393-10.115,17.613-14.162,25.832
				C935.109-166.848,885.544-91.701,836.99-15.381c39.45-2.348,79.911-4.697,120.372-5.871c29.335-1.174,57.658-1.174,86.992-1.174
				c27.312,0,55.635-1.174,83.957,3.523C1137.416-17.729,1154.612-4.813,1142.474,5.754z M1414.577-308.921
				c-28.323,10.567-57.658,17.612-86.992,21.135c-7.081,1.174-17.196-3.523-20.231-11.742c-2.023-4.696-1.012-9.393,2.023-11.742
				c-93.061-2.348-186.122,0-279.184,5.871c-96.096,5.87-201.295,12.916-289.299,19.961c-26.3,2.348-50.576,2.348-77.888,2.348
				c-11.127,0-25.289-5.871-28.323-19.961c0-2.348,0-4.696,2.023-7.045l5.058-4.696c6.069-7.045,15.173-5.871,22.254-1.174
				c2.023,3.522,14.161,2.348,18.208,2.348l22.254-1.174c119.361-7.045,224.561-14.09,359.095-21.135
				c113.292-4.696,226.584-4.696,339.876,1.174c7.081,0,15.173,4.697,18.208,11.742
				C1423.68-315.966,1420.646-310.096,1414.577-308.921z"/>
		</g>
		<g style="display:inline;">
			<path style="stroke:#000000;stroke-width:9;stroke-linecap:round;stroke-linejoin:round;stroke-miterlimit:10;" d="
				M107.686,862.889l-16.184,27.006c-38.439,61.056-75.865,122.113-112.28,184.344c-48.554,82.192-96.096,165.558-139.592,251.271
				l-14.162,29.354c-8.092,16.439-9.104,17.613-9.104,18.787c-2.023,3.522,1.011-2.348-1.011,1.174l-3.035,5.87
				c-10.115,21.135-19.219,43.445-27.311,65.754c-4.046,11.741-8.092,24.657-11.127,37.573l-2.023,15.264c0,1.175,0,3.523,0,3.523
				v4.696c0,1.175,0,8.219,2.023,10.568c5.058,3.523,11.127,9.393,9.104,16.439c-2.023,9.393-14.161,9.393-20.231,7.044
				c-38.438-11.741-24.277-70.449-14.161-100.978c15.173-43.444,35.404-85.714,56.646-125.636
				c21.242-42.27,43.496-84.54,66.761-125.635c44.508-79.844,91.038-158.512,137.569-236.007
				c11.127-17.613,27.311-44.619,33.38-56.36c0,0-1.012,1.173-6.069,5.87c-13.15,12.916-26.3,25.832-40.462,39.922l-36.416,36.399
				c-23.265,25.832-47.542,50.489-69.796,76.32c-42.484,46.967-83.957,95.107-122.395,145.597
				c-37.427,49.315-72.831,99.804-108.234,150.293L-391,1419.442c-18.207,25.832-35.403,51.663-58.669,72.798
				c-9.104,7.044-25.288-1.174-29.335-10.568c-5.057-11.742-5.057-25.831-3.034-37.574c3.034-15.264,7.081-30.527,12.138-45.792
				c26.3-75.146,66.761-143.248,103.176-211.349l27.311-55.186l22.254-46.967c5.057-8.219,9.104-17.613,13.15-25.832
				c1.012-3.522,2.023-5.87,4.046-8.218c0-1.174,1.011-2.349,1.011-2.349c0-1.173,1.012-2.348,1.012-2.348l6.069-12.916
				c16.185-35.225,32.37-69.275,46.531-105.675c2.023-4.696,4.046-9.393,6.069-14.09c-37.427,30.528-68.784,71.624-99.13,111.545
				c-39.45,52.837-80.923,103.327-119.361,157.338c-41.473,57.535-80.923,115.068-118.349,174.95
				c-38.439,59.883-74.854,119.765-110.257,181.995c-16.184,28.18-32.369,58.709-47.542,88.063
				c-4.046,11.741-7.081,23.483-11.127,35.225c-8.092,24.657-16.184,50.488-30.346,70.45c-4.046,5.87-13.15,5.87-19.219,3.522
				c-4.046-1.174-14.162-7.045-13.15-15.265c1.011-22.309,9.104-41.095,18.207-61.057c6.069-15.264,13.15-29.353,20.231-43.443
				c4.046-10.568,7.081-19.961,11.127-29.354c14.162-31.702,27.311-63.405,41.473-93.933
				c29.334-63.405,60.692-125.636,93.061-186.692c30.346-61.057,61.703-122.114,91.038-184.344
				c15.173-30.527,29.334-62.23,42.484-93.932c13.15-30.528,24.277-62.231,36.416-92.759
				c16.184-37.574,62.715-157.337,38.438-192.563c-16.185-16.438-89.015,35.226-116.326,58.709
				c-16.185,15.264-31.358,29.353-46.531,46.966c-18.207,21.135-36.415,42.27-52.599,65.753
				c-39.45,54.011-74.854,115.068-102.165,178.473c-24.277,55.186-45.519,113.893-55.635,173.776
				c-3.035,27.005-14.162,71.623,5.058,93.933c5.058,5.87,2.023,15.264-5.058,17.612c-8.092,2.348-16.184-2.348-22.254-8.219
				c-15.173-17.612-16.185-46.966-15.173-69.275c2.023-55.186,17.196-109.197,35.404-159.686
				c24.277-66.927,56.646-131.506,93.061-190.215c31.357-49.314,65.75-96.281,104.188-137.376
				c28.323-28.18,57.658-55.186,91.038-75.146c20.231-11.742,43.496-23.483,66.761-24.658c17.196-2.348,35.404,3.523,47.542,18.787
				c9.104,11.742,12.138,29.354,12.138,45.793c0,39.921-12.138,81.017-25.288,118.59c-5.057,16.438-11.127,31.702-16.184,46.966
				l-33.381,84.54c-38.439,90.41-81.934,177.298-126.442,264.186c35.404-55.186,72.831-108.023,111.269-160.86
				c21.242-28.18,41.473-55.186,63.727-82.192c18.207-22.31,35.403-45.793,52.599-69.276
				c36.416-45.792,74.854-91.584,123.408-117.416c9.104-4.696,22.254-2.348,27.311,7.045c6.069,8.219,4.046,17.612,2.023,27.006
				c-3.035,11.741-7.081,22.308-11.127,34.051c-13.15,35.225-29.335,69.275-44.507,103.326
				c-17.196,35.225-33.381,70.45-51.589,105.675c-9.104,18.787-18.208,38.748-28.323,57.535
				c-72.83,145.596-89.015,170.253-99.13,201.955c-4.046,10.568-7.081,19.961-10.115,30.528c9.104-14.09,18.208-28.18,28.323-41.096
				c19.219-24.657,37.427-50.489,56.646-77.495c35.404-49.315,70.808-99.804,108.234-147.945
				c39.45-51.663,82.946-99.804,126.442-147.944c48.553-54.012,104.188-113.894,163.869-163.209
				c17.196-14.09,38.439-19.961,58.669-8.218C105.663,847.625,112.744,855.844,107.686,862.889z M-298.951,1047.233c0,0,0,0,0,1.173
				C-298.951,1048.406-298.951,1048.406-298.951,1047.233z"/>
			<path style="stroke:#000000;stroke-width:9;stroke-linecap:round;stroke-linejoin:round;stroke-miterlimit:10;" d="
				M985.688,973.261c-30.346,63.405-63.727,125.635-95.084,187.866c-34.392,70.45-65.749,140.9-95.084,217.22
				c-17.196,44.618-39.45,106.849-37.427,162.035c6.069,1.173,17.196,7.044,17.196,15.264s-1.011,18.787-9.104,22.309
				c-7.081,2.348-14.162,0-20.231-3.522c-8.092-3.523-16.184-9.393-19.219-18.787c-15.173-38.748,13.15-129.158,28.323-171.428
				c43.496-122.114,109.246-250.097,178.03-385.126c19.219-38.747,77.888-145.597,63.727-189.041
				c-46.53-41.096-199.272,112.72-243.78,169.08c-39.45,49.315-79.911,96.281-118.349,145.597
				c-85.981,111.545-170.949,224.265-254.907,338.159c-21.242,29.354-41.473,59.883-63.727,88.063
				c-11.127,15.264-23.265,30.527-37.427,44.618c-11.127,10.568-22.254,21.135-38.439,19.96c-6.069,0-15.173-4.696-17.196-11.742
				c-1.011-2.348-2.023-4.696-2.023-5.87c-1.012-12.916,6.069-25.831,11.127-36.399c9.104-18.787,19.219-36.4,29.334-55.186
				c21.242-35.225,43.496-70.449,63.727-106.849c15.173-27.005,28.323-52.837,43.496-78.669
				c16.184-29.354,33.38-57.534,50.576-86.888l107.223-178.473c36.416-62.231,75.865-122.113,111.269-185.518l26.3-45.792
				c15.173-28.18,32.369-57.535,45.519-93.933c-1.012,0-1.012,0-1.012,0c-27.311,7.045-50.576,25.831-61.704,32.877
				c-17.196,11.742-33.381,24.657-49.565,37.573c-32.369,25.832-63.727,56.361-93.061,85.715
				c-41.473,41.095-81.934,84.54-121.384,129.158c-19.219,22.308-37.427,44.618-53.612,69.275
				c-7.081,10.568-14.161,22.309-20.231,34.051l-7.081,15.265c3.035,4.696,3.035,9.393-1.011,15.264
				c-8.092,14.09-34.392,14.09-39.45-4.696c-3.034-18.787,34.393-72.798,46.531-92.759c18.208-24.658,39.45-48.141,59.681-71.624
				l63.727-69.275c34.392-36.4,70.808-71.624,108.234-105.675c28.323-27.005,58.669-50.489,91.038-71.624
				c17.196-11.742,36.415-22.309,55.634-29.353c18.208-5.871,56.646-11.742,58.669,21.135
				c1.012,35.225-58.669,133.854-76.876,165.557c-36.416,62.231-74.854,123.287-112.28,184.344L448.563,1255.06
				c-17.196,28.179-33.38,56.36-49.565,85.714c-15.173,25.831-28.323,51.663-43.496,77.495
				c-18.208,32.876-38.439,65.753-58.669,98.63l52.599-71.623c82.946-113.894,167.915-226.614,253.896-338.16
				c38.438-50.489,77.888-99.804,118.349-146.77c31.357-36.4,63.727-70.45,98.119-102.153c19.219-17.613,39.45-35.225,60.692-49.315
				c18.208-11.742,37.427-21.135,57.658-27.005c19.219-5.871,40.461-8.219,59.681-2.349c17.196,5.871,30.346,17.613,32.369,38.748
				C1034.241,861.715,1004.907,933.339,985.688,973.261z"/>
		</g>
	</g>
	<g>
		<path style="fill:none;stroke:#061EFC;stroke-width:28.8;stroke-linecap:round;stroke-linejoin:round;stroke-miterlimit:10;" d="
			M14.738,643.18C24.925,322.429,239.379,85.095,342.209,32.095c12.828-6.612,47.24-25.556,67.043-14.043
			c19.479,11.325,18.642,27.456,19.026,37.145c1.378,34.786-9.793,83.194-22.086,115.765
			c-104.636,277.218-255.475,558.513-372.342,837.09"/>
		<path style="fill:none;stroke:#061EFC;stroke-width:28.8;stroke-linecap:round;stroke-linejoin:round;stroke-miterlimit:10;" d="
			M191.211,660.246c47.994-57.708,57.559-74.755,101.167-129.031c90.109-112.152,152.905-216.359,254.657-327.797
			c6.734-7.375,14.043-14.304,21.66-20.757c8.892-7.533,18.201-14.214,29.67-17.05c6.809-1.684,24.91-2.605-0.668,50.4
			c-12.41,25.718-54.767,120.573-72.412,156.736c-56.162,115.102-67.12,128.439-125.404,241.264
			c-24.575,47.572-52.237,106.634-39.553,151.028c42.581-37.145,171.181-229.113,256.394-340.651
			c23.623-30.921,54.931-65.527,81.539-93.921c39.466-42.114,78.035-87.397,115.966-122.61
			c32.344-30.027,54.359-48.923,70.063-37.447c15.704,11.476-76.153,143.046-127.442,231.933
			C688.51,520.776,560.552,717.625,576.255,810.036"/>
	</g>
</g>
<g id="KEY" style="display:none;">
</g>
</svg>
