<?xml version="1.0" encoding="iso-8859-1"?>
<!-- Generator: Adobe Illustrator 17.0.0, SVG Export Plug-In . SVG Version: 6.00 Build 0)  -->
<!DOCTYPE svg PUBLIC "-//W3C//DTD SVG 1.1//EN" "http://www.w3.org/Graphics/SVG/1.1/DTD/svg11.dtd">
<svg version="1.1" xmlns="http://www.w3.org/2000/svg" xmlns:xlink="http://www.w3.org/1999/xlink" x="0px" y="0px"
	 width="660.571px" height="448.062px" viewBox="0 0 660.571 448.062" style="enable-background:new 0 0 660.571 448.062;"
	 xml:space="preserve">
<g id="TEMPLATE_FORM">
</g>
<g id="font" style="display:none;">
	<g style="display:inline;">
		<path style="stroke:#000000;stroke-width:9;stroke-linecap:round;stroke-linejoin:round;stroke-miterlimit:10;" d="
			M19.572,438.962c-3.997,0-7.114-1.627-9.351-4.871c-2.24-3.248-3.357-6.449-3.357-9.602c0-0.374,1.638-4.036,4.916-10.994
			c3.274-6.958,7.71-16.051,13.307-27.275c5.594-11.229,12.026-24.17,19.302-38.825c7.272-14.66,14.904-29.78,22.898-45.366
			c-7.036-3.34-10.55-10.111-10.55-20.317c0-4.079,1.199-8.302,3.597-12.664c2.397-4.357,5.754-8.767,10.07-13.22
			s9.389-8.811,15.226-13.081c5.833-4.267,12.188-8.532,19.062-12.803c5.593-10.946,10.988-21.104,16.185-30.477
			c5.193-9.367,9.868-17.765,14.027-25.188c4.953-8.532,9.711-16.373,14.267-23.519c4.556-7.141,8.789-13.312,12.708-18.508
			c3.915-5.192,7.47-9.185,10.67-11.968c3.195-2.783,5.994-4.175,8.392-4.175c3.994,0,7.111,1.53,9.352,4.592
			c2.236,3.062,3.356,6.449,3.356,10.159c0,3.157-0.479,5.845-1.438,8.071s-3.038,3.992-6.234,5.288
			c-1.12,0.557-2.637,2.044-4.556,4.453c-1.918,2.413-4.436,6.079-7.553,10.993c-3.117,4.919-6.953,11.272-11.509,19.065
			s-10.033,17.442-16.425,28.945c13.907-6.68,27.492-12.707,40.762-18.091c13.266-5.38,24.775-9.924,34.527-13.638
			c35.966-13.542,72.49-25.788,109.576-36.738c37.404-35.068,56.106-65.031,56.106-89.897c0-5.192-2.319-9.185-6.953-11.968
			c-4.638-2.783-13.03-4.175-25.176-4.175c-10.711,0-22.539,1.3-35.486,3.896c-12.948,2.601-26.296,6.123-40.042,10.576
			c-13.75,4.453-27.615,9.649-41.601,15.586c-13.989,5.94-27.375,12.246-40.162,18.926c-12.791,6.68-24.539,13.638-35.247,20.874
			c-10.711,7.236-19.822,14.29-27.334,21.152l0.24-0.278c-7.354,7.054-12.989,13.686-16.904,19.899
			c-3.919,6.219-5.875,11.829-5.875,16.839c0,0.374,0.158,1.487,0.48,3.34c0,5.384-1.319,9.419-3.957,12.106
			c-2.637,2.692-5.556,4.036-8.751,4.036c-3.2,0-5.676-0.648-7.433-1.948c-1.761-1.296-3.038-2.923-3.836-4.871
			c-0.802-1.948-1.281-4.079-1.438-6.401c-0.161-2.317-0.24-4.496-0.24-6.54c0-10.759,4.113-22.218,12.348-34.373
			c8.231-12.15,19.781-24.214,34.647-36.182c14.866-11.968,32.767-23.562,53.709-34.79c20.939-11.224,44.118-21.383,69.534-30.476
			c19.339-6.68,37.285-11.781,53.829-15.308c16.544-3.522,31.291-5.288,44.238-5.288c20.298,0,34.805,3.84,43.519,11.515
			c8.71,7.676,13.068,18.817,13.068,33.429c0,12.024-2.679,24.379-8.033,37.06c-5.357,12.686-13.229,25.706-23.618,39.065
			c18.223-4.823,36.123-9.137,53.709-12.942c17.582-3.801,34.685-7.188,51.312-10.158c15.503-2.783,31.448-5.149,47.835-7.098
			c16.383-1.948,31.927-2.922,46.636-2.922c15.982,0,30.41,1.548,43.279,4.636c12.865,3.092,22.658,8.571,29.372,16.438
			c1.757,2.061,2.757,4.032,2.997,5.901s0.359,3.27,0.359,4.197c0,4.271-1.401,7.749-4.196,10.437
			c-2.798,2.692-5.556,4.036-8.272,4.036c-1.761,0-3.518-0.278-5.275-0.835c-1.761-0.557-3.356-2.227-4.795-5.01
			c-3.679-3.153-9.632-5.706-17.863-7.654c-8.235-1.948-18.744-2.922-31.53-2.922c-13.427,0-29.174,1.069-47.235,3.2
			c-18.065,2.136-37.565,5.149-58.505,9.046c-20.942,3.896-43.039,8.628-66.297,14.194s-46.797,11.785-70.613,18.647
			c-10.231,9.463-22.021,19.204-35.366,29.224c-13.349,10.02-27.454,19.899-42.32,29.641c-14.866,9.741-30.091,19.021-45.677,27.832
			c-15.585,8.815-30.811,16.795-45.677,23.936c-14.866,7.146-28.934,13.081-42.2,17.812c-13.27,4.731-25.019,7.841-35.247,9.324
			c-8.475,16.329-16.544,32.007-24.217,47.036s-14.386,28.293-20.141,39.8c-5.754,11.502-10.393,20.778-13.907,27.832
			c-3.518,7.049-5.275,10.667-5.275,10.854c-1.281,2.966-2.84,5.288-4.676,6.958C24.806,438.127,22.45,438.962,19.572,438.962z
			 M216.187,221.594c8.789-5.01,17.342-10.159,25.655-15.447c8.31-5.288,16.462-10.619,24.457-16.003
			c-30.691,10.394-58.025,20.552-82.002,30.476c-23.977,9.929-44.04,19.161-60.183,27.693c-3.518,7.054-7.275,14.103-11.269,21.152
			c6.871-2.227,14.386-4.962,22.539-8.211c8.152-3.244,16.623-6.91,25.416-10.993c8.789-4.079,17.863-8.532,27.214-13.359
			C197.364,232.078,206.753,226.978,216.187,221.594z"/>
	</g>
</g>
<g id="vectorized-fonts">
	<g id="Uppercase">
		<g>
			<path style="fill:none;stroke:#0000FF;stroke-width:28.8;stroke-linecap:round;stroke-linejoin:round;stroke-miterlimit:10;" d="
				M184.375,125.625c-26.269,26.663-149.44,264.259-170,308.049"/>
			<path style="fill:none;stroke:#0000FF;stroke-width:28.8;stroke-linecap:round;stroke-linejoin:round;stroke-miterlimit:10;" d="
				M336.677,154.518c45.447-10.771,189.698-51.061,309.486-47.617"/>
			<path style="fill:none;stroke:#0000FF;stroke-width:28.8;stroke-linecap:round;stroke-linejoin:round;stroke-miterlimit:10;" d="
				M81.375,152.296c18-67.671,270-176.671,317-123.671c69.197,78.031-309,330-328,256
				c-18.337-71.419,225.794-119.507,266.302-130.107"/>
		</g>
	</g>
</g>
<g id="KEY" style="display:none;">
</g>
</svg>
