<?xml version="1.0" encoding="iso-8859-1"?>
<!-- Generator: Adobe Illustrator 17.0.0, SVG Export Plug-In . SVG Version: 6.00 Build 0)  -->
<!DOCTYPE svg PUBLIC "-//W3C//DTD SVG 1.1//EN" "http://www.w3.org/Graphics/SVG/1.1/DTD/svg11.dtd">
<svg version="1.1" xmlns="http://www.w3.org/2000/svg" xmlns:xlink="http://www.w3.org/1999/xlink" x="0px" y="0px"
	 width="577.724px" height="579.51px" viewBox="0 0 577.724 579.51" style="enable-background:new 0 0 577.724 579.51;"
	 xml:space="preserve">
<g id="TEMPLATE_FORM">
</g>
<g id="Goldie-Bayshore">
	<g id="lowercase_2_" style="display:none;">
		<g style="display:inline;">
			<path style="stroke:#000000;stroke-width:9;stroke-linecap:round;stroke-linejoin:round;stroke-miterlimit:10;" d="
				M298.847,47.888c-17.745,17.216-39.433,28.693-61.122,39.022c-21.689,10.33-44.364,19.512-68.023,25.25
				c-8.873,1.148-21.689,4.591-33.519,5.739c-4.929,8.034-9.858,16.068-15.774,24.102c-9.858,14.921-19.717,28.693-30.561,42.465
				c-12.817,16.068-27.604,32.136-45.349,40.171c-16.759,8.034-36.476,12.625-53.236,1.147c-7.887-5.738-13.801-13.772-15.773-25.25
				c-1.972-9.181-0.986-19.51,0.985-28.692c5.916-29.841,19.717-57.386,34.504-81.488C27.74,65.104,47.457,42.15,71.117,26.082
				c5.915-3.444,14.788-1.148,19.717,3.442c7.887,6.887,3.944,19.512-4.929,19.512c-16.759,16.068-31.547,34.432-45.348,55.09
				c-13.802,20.66-26.619,44.762-32.533,71.159c-2.957,21.807-3.944,37.875,17.746,25.249c15.773-9.181,26.617-21.806,39.433-36.726
				c10.844-14.92,22.674-29.841,32.532-45.909c2.957-4.591,5.916-8.034,7.887-11.477c-0.985-1.148-1.971-2.296-2.957-3.444
				c-5.915-8.034-7.887-18.363-7.887-28.692c0-6.886,0-16.068,2.957-22.954c2.957-10.33,9.858-20.66,17.745-26.398
				c12.817-8.034,28.59-3.444,36.477,10.329c9.858,16.069,5.915,34.431,0,51.647v1.148h1.971c23.66-5.738,46.335-14.92,69.009-25.25
				l29.575-16.068c8.872-5.738,17.745-10.329,25.632-17.216C287.017,22.638,310.677,36.411,298.847,47.888z"/>
			<path style="stroke:#000000;stroke-width:9;stroke-linecap:round;stroke-linejoin:round;stroke-miterlimit:10;" d="
				M876.528,57.07c-29.575,34.432-62.108,64.272-96.612,92.965c-33.519,27.545-69.995,53.943-107.458,72.307
				c-32.532,17.215-69.995,32.136-105.485,24.102c-5.916-1.148-12.817-4.592-15.774-11.478c-1.972-4.59-0.985-8.034,2.957-11.477
				c3.944-3.443,10.845-10.329,13.802-13.773l22.675-25.25c17.745-20.658,34.504-42.465,50.277-66.567l12.817-20.659
				c13.801-27.546,15.773-33.284,14.788-40.17c0-3.444-1.972-5.738-7.887-5.738c-22.674,0-48.306,20.658-64.079,41.317
				c-6.901,6.887-13.802,14.921-19.717,22.955c-10.845,14.92-21.689,29.84-30.562,45.908c-4.929,8.034-9.858,16.068-13.801,24.102
				l-17.746,30.988l-13.802,24.103c-19.717,59.681-40.419,118.215-59.15,176.749c-9.858,28.692-17.745,57.386-29.575,84.93
				c-10.844,26.398-23.66,51.648-42.392,71.16c-7.887,9.181-23.66,4.59-28.589-6.887c-7.887-20.659-5.916-44.761-1.972-65.42
				c4.929-25.25,12.816-49.352,22.674-72.307c8.873-22.954,20.703-44.76,31.547-66.567c15.774-28.693,31.547-57.386,48.306-86.079
				l34.504-59.682l1.972-6.886c9.858-30.988,21.689-61.976,31.547-92.965c8.873-26.397,17.746-55.091,21.689-82.635
				c-2.957-1.148-5.915-8.034-3.943-11.478c4.929-9.182,31.546-12.624,31.546,5.739c-0.985,25.249-6.9,49.352-12.816,73.454
				c8.873-12.625,18.731-22.955,28.59-33.284c14.788-14.921,30.561-28.693,49.292-36.727c15.774-5.738,36.476-9.182,52.25-2.296
				c11.83,5.739,23.66,16.068,23.66,32.136c0,13.774-5.915,26.398-11.829,39.023c-14.788,30.989-36.476,58.534-57.179,84.931
				c-8.873,12.626-19.717,24.102-29.575,35.58c19.717-4.592,40.42-14.92,60.137-25.25l15.773-9.182
				c36.476-21.806,70.98-48.204,104.499-78.045c7.887-5.739,15.774-12.625,22.675-19.511l10.844-10.33l7.887-6.886
				c9.859-9.182,19.718-19.511,28.59-29.84c4.929-5.739,12.816-4.592,18.731-1.148C874.556,43.297,881.457,51.332,876.528,57.07z
				 M420.083,384.171c-7.887,14.92-14.788,28.692-21.689,43.613c-10.844,24.102-20.702,49.352-26.618,74.601
				c-0.985,5.74-1.972,12.626-2.957,19.512c17.745-33.284,28.59-71.158,40.42-106.738L420.083,384.171z"/>
		</g>
	</g>
	<g id="Uppercase" style="display:none;">
	</g>
	<g>
		<path style="fill:none;stroke:#061EFC;stroke-width:28.8;stroke-linecap:round;stroke-linejoin:round;stroke-miterlimit:10;" d="
			M246.963,14.425c-17.12,109.022-77.375,347.963-108.021,453.983c-6.862,23.739-16.574,47.624-31.757,67.347
			c-13.855,17.997-39.078,34.227-62.656,27.988c-44.709-11.831-29.227-70.064-18.998-101.339c19.781-60.48,54.055-114.663,87-168.64
			c42.888-70.268,89.512-140.339,146.175-200.378c24.01-25.441,78.86-85.166,119.418-58.948
			c46.858,30.292-72.651,166.756-116.872,191.688"/>
		<path style="fill:none;stroke:#061EFC;stroke-width:28.8;stroke-linecap:round;stroke-linejoin:round;stroke-miterlimit:10;" d="
			M261.225,225.859c90.624,30.545,288.129-163.336,302.102-184.044"/>
	</g>
</g>
<g id="KEY" style="display:none;">
</g>
</svg>
