<?xml version="1.0" encoding="iso-8859-1"?>
<!-- Generator: Adobe Illustrator 17.0.0, SVG Export Plug-In . SVG Version: 6.00 Build 0)  -->
<!DOCTYPE svg PUBLIC "-//W3C//DTD SVG 1.1//EN" "http://www.w3.org/Graphics/SVG/1.1/DTD/svg11.dtd">
<svg version="1.1" xmlns="http://www.w3.org/2000/svg" xmlns:xlink="http://www.w3.org/1999/xlink" x="0px" y="0px"
	 width="476.473px" height="505.167px" viewBox="0 0 476.473 505.167" style="enable-background:new 0 0 476.473 505.167;"
	 xml:space="preserve">
<g id="TEMPLATE_FORM">
</g>
<g id="ShinnType_-_Handsome_1_">
	<g id="font_1_" style="display:none;">
		<g style="display:inline;">
			<path style="fill:#F91010;stroke:#F91010;stroke-width:9;stroke-linecap:round;stroke-linejoin:round;stroke-miterlimit:10;" d="
				M464.318,138.882c-9.033,11.527-18.513,22.537-28.45,33.011c-9.937,10.484-20.093,20.967-30.477,31.441
				c-17.121,16.774-37.284,30.835-60.477,42.163c-23.193,11.328-47.439,17.002-72.719,17.002c-14.448,0-28.788-2.107-43.007-6.29
				c-14.23-4.203-27.883-11.279-40.97-21.245c-5.873-3.14-8.804-8.387-8.804-15.74c0-5.763,1.799-10.225,5.416-13.375
				c3.607-3.14,7.443-4.72,11.517-4.72c4.959,0,9.241,1.709,12.859,5.118c3.617,3.418,9.033,5.118,16.257,5.118
				c6.777,0,14.677-2.753,23.71-8.258c9.023-5.505,18.284-12.849,27.764-22.03s18.851-19.407,28.112-30.686
				c9.251-11.279,17.489-22.955,24.723-35.018c7.224-12.064,13.097-23.6,17.608-34.611s6.777-20.977,6.777-29.9
				c0-11.537-4.511-17.31-13.534-17.31c-5.873,0-13.773,2.365-23.7,7.075c-13.087,6.29-26.283,14.806-39.599,25.548
				s-26.413,22.796-39.271,36.151c-12.859,13.365-25.27,27.774-37.234,43.236s-22.905,31.043-32.822,46.754
				c-7.671,27.247-15.909,56.194-24.713,86.859c-8.804,30.646-18.056,59.861-27.754,87.635
				c-9.699,27.764-19.407,52.656-29.115,74.667c-9.689,22.001-19.288,38.248-28.768,48.731c-8.566,11-18.274,16.505-29.106,16.505
				c-8.586,0-15.82-3.806-21.712-11.398c-5.873-7.602-8.814-17.956-8.814-31.053c0-13.634,2.941-28.827,8.794-45.591
				c5.873-16.784,12.978-33.547,21.315-50.311c8.357-16.784,17.032-32.762,26.055-47.956c9.023-15.204,16.694-27.774,23.014-37.731
				c9.023-14.687,18.841-31.063,29.433-49.139s21.991-36.548,34.173-55.419c4.511-17.29,8.904-34.591,13.196-51.881
				c4.283-17.29,8.904-35.376,13.872-54.246l1.351-7.075c-6.777,11.01-14.448,22.796-23.024,35.376
				c-9.043,12.58-17.738,23.839-26.085,33.796c-8.337,9.957-14.776,17.817-19.298,23.581c-3.607,4.193-7.224,6.29-10.841,6.29
				c-4.511,0-8.228-1.958-11.169-5.893c-2.931-3.925-4.402-8.248-4.402-12.968c0-5.237,1.809-9.43,5.416-12.58
				c4.521-5.237,11.07-13.226,19.645-23.968c8.586-10.742,17.608-22.925,27.088-36.558c2.256-3.14,5.754-8.119,10.493-14.935
				c4.74-6.807,9.818-13.753,15.243-20.828c5.416-7.075,10.831-13.355,16.247-18.86c5.416-5.505,10.156-8.258,14.21-8.258
				c1.809,0,3.607-0.258,5.416-0.785c1.799-0.527,3.607-0.795,5.416-0.795c4.054,0,7.671,1.451,10.831,4.333s4.75,7.989,4.75,15.323
				c0,9.44-1.471,17.956-4.412,25.548c-2.941,7.602-5.535,15.859-7.781,24.763c-0.914,4.193-1.928,8.914-3.051,14.15
				c-1.133,5.247-2.594,11.01-4.402,17.29c17.171-22.011,35.465-41.924,54.892-59.741s39.301-31.709,59.632-41.676
				c14.458-6.807,27.108-10.215,37.959-10.215c14.448,0,25.18,5.118,32.186,15.333c6.996,10.215,10.503,22.666,10.503,37.333
				c0,18.344-3.965,36.558-11.875,54.644c-7.91,18.085-17.976,34.988-30.179,50.709c-12.213,15.72-25.329,30-39.341,42.839
				c-14.021,12.839-27.138,23.193-39.341,31.053c0.894,0,1.908,0.149,3.041,0.427c1.133,0.288,2.146,0.427,3.051,0.427
				c10.374,0,21.086-1.57,32.136-4.71c11.05-3.14,21.881-7.204,32.484-12.183c10.593-4.978,20.629-10.742,30.109-17.3
				c9.48-6.548,17.598-13.226,24.366-20.043c9.937-9.43,19.417-19.516,28.45-30.258c9.023-10.742,18.056-21.355,27.088-31.838
				c2.703-4.193,6.091-6.29,10.166-6.29c4.511,0,8.119,2.097,10.831,6.29c2.703,4.193,4.064,8.377,4.064,12.57
				C469.734,131.549,467.925,135.742,464.318,138.882z M88.351,322.747c-9.231,15.184-18.254,31.033-27.049,47.539
				c-8.784,16.486-16.336,32.862-22.656,49.109c-6.31,16.227-9.47,30.109-9.47,41.636c0,6.28,0.855,9.43,2.544,9.43
				c3.16,0,7.234-4.064,12.193-12.173c4.978-8.128,10.176-18.344,15.591-30.646c5.436-12.322,10.97-25.946,16.605-40.861
				c5.654-14.935,10.851-29.344,15.591-43.216c4.75-13.892,8.814-26.065,12.193-36.538c3.398-10.474,5.773-17.807,7.125-22.001
				C105.155,294.973,97.603,307.543,88.351,322.747z"/>
		</g>
	</g>
	<g>
		<path style="fill:none;stroke:#0000FF;stroke-width:28.8;stroke-linecap:round;stroke-linejoin:round;stroke-miterlimit:10;" d="
			M84.715,154.27C94.91,129.097,166.591,22.107,188.289,29.326c16.959,5.642-88.318,441.344-154.533,461.269
			c-31.698,4.928-45.473-99.406,131.725-322.845"/>
		<path style="fill:none;stroke:#0000FF;stroke-width:28.8;stroke-linecap:round;stroke-linejoin:round;stroke-miterlimit:10;" d="
			M165.481,167.75c26.714-32.878,127.413-184.805,192.278-147.458c69.957,40.278-97.515,234.885-160.264,203.51
			c104.723,84.372,256.12-71.755,264.563-103.451"/>
	</g>
</g>
<g id="KEY" style="display:none;">
</g>
<g id="nyt_x5F_exporter_x5F_info" style="display:none;">
</g>
</svg>
