<?xml version="1.0" encoding="iso-8859-1"?>
<!-- Generator: Adobe Illustrator 17.0.0, SVG Export Plug-In . SVG Version: 6.00 Build 0)  -->
<!DOCTYPE svg PUBLIC "-//W3C//DTD SVG 1.1//EN" "http://www.w3.org/Graphics/SVG/1.1/DTD/svg11.dtd">
<svg version="1.1" id="vectorized" xmlns="http://www.w3.org/2000/svg" xmlns:xlink="http://www.w3.org/1999/xlink" x="0px" y="0px"
	 width="378.75px" height="808.227px" viewBox="0 0 378.75 808.227" style="enable-background:new 0 0 378.75 808.227;"
	 xml:space="preserve">
<g id="numbers_1_">
</g>
<path style="fill:none;stroke:#0000FF;stroke-width:28.8;stroke-linecap:round;stroke-linejoin:round;stroke-miterlimit:10;" d="
	M129.672,140.184c27.579,31.758,34.045,76.099,27.056,117.575c-4.301,25.527-43.227,140.639-51.796,276.74
	c51.082-13.848,153.704-63.589,164.569-141.631C288.5,256.398,157.5,140.184,129.672,140.184"/>
<path style="fill:none;stroke:#0000FF;stroke-width:28.8;stroke-linecap:round;stroke-linejoin:round;stroke-miterlimit:10;" d="
	M32.26,92.475c13.91,23.616,28.025,47.744,33.861,74.523c6.989,32.067-88.621,511.4-35.461,617.326
	c36.745,39.9,80.446-58.096,74.271-69.926c-18.098-34.667-19.802-111.941-11.431-114c122-30,258-104,270-250
	s-116-301.942-260.569-336C79.5,14.398,51.5,50.398,32.26,92.475"/>
</svg>
