<?xml version="1.0" encoding="iso-8859-1"?>
<!-- Generator: Adobe Illustrator 17.0.0, SVG Export Plug-In . SVG Version: 6.00 Build 0)  -->
<!DOCTYPE svg PUBLIC "-//W3C//DTD SVG 1.1//EN" "http://www.w3.org/Graphics/SVG/1.1/DTD/svg11.dtd">
<svg version="1.1" xmlns="http://www.w3.org/2000/svg" xmlns:xlink="http://www.w3.org/1999/xlink" x="0px" y="0px"
	 width="878.062px" height="1023.363px" viewBox="0 0 878.062 1023.363" style="enable-background:new 0 0 878.062 1023.363;"
	 xml:space="preserve">
<g id="TEMPLATE_FORM">
</g>
<g id="Goldie-Bayshore">
	<g id="Uppercase" style="display:none;">
	</g>
	<g>
		<path style="fill:none;stroke:#061EFC;stroke-width:28.8;stroke-linecap:round;stroke-linejoin:round;stroke-miterlimit:10;" d="
			M46.39,310.014c92.642-74.536,186.148-149.893,292.986-203.401c53.937-27.014,111.188-49.262,169.874-63.445
			c58.922-14.24,118.698-26.986,179.515-28.526c50.957-1.291,115.505,2.281,149.901,46.108
			c75.47,96.165-37.549,225.195-109.456,283.235c-40.978,33.075-85.256,61.999-130.682,88.555
			c-87.626,51.226-180.424,94.829-275.732,129.754c-33.114,12.135-67.12,24.326-101.919,30.676"/>
		<path style="fill:none;stroke:#061EFC;stroke-width:28.8;stroke-linecap:round;stroke-linejoin:round;stroke-miterlimit:10;" d="
			M427.328,257.075C304.34,443.482,92.34,782.321,14.425,1008.952"/>
		<path style="fill:none;stroke:#061EFC;stroke-width:28.8;stroke-linecap:round;stroke-linejoin:round;stroke-miterlimit:10;" d="
			M45.68,309.447c93.771,28.034,159.002,173.898,59.117,491.9"/>
	</g>
</g>
<g id="KEY" style="display:none;">
</g>
</svg>
