<?xml version="1.0" encoding="iso-8859-1"?>
<!-- Generator: Adobe Illustrator 17.0.0, SVG Export Plug-In . SVG Version: 6.00 Build 0)  -->
<!DOCTYPE svg PUBLIC "-//W3C//DTD SVG 1.1//EN" "http://www.w3.org/Graphics/SVG/1.1/DTD/svg11.dtd">
<svg version="1.1" xmlns="http://www.w3.org/2000/svg" xmlns:xlink="http://www.w3.org/1999/xlink" x="0px" y="0px" width="298px"
	 height="332px" viewBox="0 0 298 332" style="enable-background:new 0 0 298 332;" xml:space="preserve">
<g id="TEMPLATE_FORM">
</g>
<g id="font" style="display:none;">
	<path style="display:inline;stroke:#000000;stroke-width:9;stroke-linecap:round;stroke-linejoin:round;stroke-miterlimit:10;" d="
		M293.32,287.965c-45.387,27.766-98.136,44.853-137.39,44.853c-89.548,0-149.656-64.788-149.656-161.614
		c0-95.403,60.721-163.751,144.75-163.751c79.121,0,138.617,60.517,138.617,141.68c0,4.984-0.613,15.663-1.227,25.631H29.581
		c3.067,81.162,50.908,132.424,123.896,132.424c38.028,0,77.896-12.816,129.416-42.006L293.32,287.965z M265.107,151.269
		c0-69.772-47.228-118.185-114.083-118.185c-63.788,0-110.403,45.565-119.603,118.185H265.107z"/>
</g>
<g id="vectorized-fonts">
	<g>
		<path style="fill:none;stroke:#0000FF;stroke-width:28.8;stroke-linecap:round;stroke-linejoin:round;stroke-miterlimit:10;" d="
			M19.328,162.841c56.833,0.417,239.677-0.984,257.059-0.656C284,143,268,20.772,151.366,20.772
			c-119.946,0-131.943,122.709-133.027,140.1c-2.816,45.173,8.681,150.77,128.532,158.969
			c69.21,4.735,133.515-40.179,133.515-40.179"/>
	</g>
</g>
<g id="KEY" style="display:none;">
</g>
</svg>
