<?xml version="1.0" encoding="iso-8859-1"?>
<!-- Generator: Adobe Illustrator 17.0.0, SVG Export Plug-In . SVG Version: 6.00 Build 0)  -->
<!DOCTYPE svg PUBLIC "-//W3C//DTD SVG 1.1//EN" "http://www.w3.org/Graphics/SVG/1.1/DTD/svg11.dtd">
<svg version="1.1" xmlns="http://www.w3.org/2000/svg" xmlns:xlink="http://www.w3.org/1999/xlink" x="0px" y="0px" width="322px"
	 height="414px" viewBox="0 0 322 414" style="enable-background:new 0 0 322 414;" xml:space="preserve">
<g id="TEMPLATE_FORM">
</g>
<g id="font" style="display:none;">
	<path style="display:inline;stroke:#000000;stroke-width:9;stroke-linecap:round;stroke-linejoin:round;stroke-miterlimit:10;" d="
		M308.094-13.246l2.453,123.169h-20.854l-6.133-99.674H94.036V163.32h111.016v-53.397h19.627v130.288h-19.627v-53.397H94.036
		v177.277h195.658l3.68-100.386h20.241v123.881H17.98v-23.495h53.361V10.249H17.98v-23.495H308.094z"/>
</g>
<g id="vectorized-fonts">
	<g id="uppercase_2_">
		<g>
			
				<line style="fill:none;stroke:#0000FF;stroke-width:28.8;stroke-linecap:round;stroke-linejoin:round;stroke-miterlimit:10;" x1="16.334" y1="16.755" x2="298.644" y2="15.114"/>
			
				<line style="fill:none;stroke:#0000FF;stroke-width:28.8;stroke-linecap:round;stroke-linejoin:round;stroke-miterlimit:10;" x1="17.334" y1="395.137" x2="301.644" y2="395.496"/>
			
				<line style="fill:none;stroke:#0000FF;stroke-width:28.8;stroke-linecap:round;stroke-linejoin:round;stroke-miterlimit:10;" x1="82.414" y1="28.985" x2="80.797" y2="384.441"/>
			
				<line style="fill:none;stroke:#0000FF;stroke-width:28.8;stroke-linecap:round;stroke-linejoin:round;stroke-miterlimit:10;" x1="82.605" y1="194.809" x2="202.811" y2="195.063"/>
			
				<line style="fill:none;stroke:#0000FF;stroke-width:28.8;stroke-linecap:round;stroke-linejoin:round;stroke-miterlimit:10;" x1="215.356" y1="249.912" x2="215.101" y2="138.706"/>
			
				<line style="fill:none;stroke:#0000FF;stroke-width:28.8;stroke-linecap:round;stroke-linejoin:round;stroke-miterlimit:10;" x1="298.771" y1="120.961" x2="298.516" y2="15.755"/>
			
				<line style="fill:none;stroke:#0000FF;stroke-width:28.8;stroke-linecap:round;stroke-linejoin:round;stroke-miterlimit:10;" x1="301.897" y1="391.836" x2="303.643" y2="293.63"/>
		</g>
	</g>
</g>
<g id="KEY" style="display:none;">
</g>
</svg>
