<?xml version="1.0" encoding="iso-8859-1"?>
<!-- Generator: Adobe Illustrator 17.0.0, SVG Export Plug-In . SVG Version: 6.00 Build 0)  -->
<!DOCTYPE svg PUBLIC "-//W3C//DTD SVG 1.1//EN" "http://www.w3.org/Graphics/SVG/1.1/DTD/svg11.dtd">
<svg version="1.1" xmlns="http://www.w3.org/2000/svg" xmlns:xlink="http://www.w3.org/1999/xlink" x="0px" y="0px"
	 width="329.261px" height="221.26px" viewBox="0 0 329.261 221.26" style="enable-background:new 0 0 329.261 221.26;"
	 xml:space="preserve">
<g id="TEMPLATE_FORM">
</g>
<g id="Goldie-Bayshore">
	<g id="lowercase_2_" style="display:none;">
		<g style="display:inline;">
			<path style="stroke:#000000;stroke-width:9;stroke-linecap:round;stroke-linejoin:round;stroke-miterlimit:10;" d="
				M144.733,52.722c-2.957,1.147-8.872,1.147-15.773,8.034c-11.83,12.625-22.674,25.25-32.533,40.17
				c-12.816,17.216-23.66,34.431-33.518,53.943c-10.844,19.511-17.745,39.022-15.773,63.124c0.986,3.444,0.986,2.296,2.957,2.296
				c18.731,0,62.108-49.352,76.896-66.568c37.462-41.318,70.98-86.078,104.499-131.988
				c38.448-52.794,76.896-106.738,110.414-164.124c6.901-12.624,14.788-25.249,22.675-36.726
				c4.929-9.182,9.858-17.216,14.788-26.398c4.929-9.182,8.872-17.216,11.83-25.25c3.944-8.034,7.887-18.363,8.873-29.841
				c0-2.295-4.929,0-11.83,8.034c-1.972,2.296-2.957,3.443-3.943,4.591c1.971-2.296-1.972,2.296-1.972,2.296
				c-2.957,2.296-4.929,5.738-7.887,8.034c-10.844,12.625-21.689,26.398-31.547,40.17c-31.547,42.466-59.151,88.374-85.768,136.579
				c-17.745,32.136-30.561,61.977-44.363,94.113c-25.632,57.386-84.783,231.84,39.434,148.056
				c31.547-20.66,63.094-47.057,91.683-72.307c12.816-11.477,24.646-22.954,36.476-33.283c2.958-3.444,17.745-16.068,22.674-21.808
				c4.929-4.59,11.83-3.442,17.745,0c3.943,1.148,10.844,9.182,5.915,14.921c-43.377,41.318-84.783,86.079-139.004,121.658
				c-14.788,11.477-29.575,20.659-46.335,28.693c-11.83,5.738-25.632,10.33-39.434,11.478c-15.773,0-29.575-5.74-40.419-18.364
				c-8.872-10.33-13.802-25.25-13.802-39.022c-2.958-37.876,8.872-75.75,21.689-110.182c12.816-37.874,29.575-74.602,47.32-110.18
				c9.858-19.512,19.717-39.023,30.561-57.386c14.788-25.25,30.561-51.648,47.32-75.75c18.731-28.693,39.433-58.534,63.094-81.488
				c8.872-9.182,18.731-18.364,30.561-22.955c11.83-3.443,27.604-1.148,35.49,11.478c8.873,12.625,3.944,30.989-0.986,43.613
				c-6.901,19.512-16.759,37.875-26.617,55.09C349.788-95.334,298.524-19.585,245.289,52.722
				c-37.462,51.647-76.896,103.295-121.259,145.76c-18.731,18.363-41.405,41.318-66.051,44.761
				c-11.83,1.148-25.632-3.443-32.533-13.772c-8.872-14.92-7.887-33.284-2.957-49.352c6.901-21.807,16.759-41.318,28.589-59.682
				c9.858-17.216,21.689-33.284,33.519-48.204c12.816-16.068,27.604-32.136,45.349-41.318c13.802-6.886,50.278-9.182,41.405,17.216
				l-1.971,4.591c-2.958,6.887-21.689,9.181-23.66,4.591C144.733,53.869,144.733,52.722,144.733,52.722z"/>
		</g>
	</g>
	<g id="Uppercase" style="display:none;">
	</g>
	<path style="fill:none;stroke:#061EFC;stroke-width:28.8;stroke-linecap:round;stroke-linejoin:round;stroke-miterlimit:10;" d="
		M19.513,141.681c0,0,56.823,0.495,103.92-53.492c35.525-40.722,46.757-68.521,21.736-73.517S35.054,91.546,19.513,141.681
		s4.302,73.543,61.859,62.411c64.131-12.403,211.518-131.7,233.468-153.65"/>
</g>
<g id="KEY" style="display:none;">
</g>
</svg>
