<?xml version="1.0" encoding="iso-8859-1"?>
<!-- Generator: Adobe Illustrator 17.0.0, SVG Export Plug-In . SVG Version: 6.00 Build 0)  -->
<!DOCTYPE svg PUBLIC "-//W3C//DTD SVG 1.1//EN" "http://www.w3.org/Graphics/SVG/1.1/DTD/svg11.dtd">
<svg version="1.1" id="vectorized" xmlns="http://www.w3.org/2000/svg" xmlns:xlink="http://www.w3.org/1999/xlink" x="0px" y="0px"
	 width="380.562px" height="741.092px" viewBox="0 0 380.562 741.092" style="enable-background:new 0 0 380.562 741.092;"
	 xml:space="preserve">
<g id="numbers_1_">
</g>
<path style="fill:none;stroke:#0000FF;stroke-width:28.8;stroke-linecap:round;stroke-linejoin:round;stroke-miterlimit:10;" d="
	M352.854,27.255c-11.333-9.667-44.455-13.768-76.667-12.667c-39,1.333-166.16,28.181-207,173.333
	c-6.987,24.832-104.652,446.316-21.333,521.667c30.135,27.253,72.667,15.333,97.333,9.333s195.333-77.333,219.383-106.667
	c6.469-7.89-9.296-49.416-18.717-53.333c-69.333,34.667-118.832,66.316-248,63.333c-4.017-0.093,3.418-142.829,8.569-157.121
	c18.098-50.213,155.444-67.933,209.109-57.027c26.656-24.186,13.324-77.283-5.344-96.186s-130-2-184,56.711
	c-16.108,17.513,24.08-156.585,46-214.711c7.89-20.922,111-61,160.074-20.615c18.346,15.097,35.027-82.06,25.259-103.718"/>
</svg>
