<?xml version="1.0" encoding="iso-8859-1"?>
<!-- Generator: Adobe Illustrator 17.0.0, SVG Export Plug-In . SVG Version: 6.00 Build 0)  -->
<!DOCTYPE svg PUBLIC "-//W3C//DTD SVG 1.1//EN" "http://www.w3.org/Graphics/SVG/1.1/DTD/svg11.dtd">
<svg version="1.1" id="vectorized" xmlns="http://www.w3.org/2000/svg" xmlns:xlink="http://www.w3.org/1999/xlink" x="0px" y="0px"
	 width="330.577px" height="736.292px" viewBox="0 0 330.577 736.292" style="enable-background:new 0 0 330.577 736.292;"
	 xml:space="preserve">
<g id="numbers_1_">
</g>
<path style="fill:none;stroke:#0000FF;stroke-width:28.8;stroke-linecap:round;stroke-linejoin:round;stroke-miterlimit:10;" d="
	M14.765,161.813c-2.1-43.28,5.566-72.805,8-98.348c2-20.985,17.025-28.29,28.568-31.753c117.432-35.232,247.882-6.483,255.432-1.899
	c10.335,6.275,12.177,75.359,5.333,86.667c-24.156,6.111-45.333-12-102.774,1.032c20.441,72.968,17.012,138.42,12.135,194.067
	c-7.913,90.293-21.08,197.409-35.194,337.901c-2.5,32,1.5,39-4.833,48.667c-11.482,17.526-51.109,33.9-62,16.001
	c-3.442-5.657-2.972-15.578-3.381-21.836c-2.804-42.963,6.476-87.729,9.891-130.723c3.601-45.343,6.457-90.747,9.043-136.158
	c4.853-85.217,9.46-170.624,10.554-255.988c0.048-3.761,3.119-39.971-1.441-41.629C122.098,119.812,39.431,156.479,14.765,161.813"
	/>
</svg>
