<?xml version="1.0" encoding="iso-8859-1"?>
<!-- Generator: Adobe Illustrator 17.0.0, SVG Export Plug-In . SVG Version: 6.00 Build 0)  -->
<!DOCTYPE svg PUBLIC "-//W3C//DTD SVG 1.1//EN" "http://www.w3.org/Graphics/SVG/1.1/DTD/svg11.dtd">
<svg version="1.1" xmlns="http://www.w3.org/2000/svg" xmlns:xlink="http://www.w3.org/1999/xlink" x="0px" y="0px"
	 width="290.014px" height="420px" viewBox="0 0 290.014 420" style="enable-background:new 0 0 290.014 420;" xml:space="preserve"
	>
<g id="TEMPLATE_FORM">
</g>
<g id="font" style="display:none;">
	<path style="display:inline;stroke:#000000;stroke-width:9;stroke-linecap:round;stroke-linejoin:round;stroke-miterlimit:10;" d="
		M78.837,4.402v95.402h160.696v23.495H78.837v153.782c0,56.244,2.453,70.484,16.559,88.995
		c11.041,15.662,29.441,23.495,55.202,23.495c29.441,0,69.309-12.816,122.058-39.87l3.679,24.918
		c-49.681,26.342-92.001,39.87-124.509,39.87c-34.348,0-63.789-14.951-80.35-40.581c-13.492-20.647-15.331-31.326-15.331-95.402
		V123.299H13.208V99.804h42.935V4.402H78.837z"/>
</g>
<g id="vectorized-fonts">
	<g>
		<path style="fill:none;stroke:#0000FF;stroke-width:28.8;stroke-linecap:round;stroke-linejoin:round;stroke-miterlimit:10;" d="
			M267.751,364.311C216.898,394.145,124.585,427,83.889,371.57c-13.77-18.756-16.042-44.227-16.042-44.227l0.007-314.502"/>
		
			<line style="fill:none;stroke:#0000FF;stroke-width:28.8;stroke-linecap:round;stroke-linejoin:round;stroke-miterlimit:10;" x1="22.859" y1="110.801" x2="229.311" y2="110.547"/>
	</g>
</g>
<g id="KEY" style="display:none;">
</g>
</svg>
