<?xml version="1.0" encoding="iso-8859-1"?>
<!-- Generator: Adobe Illustrator 17.0.0, SVG Export Plug-In . SVG Version: 6.00 Build 0)  -->
<!DOCTYPE svg PUBLIC "-//W3C//DTD SVG 1.1//EN" "http://www.w3.org/Graphics/SVG/1.1/DTD/svg11.dtd">
<svg version="1.1" id="vectorized" xmlns="http://www.w3.org/2000/svg" xmlns:xlink="http://www.w3.org/1999/xlink" x="0px" y="0px"
	 width="173.538px" height="466.333px" viewBox="0 0 173.538 466.333" style="enable-background:new 0 0 173.538 466.333;"
	 xml:space="preserve">
<path style="fill:none;stroke:#0000FF;stroke-width:28.8;stroke-linecap:round;stroke-linejoin:round;stroke-miterlimit:10;" d="
	M43.766,177.95c0,0-2.757,193.321,3.353,215.129c6.11,21.809,30.925,44.715,46.857,51.944c24.295,11.025,65.177,5.566,65.177,5.566
	s-0.536-59.709-0.467-65.332c-11.895-0.173-40.651,0.862-45.035-13.325c-1.851-11.568-1.309-20.393-1.223-31.41
	c0.064-8.191-1.241-154.553-0.651-162.723l47.377,0.217l-0.803-66.135l-44.967-0.211l-0.597-97.229H46.644l0.207,97.229
	l-32.398-0.268l0.015,66.396L43.766,177.95"/>
</svg>
