<?xml version="1.0" encoding="iso-8859-1"?>
<!-- Generator: Adobe Illustrator 17.0.0, SVG Export Plug-In . SVG Version: 6.00 Build 0)  -->
<!DOCTYPE svg PUBLIC "-//W3C//DTD SVG 1.1//EN" "http://www.w3.org/Graphics/SVG/1.1/DTD/svg11.dtd">
<svg version="1.1" xmlns="http://www.w3.org/2000/svg" xmlns:xlink="http://www.w3.org/1999/xlink" x="0px" y="0px"
	 width="792.092px" height="534.5px" viewBox="0 0 792.092 534.5" style="enable-background:new 0 0 792.092 534.5;"
	 xml:space="preserve">
<g id="TEMPLATE_FORM">
</g>
<g id="Goldie-Bayshore">
	<g id="lowercase_2_" style="display:none;">
		<g style="display:inline;">
			<path style="stroke:#000000;stroke-width:9;stroke-linecap:round;stroke-linejoin:round;stroke-miterlimit:10;" d="
				M240.252,334.984c-5.916,9.182-12.817,14.921-21.689,24.103c-6.9,6.886-13.801,14.92-21.688,21.807
				c-15.774,13.772-22.675,21.806-39.433,35.578c-23.66,19.512-48.306,37.876-74.925,55.092
				c-35.49,21.806-58.165,34.431-97.598,41.317c-7.887,1.148-16.759,2.295-24.646,2.295c-0.985,3.444-1.972,6.887-2.957,10.33
				c-3.944,19.512-19.717,19.512-34.504,12.625c-6.901-4.591-12.816-11.477-17.745-18.363
				c-31.548-39.023-49.293-51.648-55.207-71.159c-2.957-3.443-0.986-10.329,4.929-12.625c14.788-4.591,19.717,5.738,28.589,16.068
				c12.817,14.92,27.604,29.84,49.293,35.58c9.858-43.614,17.745-84.932,33.518-126.25c15.774-40.17,40.42-78.044,77.882-92.965
				c8.872-2.295,20.702,2.295,24.646,11.477c4.929,10.33-9.858,14.92-29.575,28.693c-2.957,2.295-21.689,20.659-35.491,52.795
				l-2.957,6.886l-5.916,14.921l-9.858,32.136c-7.887,24.102-13.802,52.795-18.731,73.454c17.746,0,36.477-8.034,55.207-14.921
				c17.746-6.886,21.689-9.181,25.632-11.476c20.702-12.626,26.618-17.216,44.363-29.841c20.703-14.921,37.463-29.841,57.179-47.057
				l32.532-29.84c11.83-10.33,24.646-26.398,37.462-36.728c5.916-4.59,13.802-2.295,19.718,2.296
				C242.223,324.655,243.21,329.246,240.252,334.984z"/>
			<path style="stroke:#000000;stroke-width:9;stroke-linecap:round;stroke-linejoin:round;stroke-miterlimit:10;" d="
				M788.365,330.394c-20.703,21.806-48.306,41.318-70.981,60.829c-23.66,19.511-47.32,36.727-72.952,55.091
				c-35.49,25.25-70.98,49.352-109.427,67.715c-25.632,11.477-59.151,24.102-84.783,8.034c-10.844-6.887-18.73-18.363-19.717-33.284
				c-0.985-17.215,4.929-35.579,9.858-51.647c14.788-50.5,36.477-97.556,59.151-144.613c14.788-33.283,30.561-65.42,47.32-97.556
				h-18.731c-57.178,0-113.371,0-169.564,1.147c-54.222,0-108.443,1.148-162.664,1.148c-40.42,0-80.84,1.148-122.245,1.148H43.068
				h-3.944c-11.83,1.148-28.59,2.296-32.532-14.92c-0.986-3.444,1.971-6.886,3.943-9.182s5.916-2.296,8.873-2.296
				c-0.986,0-0.986,0-1.972,0c0.985,0,0.985,0,0.985,0h2.958c31.547-1.147,63.094-1.147,95.626-1.147
				c15.774,0,32.532,0,236.602-2.295h168.58c12.817,0,25.632,0,38.448-1.148c2.957-6.886,6.901-13.773,10.844-21.807
				c1.972-5.739,4.929-11.477,7.887-17.215l5.915-12.626c5.915-12.624,12.817-25.25,19.717-37.874l23.66-41.318l13.802-20.659
				l6.9-9.182c2.958-4.591,5.916-5.739,11.831-6.886c5.915,0,11.829,2.295,14.788,6.886c2.956,3.443,2.956,8.034,0.985,12.625
				c-17.746,25.25-31.547,53.943-46.335,80.34c-2.957,6.886-7.887,13.773-10.845,19.512l-5.915,13.772
				c-4.929,11.478-9.858,21.807-15.773,32.136c0,1.148-0.986,2.296-0.986,2.296c20.703,0,42.391,1.148,64.08,1.148
				c25.631,0,52.249-1.148,77.881,2.295c5.915,1.147,13.801,5.739,16.759,12.625c1.972,5.738-0.985,12.624-6.9,13.772
				c-16.76,3.444-32.533,10.33-50.278,13.773c-7.886,1.148-16.759-1.147-21.689-8.034c-1.972-2.295-2.958-4.591-2.958-8.034
				c-1.971,0-3.943,0-5.915,0h-84.783c-17.745,37.875-37.462,76.897-55.207,114.772c-20.702,47.057-42.391,94.113-57.178,144.613
				c-2.957,10.329-5.916,20.658-6.901,33.284c0,1.147,0,1.147,0,1.147c0,20.659,16.759,12.625,27.604,9.182
				c13.801-4.591,27.603-10.329,43.377-19.511c79.852-44.762,157.734-104.443,226.743-167.568
				c5.915-5.738,17.745-1.147,22.674,3.444C788.365,317.769,793.294,325.803,788.365,330.394z"/>
		</g>
	</g>
	<g id="Uppercase" style="display:none;">
	</g>
	<g>
		<path style="fill:none;stroke:#061EFC;stroke-width:28.8;stroke-linecap:round;stroke-linejoin:round;stroke-miterlimit:10;" d="
			M14.389,183.842c248.22-4.143,485.613-5.602,733.864-4.375"/>
		<path style="fill:none;stroke:#061EFC;stroke-width:28.8;stroke-linecap:round;stroke-linejoin:round;stroke-miterlimit:10;" d="
			M660.361,14.405c-57.023,105.374-252.645,435.379-205.083,498.19c35.256,46.561,258.385-136.193,322.42-191.029"/>
	</g>
</g>
<g id="KEY" style="display:none;">
</g>
</svg>
