<?xml version="1.0" encoding="iso-8859-1"?>
<!-- Generator: Adobe Illustrator 17.0.0, SVG Export Plug-In . SVG Version: 6.00 Build 0)  -->
<!DOCTYPE svg PUBLIC "-//W3C//DTD SVG 1.1//EN" "http://www.w3.org/Graphics/SVG/1.1/DTD/svg11.dtd">
<svg version="1.1" xmlns="http://www.w3.org/2000/svg" xmlns:xlink="http://www.w3.org/1999/xlink" x="0px" y="0px"
	 width="416.708px" height="373.455px" viewBox="0 0 416.708 373.455" style="enable-background:new 0 0 416.708 373.455;"
	 xml:space="preserve">
<g id="TEMPLATE_FORM">
</g>
<g id="font" style="display:none;">
	<g style="display:inline;">
		<path style="stroke:#000000;stroke-width:9;stroke-linecap:round;stroke-linejoin:round;stroke-miterlimit:10;" d="
			M-272.613,372.848c-3.836,0-7.312-1.209-10.43-3.618c-3.117-2.414-4.676-7.332-4.676-14.751c0-3.896,0.877-10.394,2.638-19.482
			c1.757-9.094,4.155-19.713,7.193-31.868c3.034-12.15,6.553-25.418,10.55-39.8c3.994-14.377,8.189-28.945,12.588-43.696
			c4.395-14.751,8.91-29.224,13.547-43.418c4.635-14.194,9.111-27.228,13.428-39.104h-0.24c3.196-8.906,6.313-17.256,9.352-25.049
			c3.035-7.793,6.073-15.212,9.111-22.266c-9.434,0.557-17.503,1.252-24.217,2.087c-6.713,0.835-11.749,1.905-15.105,3.201
			c-4.158,0-7.673-1.344-10.551-4.036c-2.877-2.688-4.315-6.166-4.315-10.437c0-3.71,2.116-6.819,6.354-9.324
			c4.232-2.505,9.669-4.544,16.305-6.123c6.631-1.574,13.984-2.783,22.059-3.618c8.07-0.835,15.945-1.435,23.617-1.809
			c8.633-16.143,16.743-28.341,24.338-36.6c7.59-8.254,14.746-12.385,21.459-12.385c1.439,0,2.998,0.096,4.676,0.278
			c1.678,0.187,3.236,0.743,4.676,1.67c1.438,0.931,2.596,2.413,3.477,4.453c0.877,2.044,1.318,4.918,1.318,8.628
			c0,4.827-1.318,8.397-3.956,10.715c-2.638,2.322-5.556,3.479-8.751,3.479h-1.439c-2.559,0-5.357,1.718-8.393,5.148
			c-3.037,3.436-6.233,8.119-9.59,14.056h6.713c14.226,0,28.852,0.234,43.879,0.695c15.023,0.466,30.051,1.161,45.077,2.088
			c15.023,0.931,29.69,2.044,43.999,3.34c14.303,1.3,27.851,2.783,40.641,4.453c14.705,1.856,28.414,4.083,41.121,6.68
			c12.708,2.601,23.697,5.522,32.969,8.767c9.27,3.249,16.545,6.775,21.82,10.576c5.274,3.806,7.912,7.841,7.912,12.107
			c0,1.113-0.281,2.461-0.84,4.035c-0.562,1.579-1.4,3.157-2.518,4.731c-1.119,1.579-2.48,2.923-4.076,4.036
			c-1.6,1.113-3.356,1.67-5.274,1.67c-1.601,0-3.278-0.461-5.036-1.392c-1.76-0.927-3.277-2.131-4.555-3.618
			c-2.398-2.783-10.873-5.797-25.416-9.046c-14.548-3.244-33.729-6.444-57.546-9.602c-23.341-3.153-49.633-5.658-78.886-7.515
			c-29.252-1.853-60.265-2.783-93.031-2.783c-3.68,0-7.275,0-10.79,0c-3.518,0-6.953,0.096-10.31,0.278
			c-4.796,10.95-9.554,22.778-14.268,35.485c-4.717,12.712-9.23,25.284-13.547,37.713c-4.315,12.433-8.234,24.17-11.748,35.207
			c-3.519,11.042-6.475,20.457-8.872,28.25c-4.638,15.772-9.194,31.546-13.667,47.314c-4.477,15.772-8.234,30.059-11.27,42.861
			l-3.597,15.308c2.397-3.34,4.755-7.006,7.073-10.994c2.315-3.987,4.395-7.976,6.234-11.968c1.836-3.987,3.315-7.884,4.436-11.689
			c1.117-3.801,1.679-7.188,1.679-10.158v-0.278c-0.161-0.183-0.239-0.37-0.239-0.557c-0.322-1.113-0.6-2.457-0.84-4.036
			c-0.24-1.574-0.359-2.826-0.359-3.757c0-1.296,0.198-2.827,0.6-4.593c0.396-1.761,1.116-3.383,2.158-4.87
			c1.037-1.483,2.355-2.735,3.955-3.758c1.597-1.018,3.598-1.53,5.994-1.53c2.717,0,4.994,0.883,6.834,2.644
			c1.836,1.766,3.274,3.854,4.316,6.263c1.037,2.413,1.798,4.918,2.277,7.515c0.48,2.601,0.72,4.827,0.72,6.68
			c0,5.753-1.12,11.924-3.356,18.508c-2.24,6.589-5.118,13.081-8.633,19.482c-3.518,6.401-7.516,12.568-11.988,18.509
			c-4.477,5.936-8.871,11.176-13.188,15.725c-4.316,4.545-8.393,8.163-12.229,10.854
			C-267.098,371.5-270.215,372.848-272.613,372.848z"/>
	</g>
</g>
<g id="vectorized-fonts">
	<g>
		<path style="fill:none;stroke:#0000FF;stroke-width:28.8;stroke-linecap:round;stroke-linejoin:round;stroke-miterlimit:10;" d="
			M134.5,14.408c-66.295,93.771-129.285,323.282-119,339c17.667,27,66-49.5,83.333-91.082"/>
		<path style="fill:none;stroke:#0000FF;stroke-width:28.8;stroke-linecap:round;stroke-linejoin:round;stroke-miterlimit:10;" d="
			M33.5,81.408c101-16,237-8,368.787,18.566"/>
	</g>
</g>
<g id="KEY" style="display:none;">
</g>
</svg>
