<svg id="Layer_1" data-name="Layer 1" xmlns="http://www.w3.org/2000/svg" viewBox="0 0 300 450"><title>Tempo_Web_SVG_2</title><path d="M87.22,215.69H212.78a31.63,31.63,0,0,0,31.63-31.62V58.5a31.63,31.63,0,0,0-31.63-31.63H87.22A31.63,31.63,0,0,0,55.59,58.5V184.07A31.63,31.63,0,0,0,87.22,215.69Zm51.25-111.91a11.53,11.53,0,1,1,23.06,0v35a11.53,11.53,0,1,1-23.06,0Z"/><path d="M218.47,222.93H81.53A31.63,31.63,0,0,0,49.9,254.56V391.5a31.63,31.63,0,0,0,31.63,31.63H218.47A31.63,31.63,0,0,0,250.1,391.5V254.56A31.63,31.63,0,0,0,218.47,222.93ZM162.23,342.28a11.54,11.54,0,0,1-11.54,11.53h-1.38a11.54,11.54,0,0,1-11.54-11.53v-38.5a11.54,11.54,0,0,1,11.54-11.53h1.38a11.54,11.54,0,0,1,11.54,11.53Z"/></svg>