<svg id="Layer_1" data-name="Layer 1" xmlns="http://www.w3.org/2000/svg" viewBox="0 0 300 300"><title>Tempo_Web_SVG_2</title><path d="M253.71,94.61c-.59-2.08-.87-4.25-1.37-6.35a73.55,73.55,0,0,0-5.25-15.7c-4.17-8.48-9.28-16.34-16.32-22.72a151.77,151.77,0,0,0-17.59-14.26,56.38,56.38,0,0,0-21-8.59c-4.82-.92-9.6-2-14.42-2.89a71.87,71.87,0,0,0-18.69-1.2A68.11,68.11,0,0,0,142,26.65a80.75,80.75,0,0,0-20.24,9.85c-11.09,7.74-20.78,16.88-27.82,28.58a60.51,60.51,0,0,0-6.27,13.14,3.84,3.84,0,0,1-.25.67A19.69,19.69,0,0,1,88,73a21,21,0,0,1,3.77-7.86C93.36,63,95,60.86,96.5,58.63a25.28,25.28,0,0,0,4-11.94c.13-1.4.22-2.81.22-4.22A19.05,19.05,0,0,0,86.19,24,20.78,20.78,0,0,0,67.5,28.28,17,17,0,0,0,61.42,39.2c-.13.8-.23,1.61-.34,2.41v3.31c.19,1.18.33,2.37.58,3.53A26.55,26.55,0,0,0,72,64.7a20.26,20.26,0,0,1,6.69,9.53,23,23,0,0,1,1.39,8l0,59.9q0,16.22,0,32.43,0,46-.07,92a21.29,21.29,0,0,0,1,7.08,11,11,0,0,0,1.27,2.46,3,3,0,0,0,2.66,1.3c1.1,0,2.2,0,3.3.05a2.16,2.16,0,0,0,2-1.17,13,13,0,0,0,1.16-2.76,22.23,22.23,0,0,0,.69-6.34q-.08-7.33-.26-14.67c-.15-6.16-.34-12.33-.52-18.49q-.37-12.27-.76-24.54-.3-9.66-.61-19.34-.37-11.44-.76-22.88c-.09-2.55-.17-5.1-.26-7.65v-.53l.35.61A83.05,83.05,0,0,0,106,181.83,62.65,62.65,0,0,0,119.23,191,138.78,138.78,0,0,0,142,201.08a80.06,80.06,0,0,0,25.87,4,69.32,69.32,0,0,0,18.35-3A156.06,156.06,0,0,0,203,195.85c2.54-1.07,5.15-2,7.65-3.11a50.82,50.82,0,0,0,14.14-9.93,106.51,106.51,0,0,0,27-42.33A83.87,83.87,0,0,0,256,121.17,71.92,71.92,0,0,0,253.71,94.61Z"/></svg>