<svg id="Layer_1" data-name="Layer 1" xmlns="http://www.w3.org/2000/svg" viewBox="0 0 500 300"><title>Tempo_Web_SVG_2</title><path d="M479.9,233.14c-1.18.59-2.21,1.47-3.39,2-2.45,1.16-4.95,2.21-7.51,3.34-.76-.72-1.48-1.42-2.22-2.09a2.28,2.28,0,0,0-2.9-.38,4.93,4.93,0,0,1-1.29.62,2.93,2.93,0,0,1-1.69-.06c-1.09-.53-2-1.35-3.13-1.88-1.84-.9-3.28-2.58-5.47-2.81-.23,0-.46-.26-.64-.45a1,1,0,0,0-1.42-.28c-.53.31-.91.17-1.22-.4.26-.52,1.05-1,.34-1.73-.47-.5-.9-1-1.34-1.51l-1.1.55c-.55-.38-.55-.74-.18-1.13.52-.55.36-1-.11-1.53-.25-.27-.48-.57-.77-.9-.61.16-1.36.58-1.59-.51.82-1.37.81-1.4-.95-2.86l-1.33.57c0-.6-.21-1.12,0-1.46.52-1,0-1.58-.68-2.13-.7.13-1.52.87-1.78-.4l.78-1a12.08,12.08,0,0,0-1.25-1.12c-.31-.21-.94-.2-1-.45s.07-.83.14-1.33c-.26-.14-.51-.4-.79-.44-1.64-.22-2.59,1.3-4,1.75a28,28,0,0,0-7.43-6.58c-2.43-1.62-4.94-3.13-7.44-4.64a72.78,72.78,0,0,0-13-6c-2.9-1-5.81-2.07-8.75-3s-6.08-1.91-9.16-2.76c-2.76-.77-5.56-1.41-8.35-2.09-3.77-.92-7.55-1.81-11.32-2.73-3-.74-6-1.36-9-2.31-3.43-1.12-6.78-2.52-10.15-3.84-1.42-.56-2.81-1.21-4-1.73.65-3.85,1.44-7.49,1.87-11.18.59-5.07,1-10.17,1.33-15.27.3-4.29.45-8.6.61-12.9.15-4,.2-8.09.32-12.13a97.35,97.35,0,0,0-.61-14.18,92.06,92.06,0,0,0-3.12-15.3,81.28,81.28,0,0,0-6.73-16.18,77.67,77.67,0,0,0-10.16-14.49c-2.49-2.77-5.11-5.44-7.86-8-2.39-2.19-5-4.12-7.59-6.1a40.52,40.52,0,0,0-7.15-4.18,89.55,89.55,0,0,0-12-4.71c-3.75-1.19-7.59-2.06-11.4-3.08a127.57,127.57,0,0,0-16-3,155.56,155.56,0,0,0-17.51-1.43,139.07,139.07,0,0,0-17.08.41c-3.22.32-6.44.71-9.64,1.24a85.93,85.93,0,0,0-8.58,1.79c-3.7,1-7.35,2.16-11,3.39a100.68,100.68,0,0,0-16.16,7.21c-4,2.21-7.95,4.53-11.9,6.85-2.06,1.21-4.13,2.43-6.09,3.81a45.71,45.71,0,0,0-7.46,6.72,74.38,74.38,0,0,0-6.7,8.53c-1.61,2.38-3.07,4.86-4.58,7.3a47.92,47.92,0,0,0-4.08,8.13c-1.08,2.83-2.22,5.64-3.36,8.46-2,4.83-3.95,9.65-5.93,14.48-1.68,4.09-3.31,8.2-5.05,12.26q-2.85,6.69-5.89,13.28a65.19,65.19,0,0,1-3.3,6.38c-1.6,2.64-3.36,5.17-5.1,7.72-1.08,1.59-2.2,3.14-3.36,4.67q-3.26,4.35-6.59,8.64c-2.09,2.69-4.19,5.38-6.36,8s-4.5,5.38-6.83,8c-1.79,2-3.6,4.07-5.58,5.91-3.52,3.26-7.14,6.4-10.76,9.53-3.27,2.83-6.59,5.58-9.9,8.34-2.09,1.74-4.21,3.44-6.33,5.14-3.24,2.6-6.44,5.25-9.74,7.76-2.92,2.23-6,4.23-8.92,6.47-4.23,3.24-8.37,6.59-12.53,9.91-1.42,1.13-2.8,2.29-4.2,3.45L17.55,248l2.77,3.85c.75-.57,1.35-1,1.92-1.46,2.42-2,4.82-4,7.26-6,4.12-3.37,8.24-6.75,12.39-10.08q4.92-3.95,9.92-7.8c2.95-2.28,6-4.46,8.91-6.76,3.35-2.63,6.65-5.32,10-8,2.44-2,4.92-3.93,7.21-6.07,3.4-3.15,6.67-6.42,10-9.7,4.13-4.14,8.28-8.28,12.31-12.53a181,181,0,0,0,12.27-14.11c1.79-2.31,3.52-4.68,5.16-7.1s3.27-5,4.81-7.54c2-3.32,4-6.66,5.86-10.05,1.37-2.47,2.6-5,3.82-7.55,1.65-3.46,3.25-6.94,4.83-10.43.89-2,1.69-4,2.52-6,1.3-3.14,2.61-6.28,3.89-9.43.9-2.22,1.74-4.46,2.64-6.68,1.29-3.21,2.58-6.42,3.93-9.6s2.56-6.21,4.08-9.2a60.19,60.19,0,0,1,6.74-10.63,38.07,38.07,0,0,1,6-6.17c2.31-1.8,4.6-3.62,6.94-5.38a69,69,0,0,1,5.73-4.06,103.43,103.43,0,0,1,15.48-7.9,145.26,145.26,0,0,1,19.18-6,132.11,132.11,0,0,1,15.19-2.9,98.57,98.57,0,0,1,14.66-.81c4.31.1,8.62.32,12.93.57,3.18.19,6.37.42,9.54.82,2.9.37,5.78.92,8.64,1.51,3.06.64,6.11,1.37,9.15,2.15s5.95,1.62,8.92,2.46c2,.56,4,1.11,6,1.78a48.28,48.28,0,0,1,9.52,4.46,58.58,58.58,0,0,1,8.74,6.41,66.47,66.47,0,0,1,4.89,4.6,73.75,73.75,0,0,1,6.29,7.41,79.91,79.91,0,0,1,7.95,15.09c2.44,5.84,5,11.64,6.27,17.89.78,3.9,1.31,7.86,1.79,11.81.39,3.28.53,6.58.79,9.87a80.8,80.8,0,0,1,.11,11.95c-.25,3.61-.52,7.22-.85,10.83-.29,3.23-.51,6.48-1.05,9.67-.7,4.14-1.67,8.24-2.56,12.35-.28,1.33-.67,2.64-1,4.1l-2-.93c-4.1-1.91-8.13-4-12.32-5.69-4.63-1.85-9.41-3.37-14.15-4.95a47.9,47.9,0,0,0-15.53-2.48,122.49,122.49,0,0,0-21.29,1.91,92.88,92.88,0,0,0-13.63,3.36,145.3,145.3,0,0,0-13.59,5.52,117,117,0,0,0-15.64,9,78.13,78.13,0,0,0-6.4,4.77,34.23,34.23,0,0,0-4.85,4.62,35.14,35.14,0,0,0-6,12.25c-.63,2.09-1.22,4.19-1.66,6.32a50.29,50.29,0,0,0-.89,6,30.91,30.91,0,0,0,.84,9.67,38.73,38.73,0,0,0,6.62,14,52.53,52.53,0,0,0,6.52,7.23,51.53,51.53,0,0,0,10.66,7.81,49.32,49.32,0,0,0,18.77,5.33c4.08.41,8.19.59,12.26,1.08a31.55,31.55,0,0,0,11.7-.93,68.63,68.63,0,0,0,17.31-7.29,106.7,106.7,0,0,0,13.52-9.07c2.53-2,5.09-4,7.49-6.23a45.1,45.1,0,0,0,7.77-9.1c2.21-3.44,4.54-6.82,6.54-10.38,1.85-3.29,3.34-6.78,5-10.18a53.43,53.43,0,0,0,3.73-11.34c.86-3.73,1.52-7.51,2.27-11.26.18-.86.36-1.72.56-2.66.59.16,1,.26,1.5.42,2.41.82,4.81,1.7,7.24,2.49q4.25,1.4,8.53,2.65c3.06.9,6.12,1.79,9.22,2.57,3.5.88,7,1.6,10.56,2.45,2.94.72,5.88,1.47,8.78,2.32,3.83,1.11,7.68,2.2,11.43,3.55,4.45,1.6,8.8,3.44,13.19,5.21a20.36,20.36,0,0,1,3.31,1.54c2.57,1.61,5.15,3.21,7.58,5,2,1.52,3.83,3.32,5.82,5.07l-3.77,3.33c.34.53.63,1,.88,1.33.6,0,1.17-.62,1.48.23l-.72,1.2,1,1.21,1.3-.68a3.6,3.6,0,0,1,.23,1.23c-.25,1.26,0,1.64,1.23,1.74.88.07,1.17.6.73,1.35-.12.21-.27.42-.41.62l1.11,1.64,1-.33c1.26.83-.15,1.21-.11,1.8l1.22,1.62,1.23-.35c.14.28.43.57.37.72a16.64,16.64,0,0,1-.95,1.69l1,1.27,1.19-.36.37.73c-.37.63-1,1.2-.92,1.64.31,1.69.26,3.47,1.2,5,.6,1,.92,2.16,1.49,3.17,1.36,2.41,2.71,4.83,4.23,7.14a5.71,5.71,0,0,0,3.78,2.71,11.34,11.34,0,0,0,7.3-1c3.66-1.84,7.2-3.91,10.77-5.93A4,4,0,0,0,469,247.5a1.73,1.73,0,0,1,.49-1c1.52-1.17,1.44-2.82,1.49-4.46a8.8,8.8,0,0,1,.08-.89c3.93-1.73,7.22-4.65,11.32-5.88C482.63,233,481.71,232.22,479.9,233.14Zm-142-42.33c-1.14,4-2.35,7.95-3.71,11.86-1.05,3-2.3,6-3.59,8.88-1.15,2.58-2.38,5.13-3.75,7.59s-3,5-4.59,7.47c-.74,1.17-1.56,2.29-2.37,3.41a62.27,62.27,0,0,1-14.22,14.12,75.1,75.1,0,0,1-19.3,10.09,85.36,85.36,0,0,1-15.29,3.84,40.11,40.11,0,0,1-14.77-.32,87.17,87.17,0,0,1-11.48-3.32,63.46,63.46,0,0,1-14.26-7.38,35.6,35.6,0,0,1-10.7-11.25,24.73,24.73,0,0,1-3.06-10.48,51,51,0,0,1,.15-10.84,37.56,37.56,0,0,1,5.72-16.1,41.88,41.88,0,0,1,8.31-8.77A87.5,87.5,0,0,1,254.5,176a128,128,0,0,1,21.23-6.37c3.79-.8,7.65-1.3,11.51-1.72,3.21-.35,6.46-.48,9.7-.51a27.92,27.92,0,0,1,8,1.26c4,1.19,8.06,2.41,12,3.85,4.09,1.49,8.09,3.24,12.11,4.93,3,1.28,6,2.65,9.06,4,.57.26,1.14.54,1.84.88C339.27,185.14,338.69,188,337.89,190.81Z"/></svg>