<svg id="Layer_1" data-name="Layer 1" xmlns="http://www.w3.org/2000/svg" viewBox="0 0 300 300"><title>Tempo_Web_SVG_2</title><path d="M233.41,166.27c1.84-2.22,3.32-5.87,3.32-11.84,0-15.87-10.4-15.29-10.4-15.29l-.93.06c.53-25,1.28-85.64,1.28-85.64s2-22-11.37-22H211c-13.35,0-11.37,22-11.37,22s.77,63,1.31,87L141,144a278.33,278.33,0,0,0-36.65-5.59c9.65-16.8,28.84-39.6,28.45-68.7-.53-39.14-42.44-38.08-42.44-38.08h-7S41.46,30.55,40.93,69.69c-.41,30.43,20.61,54,29.72,71-7.08,2.44-11.74,6.72-11.74,13.77,0,8.23,6.36,12.69,15.52,14.84-.51,28-1.11,77.17-1.11,77.17s-2,21.95,11.37,21.95h4.36c13.35,0,11.37-21.95,11.37-21.95s-.58-47.4-1.08-75.65A269.65,269.65,0,0,0,141,164.87l50.9,2.89c-10.15,16.08-25.07,36.87-24.72,62.55.53,39.14,42.44,38.08,42.44,38.08h7s41.91,1.06,42.44-38.08C259.42,203.82,243.55,182.54,233.41,166.27Z"/></svg>