<svg id="Layer_1" data-name="Layer 1" xmlns="http://www.w3.org/2000/svg" viewBox="0 0 300 300"><title>Tempo_Web_SVG_2</title><path d="M56.16,216.79v-.39a1.67,1.67,0,0,0,.33-.47,13.62,13.62,0,0,1,6.08-7c.53-.32,1-.66,1.58-1A9.57,9.57,0,0,0,66.47,206a15.43,15.43,0,0,1,2-2,32.86,32.86,0,0,0,3.7-3,5.81,5.81,0,0,1,1.36-.92,3.86,3.86,0,0,1,2.34-.45,6.57,6.57,0,0,1,3.28,1.09A1.8,1.8,0,0,0,81,201q3.76-1.24,7.57-2.37a4.92,4.92,0,0,1,3.87.25,3.22,3.22,0,0,0,1.57.4,21.69,21.69,0,0,1,8.14,2,10.7,10.7,0,0,1,5.78,5.33,6.27,6.27,0,0,0,2.43,2.52c1.56,1,3.07,2.14,4.56,3.28a13.36,13.36,0,0,1,4,5.48c.12.29.26.57.35.79,1.18.07,2.28.06,3.36.21,3.08.41,6.14.91,9.2,1.35a7.14,7.14,0,0,0,3.91-.38,9.75,9.75,0,0,1,3.49-.75c1.9-.09,3.8-.19,5.71-.26,3.1-.12,6.2-.24,9.3-.3a15.84,15.84,0,0,1,5.24.84,2,2,0,0,0,1.4,0q8.37-2.76,16.75-5.49c.39-.13.77-.32,1.15-.49.77-.34,1.51-.75,2.3-1,3.67-1.24,7.36-2.42,11-3.66,2-.68,4-1.43,5.9-2.18a10.48,10.48,0,0,0,1.29-.7c-.08-.95-.2-1.78-.22-2.62q-.12-5-.16-10.08a1.27,1.27,0,0,0-.56-1.13c-.76-.6-1.47-1.26-2.21-1.89a6.29,6.29,0,0,1-2.12-3.92c-.08-.49-.19-1-.3-1.57a13.32,13.32,0,0,0-1.53.84,4,4,0,0,1-3.23.65,15.15,15.15,0,0,1-2.84-.91c-1.13-.46-2.2-1.1-3.33-1.55a18.89,18.89,0,0,1-5.23-2.91,2.17,2.17,0,0,0-2.58-.27,13.92,13.92,0,0,1-3.43,1.29c-1.69.31-3.35.72-5,1a66.63,66.63,0,0,1-8.93,1.11,37.74,37.74,0,0,0-10.21,1.58,16.48,16.48,0,0,1-6.51.74,41,41,0,0,1-12.57-3.41c-1.71-.75-3.42-1.51-5.12-2.3-2.41-1.1-4.83-2.18-7.18-3.38a82.09,82.09,0,0,0-14.39-6.2,34.15,34.15,0,0,0-5.74-1.33,18.23,18.23,0,0,1-5-1.29,10.18,10.18,0,0,1-1.88-1,4.09,4.09,0,0,1-1.65-4.57,30.49,30.49,0,0,0,.84-3.88,19.75,19.75,0,0,1,4-10.32,13.48,13.48,0,0,0,.8-1.23c-.69-.87-1.33-1.64-2-2.43-3.92-5-6.59-10.63-9-16.43a18.47,18.47,0,0,1-1.35-6c-.16-2.83-.21-5.68-.22-8.52a42.62,42.62,0,0,1,1.11-9.61c.52-2.23,1.27-4.4,1.8-6.63a114.44,114.44,0,0,1,3.63-12c.88-2.43,1.72-4.87,2.62-7.29a6.53,6.53,0,0,1,2.54-3.23,10.44,10.44,0,0,1,1.62-.86c4.51-2,9.07-3.92,13.53-6,5.22-2.46,10-5.74,14.77-8.88a9.61,9.61,0,0,1,3.36-1.66,2,2,0,0,0,.81-.5c.86-.73,1.7-1.48,2.56-2.22a7.41,7.41,0,0,1,3.77-1.87,1.28,1.28,0,0,0,.65-.34,26.4,26.4,0,0,1,4.49-3.38c2.35-1.49,4.88-2.63,7.34-3.91,6.65-3.47,13.25-7,19.59-11a23.47,23.47,0,0,1,5.54-2.75c.67-.2,1.36-.35,2-.52h.58c.05,0,.1.1.16.1a7,7,0,0,1,4.28,2.28A33.68,33.68,0,0,1,180,36.42c1.52,1.92,3,3.9,4.47,5.85l.62.79a18,18,0,0,1,2.13-.44,5.64,5.64,0,0,1,4.26,1.24,5.78,5.78,0,0,0,3.76,1.29c2.2,0,4.4.13,6.59.3a14.49,14.49,0,0,1,2.73.6A2,2,0,0,1,206,47.67a15.22,15.22,0,0,1,.31,1.61,9.62,9.62,0,0,0,1.43,4.47c.82,1.32,1.56,2.68,2.38,4a3.74,3.74,0,0,1-.07,4.11,17.39,17.39,0,0,1-4.41,5.1c-.48.38-1,.78-1.41,1.19s-.53.63-.2,1.25a14.33,14.33,0,0,1,1.06,2.06,19.31,19.31,0,0,1,.93,7.07,5,5,0,0,1-1.55,3.66c-1.26,1.17-2.56,2.28-3.85,3.41a3,3,0,0,1-2.43.72,19.89,19.89,0,0,0-3.92-.39c-.87.1-1.75.07-2.59.25a17.1,17.1,0,0,1-5.09.48,26.3,26.3,0,0,0-2.81-.06c-2.83,0-3.06-.08-4.47-2.51a1,1,0,0,0-1-.56c-1.38.07-2.77.12-4.16.14a61.27,61.27,0,0,1-8.13-.3c-2-.24-4.07-.22-6.09-.44a30.18,30.18,0,0,0-5,0,53.63,53.63,0,0,1-5.52.15c-2-.08-3.92-.4-5.88-.6-1.28-.12-2.56-.21-3.81-.32-.94,1.38-1.82,2.7-2.73,4a7.85,7.85,0,0,1-5.32,3.4,26.71,26.71,0,0,1-3.56.38,2.38,2.38,0,0,0-2,1.08,7,7,0,0,0-.49.72,8.72,8.72,0,0,1-3.5,3.39,3.69,3.69,0,0,1-2.68.54c-.41-.07-.84-.08-1.25-.11a.82.82,0,0,0-.8.44,26.18,26.18,0,0,1-4.39,5,2.58,2.58,0,0,0-.61,1,6.87,6.87,0,0,0-.31,4.83,3.48,3.48,0,0,1,.18.85,1.49,1.49,0,0,0,.85,1.3,11.3,11.3,0,0,1,4.5,4.69c.29.54.66,1,.91,1.6a5.18,5.18,0,0,1,.56,1.72c.09,1.25,0,2.5,0,3.83l2.54.4c2.53.37,5.07.65,7.58,1.12,4.5.83,9,1.82,13.49,2.66a29.61,29.61,0,0,0,8.86.59,12.58,12.58,0,0,1,1.84.06,2.09,2.09,0,0,1,1.73.93,14.69,14.69,0,0,1,1.25,2.17,1.57,1.57,0,0,0,.92.9c1.83.73,3.66,1.45,5.45,2.28a49.84,49.84,0,0,0,7.93,2.81,39.27,39.27,0,0,0,8.45,1.6,2.38,2.38,0,0,1,.85.17,1.88,1.88,0,0,0,1.4,0A29.17,29.17,0,0,1,192,134.85a18.55,18.55,0,0,0,6.39-.78,1.72,1.72,0,0,1,.28-.08,2.87,2.87,0,0,0,1.68-.88c2.16-2.05,4.31-4.11,6.5-6.11,1.12-1,2.34-1.93,3.51-2.91a2,2,0,0,1,2.41-.32,6.6,6.6,0,0,0,.92.3,108,108,0,0,1,12,4.23,5.51,5.51,0,0,0,.93.24,19.2,19.2,0,0,1,3,.91l3.49,1.66a41.87,41.87,0,0,1,8.38,5.2,13.44,13.44,0,0,1,3.91,4.75c.63,1.31,1.33,2.58,2,3.9,1.43,3,2.9,6.06,4.24,9.13a44.61,44.61,0,0,1,3.81,19c0,1.09,0,2.19.07,3.29.15,3.88.35,7.75.45,11.63.23,9.54,0,19.07-.39,28.6a8.91,8.91,0,0,1-2.42,6,29.6,29.6,0,0,1-4.82,4.33c-1.47,1-2.93,2-4.41,3s-3,2-4.5,3c-2,1.36-3.9,2.77-5.89,4.1-2.55,1.7-5.14,3.36-7.71,5l-2.35,1.54c-1.23.83-2.5,1.6-3.67,2.5-1.41,1.09-2.69,2.33-4.1,3.4-1.16.88-2.42,1.61-3.65,2.39a20.53,20.53,0,0,1-7.17,2.56c-2.21.43-4.46.73-6.66,1.24a6.92,6.92,0,0,1-5.06-.56,1.43,1.43,0,0,0-1.29-.05,18.89,18.89,0,0,1-2.76.89,9.09,9.09,0,0,0-3,1.13,1.23,1.23,0,0,1-1.45.07,1,1,0,0,0-1.08,0,4.39,4.39,0,0,1-1.55.46c-3.46.13-6.91.2-10.37.3a9.79,9.79,0,0,0-1.63.17c-1.84.38-3.66.8-5.49,1.18a103.09,103.09,0,0,1-12.48,1.7,51.23,51.23,0,0,1-5.81.14,59.67,59.67,0,0,1-13.75-2.19c-4.79-1.33-9.51-2.9-14.26-4.36L114,253.25a6.36,6.36,0,0,1-2.84,2.62c-4.25,2.46-8.72,2.56-13.3,1.2a7.08,7.08,0,0,1-4.19-3.27,8.45,8.45,0,0,0-2.9-2.92c-1.79-1.16-3.61-2.27-5.41-3.41-.6-.38-1.19-.78-1.76-1.2a1.84,1.84,0,0,1-.76-1.77c.08-.92,0-1.86,0-2.65-1.13-.83-2.16-1.6-3.21-2.35a1.81,1.81,0,0,0-.84-.42,4.57,4.57,0,0,1-2.47-1,11.07,11.07,0,0,1-3.09-3.44,7,7,0,0,0-1.83-2.11c-.89-.68-1.81-1.35-2.73-2a6.64,6.64,0,0,1-2.82-3.91,6.78,6.78,0,0,0-1.71-3.11,12.39,12.39,0,0,0-3.49-2.74c-.64-.31-1.25-.68-1.88-1a4.64,4.64,0,0,1-2.12-2.19A4.44,4.44,0,0,0,56.16,216.79Z"/></svg>