<svg id="Layer_1" data-name="Layer 1" xmlns="http://www.w3.org/2000/svg" viewBox="0 0 300 300"><title>Tempo_Web_SVG_2</title><g id="wZGJdI"><path d="M106,288.4c-1.42-.27-2.85-.51-4.26-.83-11.13-2.51-21.28-7.08-30-14.58a53.38,53.38,0,0,1-17.16-28.28,70,70,0,0,1-2-16.93q0-62.39,0-124.79a57.21,57.21,0,0,1,1.16-9.81,101.15,101.15,0,0,1,12.26-33.3A91,91,0,0,1,106.2,23.15a115.64,115.64,0,0,1,27.39-9A148.73,148.73,0,0,1,148.91,12h.39c.55,7.57,1.09,15.1,1.65,22.7-1.13.25-2.26.47-3.38.74-17.25,4.17-33.44,10.79-47.94,21.17a81.22,81.22,0,0,0-21,21.48,66.65,66.65,0,0,0-10.08,25.68,75,75,0,0,0-1,12.78q0,29.53,0,59.07,0,21.3.12,42.61a10.77,10.77,0,0,0,.57,2.76A80.88,80.88,0,0,0,81,247.66a48.15,48.15,0,0,0,14,12.93,38.19,38.19,0,0,0,19.67,5.5c14.8,0,29.59-.07,44.39-.16a77.35,77.35,0,0,0,8-.4,56.26,56.26,0,0,0,15.12-4.08,73.82,73.82,0,0,0,29-21.79A101,101,0,0,0,227.65,211a49.5,49.5,0,0,0,2-8.21A86.83,86.83,0,0,0,231.11,183c-.61-16.08-5.28-30.74-15.31-43.51a70.83,70.83,0,0,0-7.13-7.76,3.77,3.77,0,0,0-.52-.37l.09-.17c1.31-.32,2.64-.59,3.93-1a4.16,4.16,0,0,1,3.24.38,12,12,0,0,1,4.06,3.61,36.86,36.86,0,0,1,2.33,3.47,140.1,140.1,0,0,0,11.68,16.61,20.06,20.06,0,0,0,8.14,6.06,1.21,1.21,0,0,1,.56.67A80.31,80.31,0,0,1,246,173.67a62,62,0,0,1,1.52,16.79q-.43,6.93-1.26,13.84a139.08,139.08,0,0,1-4.49,21.83,108.39,108.39,0,0,1-12.85,29.13,72,72,0,0,1-21.49,21.93,68.54,68.54,0,0,1-24,9.57,84.44,84.44,0,0,1-13.27,1.55,5.62,5.62,0,0,0-.57.09Z"/></g></svg>