<svg id="Layer_1" data-name="Layer 1" xmlns="http://www.w3.org/2000/svg" viewBox="0 0 300 300"><title>Tempo_Web_SVG_2</title><path d="M237.52,36.22c-2.58-10.62-9.2-17.23-20-19.47-1.42-.29-2.89-.4-4.34-.6h-3c-1.61.25-3.24.38-4.82.77a27.14,27.14,0,0,0-14,8.9c-1.46,1.65-2.66,3.52-4,5.27a1.35,1.35,0,0,1-.83.5c-6.92.46-13.84.89-20.77,1.33l-24.9,1.6L121.3,35.74,99,37.17c-1.11.07-2.36.49-3.27.1s-1.34-1.58-2-2.43a22.48,22.48,0,0,0-13.61-8.21,26.27,26.27,0,0,0-11.67-.12,18.45,18.45,0,0,0-11.77,9,35.75,35.75,0,0,0-4.47,13.68c-.2,1.41-.34,2.84-.51,4.26v4.65c0,.15.11.31.15.46a33.87,33.87,0,0,0,1.48,5.15C57,71.57,63.12,76.63,71.12,79.56l1.13.38,0,.12-6.89-.87q.49,101.77,1,203.44l6.82-.92q9.43-1.31,18.88-2.59a1.11,1.11,0,0,0,1.11-.94,493.56,493.56,0,0,0,10.34-48.58c1.57-9.69,2.93-19.4,3.67-29.18.56-7.33,1.07-14.68,1.25-22,.16-6.74-.08-13.49-.3-20.23-.18-5.58-.59-11.15-.91-16.73-.11-2-.25-4-.38-6l35.38-3.61c-.14-.93-.24-1.74-.37-2.55a51.26,51.26,0,0,0-3.75-13,1,1,0,0,0-1.11-.72c-8.55,0-17.09-.08-25.64-.12-2.53,0-5.07,0-7.58,0a2.36,2.36,0,0,1-.13-.32c0-.18-.09-.37-.13-.56A113.26,113.26,0,0,0,91.62,83.18a1.33,1.33,0,0,0-1.13-.79C86.84,82,83.2,81.48,79.56,81c-.59-.08-1.18-.18-1.76-.28a17.86,17.86,0,0,1,2.08-.37c.71-.12,1.42-.26,2.11-.44,6.07-1.61,11.08-5,15.54-9.3a2.11,2.11,0,0,1,1.19-.57q8.57-.63,17.13-1.2l18.36-1.28,17.71-1.21,20.51-1.43c6.12-.43,12.25-.84,18.37-1.29a2.06,2.06,0,0,1,1.63.53c7.92,6.66,16.75,9.59,27,6.39,8.28-2.6,14.38-7.66,17.4-16A31.23,31.23,0,0,0,237.52,36.22Z"/></svg>