<svg id="Layer_1" data-name="Layer 1" xmlns="http://www.w3.org/2000/svg" viewBox="0 0 300 300"><title>Tempo_Web_SVG_2</title><path d="M221.56,180.64c-.28-2.66-.53-5.34-1-8-.54-3.08-1.31-6.11-2-9.16a3.12,3.12,0,0,1-.06-.75c.07-1.59.18-3.18.24-4.78.22-6.07.38-12.14.09-18.2a76.35,76.35,0,0,0-.79-8.54c-1.19-7.35-2.51-14.68-3.85-22-.45-2.49-1.1-4.93-1.65-7.39a2.28,2.28,0,0,1,0-.52V91.92a1.46,1.46,0,0,0-1.59-1.57c-.82,0-1.63,0-2.45,0,0-.11,0-.25.07-.38,2.42-10.49,4.86-21,7.23-31.47,1.19-5.28,2.31-10.58,3.05-16,.11-.84.14-1.69.21-2.56l-4.23-.86c-3.22,15.41-6.26,30.81-9.92,46.18-.78-1.06-1.44-2-2.15-2.91a.59.59,0,0,1-.08-.74c1.62-3.53,3.23-7.06,4.86-10.59a.84.84,0,0,0,0-.88,4.79,4.79,0,0,0-1.9-1.67l-5.06-2.69-8.28-4.4a2.17,2.17,0,0,0-3.31,1l-3.79,7.58-.21.39c-1.13-.1-2.2-.24-3.27-.28a21.9,21.9,0,0,0-9.6,2A50.69,50.69,0,0,0,159.89,80a115.34,115.34,0,0,0-14.33,14.4c-2.46,2.92-4.81,6-7.22,8.91a1.06,1.06,0,0,1-.6.35c-2.1.25-4.23.34-6.3.72a75.18,75.18,0,0,0-20.56,7.11,59.23,59.23,0,0,0-22.54,20.43l-.27.37c-.34-.51-.69-.35-1-.07q-2.34,1.82-4.69,3.62a.62.62,0,0,0-.22.86c.41,1,.79,2,1.2,3a.45.45,0,0,1-.12.61c-.32.26-.59.57-.9.85a1,1,0,0,0-.25,1.21c.17.45.37.9.52,1.37a1.09,1.09,0,0,1,0,.62c-.21.71-.46,1.41-.7,2.11a59.72,59.72,0,0,0-3.39,16A83,83,0,0,0,80.13,185,53.32,53.32,0,0,0,87,202.34c2.65,4.14,5.47,8.16,8.3,12.18a59.06,59.06,0,0,0,10.44,11.66,3,3,0,0,1,.39.41,115.22,115.22,0,0,0,10.1,10.86,70.9,70.9,0,0,0,10.18,8.27,55.24,55.24,0,0,0,22.09,8.13.87.87,0,0,1,.79.58,10.23,10.23,0,0,0,6.86,6.11c.55.14,1.11.22,1.67.33h2.08a1.87,1.87,0,0,1,.32-.08,11.16,11.16,0,0,0,9.26-7.9.53.53,0,0,1,.51-.44c1.29-.22,2.58-.44,3.87-.69a37.67,37.67,0,0,0,14.66-6c5.37-3.72,10.38-7.74,14.26-13.11,4.92-6.8,9.57-13.72,12.39-21.72,1.63-4.59,3.47-9.13,4.5-13.9.71-3.33,1.18-6.72,1.67-10.09A25.38,25.38,0,0,0,221.56,180.64Zm-21-93.95L202.85,90h-4.33C199.17,88.93,199.81,87.86,200.52,86.69Zm2.51,45-.08.05-1.57-1.94a.4.4,0,0,1,0-.22v-5.77H202Q202.52,127.79,203,131.72Zm-5-13.09v4.22l-3.14-4.22Zm0,27.56a42.73,42.73,0,0,1-1,8.65,170.09,170.09,0,0,1-4.5,17.5c-.05.16-.11.32-.17.48l-.15,0c-.54-1.27-1.12-2.53-1.62-3.82a194.75,194.75,0,0,1-7.3-22.9,48.23,48.23,0,0,1-1.25-9c-.27-4.71-.41-9.44-.6-14.16,0-.13,0-.27,0-.52.37.34.65.61.93.88a73.66,73.66,0,0,1,15.4,21.6A3.19,3.19,0,0,1,198,146.19Zm-2.81-17.81c-1-.86-2-1.75-3-2.57-3.15-2.51-6.32-5-9.49-7.47-.73-.57-.74-.56-.41-1.52A40.56,40.56,0,0,1,195.21,128.38Zm-51.06-25.23c.91-1.27,1.79-2.56,2.76-3.8a92.68,92.68,0,0,1,24.34-21.86,20.85,20.85,0,0,1,7-2.94,12.4,12.4,0,0,1,4.38-.14c.14,0,.27.06.46.1l-3.72,7.55a1,1,0,0,0-1,.57q-1.49,2.48-2.95,5c-.11.19-.23.36-.37.57-.72-.41-1.4-.8-2.09-1.17a2.19,2.19,0,0,0-.75-.27,1.14,1.14,0,0,0-1.29.66c-1.21,2.53-2.45,5-3.66,7.58-.54,1.13-1.05,2.27-1.57,3.4a2.44,2.44,0,0,0,.06,2.56l-.21,0a48.62,48.62,0,0,0-18.49,2.68,1.24,1.24,0,0,1-.5.07c-.73,0-1.46,0-2.18-.08a1.4,1.4,0,0,1-.39-.1A1.63,1.63,0,0,1,144.15,103.15Zm35,6.81c.4.2.4.21.35.72-6.36-3.28-13.22-4.63-20.19-5.66h1.49a37,37,0,0,1,9.09.8,22.18,22.18,0,0,1,3.84,1.43C175.56,108.09,177.34,109.05,179.14,110Zm-4.23-7.56,1.48.55-.36.63C174.83,103.14,174.83,103.14,174.91,102.4Zm-29.25,7.1a61.55,61.55,0,0,1,9.69-.54,10.27,10.27,0,0,1,2.48.53c1.81.49,3.62,1,5.42,1.54a1,1,0,0,1,.33.16,88.16,88.16,0,0,0-22.72.27c-.09,0-.2-.08-.33-.14A10.57,10.57,0,0,1,145.66,109.5ZM85,150.31c.13.38.24.69.34,1a6.47,6.47,0,0,1,.6,2,7.67,7.67,0,0,1-.74,1.91c-.71,2.07-1.39,4.14-2,6.09C82.9,159.56,84,152.78,85,150.31Zm5.19,7.43q-1.12,5.76-2.27,11.51a49,49,0,0,0-.42,12.1c.06,1.21.13,2.42.2,3.66,0,0-.1,0-.12-.07a19.5,19.5,0,0,1-3.21-7.47,19,19,0,0,1,.25-7,62.73,62.73,0,0,1,4.67-14.12l.15-.28c.28.44.52.81.72,1.2A.66.66,0,0,1,90.18,157.74Zm3.58-26.51a44.3,44.3,0,0,1,13.07-12.62,75.67,75.67,0,0,1,18-8.86,38,38,0,0,1,9.13-1.82c.32,0,.65,0,1.14,0a3.33,3.33,0,0,1-.46.3A56.61,56.61,0,0,0,124,114.36a212.15,212.15,0,0,0-25.68,21c-1.41,1.37-2.6,3-3.89,4.46a1.2,1.2,0,0,1-.14.12c-.35-.92-.7-1.81-1-2.71a.94.94,0,0,0-.62-.65c-.6-.19-1.19-.4-1.89-.65C91.78,134.38,92.73,132.77,93.76,131.23Zm8.36,53.2c.13,1.88.25,3.7.37,5.52l-.07,0c-.48-1.64-1-3.27-1.44-5Zm-2-6.21c-.09-1-.18-2-.27-3.07,1.24.83,1.36,2.25,2,3.4a6.65,6.65,0,0,1,.34,3.84c-.15-.93-.28-1.86-.45-2.78C101.45,178.2,101.54,178.3,100.14,178.22Zm1.47-10.62c.15-.62.51-1.28-.06-1.86-.4-.4-.86-.11-1.33.07q-1.73-3.13-3.49-6.31c.21-.18.41-.36.62-.52,1.1-.85.72-1.54.25-2.39a2.88,2.88,0,0,1-.18-.49c-.07-.23-.14-.47-.23-.7-.16-.43-.34-.86-.51-1.29,0,0,0-.07,0-.08a1.68,1.68,0,0,0,1-2.11c0-.08,0-.16,0-.24a4.43,4.43,0,0,1,.39-3,34.12,34.12,0,0,1,5.07-8.85,135.22,135.22,0,0,1,9.43-11.13c1-1,2.11-2,3.19-3a33.24,33.24,0,0,1,5.25-3.29c.54-.32,1.09-.62,1.74-1-1.75,2.69-3.45,5.26-5.1,7.86a83.51,83.51,0,0,0-8.34,16.33,139,139,0,0,0-4.5,15.93,48.86,48.86,0,0,0-1.23,7.61.43.43,0,0,0,0,.07A2.66,2.66,0,0,0,101.61,167.6ZM107,178.29c.43-5,1-10,1.93-15a90.29,90.29,0,0,1,3.52-14,87.51,87.51,0,0,1,6.92-14.57c1.22-2.13,2.49-4.24,3.74-6.37.13-.21.28-.41.42-.62l.09.06-.93,2a248.67,248.67,0,0,0-10,25.07,51.84,51.84,0,0,0-1.82,8.17c-.55,3.1-1.06,6.2-1.47,9.31-.39,2.91-.63,5.84-.93,8.77a11.18,11.18,0,0,1-.26,1.66c-.22-.5-.4-1-.66-1.51A4.91,4.91,0,0,1,107,178.29ZM108.35,217c-.25-.3-.49-.61-.76-.89a139.34,139.34,0,0,1-10.83-12.93,5.53,5.53,0,0,1-.63-1.47,99.69,99.69,0,0,1-3.81-13.91,59.89,59.89,0,0,1,1.09-25.18,2.32,2.32,0,0,1,.1-.33c.39.71.72,1.34,1.06,2,.91,1.65,1.82,3.29,2.71,5a1.1,1.1,0,0,1,.08.6,5.45,5.45,0,0,0,.81,3.44,2.75,2.75,0,0,1,.37,1.33c.07,1.29.21,2.58.33,3.89l-.23.12c-.28.16-.77.1-.69.66,0,.33-.11.71.3.93.07,0,.1.2.08.29a9.76,9.76,0,0,0,.35,3,8.8,8.8,0,0,0,.3,1.33.48.48,0,0,0,.68.38c.3-.1.42,0,.51.33.33,1.35.68,2.7,1.08,4a24,24,0,0,0,1.28,3.63,5.34,5.34,0,0,1,.4,1.94,48.15,48.15,0,0,0,1.63,8.35c1.22,4.33,2.53,8.63,3.8,12.94,0,.17.09.33.14.49Zm7.19,12.16c-.23-.16-.48-.29-.69-.47-1.74-1.4-3.48-2.81-5.2-4.24a4.11,4.11,0,0,1-.62-.9l.09-.08,3.31,2.63c.7.56,1.42,1.09,2.1,1.68.41.37.76.81,1.14,1.22C115.63,229,115.58,229.08,115.54,229.14Zm13.38,3a28.74,28.74,0,0,1-6.34-7.6c-1.31-2.25-2.6-4.51-3.89-6.77-.16-.29-.28-.6-.42-.92l.16-.11,1.7-.85c.08.15.16.29.23.44a53.19,53.19,0,0,0,5.92,9.85c2.15,2.7,4.36,5.37,6.54,8.05,0,0,0,0,.06.18A26.09,26.09,0,0,1,128.92,232.18Zm41.18,7.52-.51.37c-.06-.27-.12-.5-.17-.74a1.62,1.62,0,0,0-1.13-1.39,29.67,29.67,0,0,0-3.56-.95,52.41,52.41,0,0,0-10.4-.48,15.84,15.84,0,0,0-4.47.73l-.45.17a1.09,1.09,0,0,0-.89,1.32,10.15,10.15,0,0,1,0,1.36c-.42-.16-.78-.29-1.13-.44a28,28,0,0,1-8.29-5.49,71.75,71.75,0,0,1-10.24-11.09,49.24,49.24,0,0,1-4.88-8.59c-.08-.18-.14-.35-.24-.57.59-.36,1.12-.7,1.67-1,.34-.19.51-.42.35-.81s0-.76.47-1c1.05-.47,1.16-.78.67-1.83-.41-.87-.82-1.74-1.28-2.59a8.92,8.92,0,0,0-.8-1.1,1.38,1.38,0,0,0-.79-1.48,1.7,1.7,0,0,0-.6-1.49.32.32,0,0,1-.07-.2c0-.08,0-.18,0-.24a5.72,5.72,0,0,1-.74-1.34,2,2,0,0,0-.86-1.35c.23-.61-.26-1-.55-1.38a2.93,2.93,0,0,1-.19-.4c-.18-.36-.34-.74-.55-1.08,0-.09-.25-.1-.41-.15.28-.33.19-.62-.09-.93s-.6-.57-.51-1.09c0-.16-.24-.38-.38-.57s-.36-.32-.34-.44c.11-.57-.24-1-.43-1.45,0-.12-.06-.29-.15-.38a7.33,7.33,0,0,1-1.36-2.3c-.3-.61-.56-.73-1.21-.49-.22.08-.43.19-.65.29l-.64.28c-.37-1-.5-1-1.38-.49l-.54.31c0-.16,0-.27,0-.37.2-4.1.42-8.21.61-12.31.35-8,2.33-15.62,4.72-23.18,1.82-5.74,4.24-11.24,6.54-16.8a125.82,125.82,0,0,1,7-13.41c1.2-2.13,2.43-4.25,3.63-6.38a.86.86,0,0,1,.65-.46,80.16,80.16,0,0,1,19.61-1.5,62.2,62.2,0,0,1,14.91,2.26,36.3,36.3,0,0,1,8.13,3.56.66.66,0,0,1,.37.63c.15,5.8.25,11.6.5,17.39a67.9,67.9,0,0,0,2.38,14,153,153,0,0,0,7.29,21c.55,1.32,1.1,2.65,1.62,4a1,1,0,0,1,0,.65c-.56,1.23-1.15,2.45-1.75,3.67-.07.14-.25.31-.38.31a2.36,2.36,0,0,0-2.38,2.61c0,.25.05.49.08.78-.38-.15-.73-.31-1.1-.42a1,1,0,0,0-1.43.54q-3.56,5.49-7.12,11a1.08,1.08,0,0,0,0,1.35.55.55,0,0,1,0,.45c-.28.6-.59,1.19-.88,1.79a.89.89,0,0,0,.34,1.34c.83.61,1.67,1.2,2.51,1.79.52.36.79.29,1.13-.24.47-.72.94-1.45,1.42-2.22.2.13.37.25.54.35a.67.67,0,0,0,1.07-.25l4.53-6.83a.89.89,0,0,1,.29-.29c0,.39-.07.78-.1,1.17,0,.14-.05.28-.06.42-.09,1.06-.07,1.09,1,1.17a2.23,2.23,0,0,0,.16.8c.13.2.44.28.74.44,0,.6,0,1.29-.09,2-.17,2.25-.29,4.51-.54,6.75a41.59,41.59,0,0,1-1.92,7.51,103,103,0,0,1-4.08,11,28.7,28.7,0,0,1-6,8.93A65.42,65.42,0,0,1,170.1,239.7Zm31.54-37.3c-.41,1.3-.8,2.6-1.25,3.88A77,77,0,0,1,192,223.44a32.7,32.7,0,0,1-5.6,6,36.5,36.5,0,0,1-6.94,5.08l-.42.22s-.06,0-.14,0a66.88,66.88,0,0,0,7.89-16,51.54,51.54,0,0,0,2.42-11c.22-1.85.78-3.6,1.13-5.41.46-2.37.85-4.75,1.27-7.13l.1-.52c.22,0,.43.05.65.06a7.93,7.93,0,0,0,1.09,0c.55-.07.61-.21.52-.74a18.34,18.34,0,0,0-.46-2.6,3.23,3.23,0,0,1,.17-1.91c.13.25.21.39.28.54l3.56,7.38a1.56,1.56,0,0,0,2.06,1c.33.89.68,1.78,1,2.68.16.45.35.79.91.81C201.81,201.91,201.71,202.19,201.64,202.4Zm3.8-22.08c-.47,3.87-1,7.73-1.54,11.6,0,.13-.06.27-.11.52-.12-.24-.2-.39-.27-.54-1.32-2.62-2.64-5.24-3.94-7.87a1.66,1.66,0,0,0-1.5-1,.67.67,0,0,1-.41-.3c-.41-.57-.79-1.16-1.17-1.75a.78.78,0,0,1-.08-.35c0-.39-.06-.78-.08-1.18a1.38,1.38,0,0,0-1.21-1.33,1.2,1.2,0,0,1-.84-.69,1.7,1.7,0,0,1,0-1.77,39.65,39.65,0,0,0,2.26-7.31c1.4-5.83,2.51-11.73,3.52-17.64,0-.1.06-.2.09-.31l.09,0c.47,1.25,1,2.49,1.41,3.75a94.12,94.12,0,0,1,3.74,15.19A37.83,37.83,0,0,1,205.44,180.32Zm9.5-26.51c-.15-.37-.29-.75-.47-1.1q-2.88-5.76-5.75-11.52a3.06,3.06,0,0,1-.28-1c-.33-3-.63-6.06-1-9.09-.47-4.05-1-8.09-1.44-12.14a4.61,4.61,0,0,1,0-.57h5c1,0,1,0,1-1a1,1,0,0,1,0-.29,181.38,181.38,0,0,1,2.79,19.82A105.57,105.57,0,0,1,214.94,153.81Z"/></svg>