<svg id="Layer_1" data-name="Layer 1" xmlns="http://www.w3.org/2000/svg" viewBox="0 0 300 300"><title>Tempo_Web_SVG_2</title><path d="M109.15,272V269.2a5.37,5.37,0,0,0,3.66-5.27q.09-9.23.15-18.45c0-.56.06-1.12,0-1.68-.08-2.32,1.56-3.6,3-5.08l.35.67a5,5,0,0,0,6.86,2c.58-.32,1.16-.65,1.71-1a15.45,15.45,0,0,1,8.37-2.47c2,0,3.95-.06,5.92-.17a21.68,21.68,0,0,0,12.25-4.47,11.15,11.15,0,0,0,3.49-5.73,30.67,30.67,0,0,0,1.32-7.91l1.29-25.29q.54-10.63,1.08-21.28.61-12.14,1.26-24.26.48-9.33.93-18.65.56-10.84,1.11-21.71c.32-6.31.62-12.62.94-18.94.37-7.53.76-15.06,1.11-22.59q.5-10.86.93-21.72a8.91,8.91,0,0,0-.74-4.14,6.26,6.26,0,0,0-5.81-3.88c-3.48-.12-7,0-10.47-.08a16.78,16.78,0,0,0-6.81,1.44c-1.06.44-2.13.85-3.16,1.35a21.06,21.06,0,0,1-8.26,2c-1.31.07-2.62.23-3.93.39a.73.73,0,0,1-.9-.46c-1.4-3-2.91-5.91-4.2-8.93a12.22,12.22,0,0,1-.33-3.4c1.49,0,2.83,0,4.16,0l30.45-.64c4.85-.1,9.71-.26,14.56-.27a21.11,21.11,0,0,1,13.91,4.74,18.41,18.41,0,0,1,6.68,12.53,89.75,89.75,0,0,1,.22,9.14q.24,38.17.46,76.36.16,36,.24,72c0,8.81-3.4,16.19-9.38,22.5a43.58,43.58,0,0,1-7.65,6.21c-9.58,6.38-19.11,12.83-28.68,19.24q-12.95,8.68-25.9,17.33a19.28,19.28,0,0,1-8.59,3.29,1.5,1.5,0,0,0-.34.11Z"/></svg>