<svg id="Layer_1" data-name="Layer 1" xmlns="http://www.w3.org/2000/svg" viewBox="0 0 300 300"><title>Tempo_Web_SVG_2</title><g id="CJJJ0X"><path d="M30.83,72.55a4.26,4.26,0,0,1,2.83-2.88,4,4,0,0,1,1.23-.21l63.28.34,45.5.24,57.24.32,47.4.25,16.93.11a4.86,4.86,0,0,1,2.83.9,2.57,2.57,0,0,1,1.26,2.56,19.6,19.6,0,0,1-.55,2.66A2,2,0,0,1,267,78.27C257.3,80,247.58,81.8,237.83,83.5c-7.76,1.36-15.53,2.67-23.32,3.87-5.43.84-10.89,1.46-16.34,2.17s-10.86,1.77-15.79,4.38a19.92,19.92,0,0,0-3.59,2.44,3.31,3.31,0,0,0-.95,4.46c.68,1.51,1.46,3,2.22,4.46.61,1.18,1.21,2.37,1.88,3.53a18.9,18.9,0,0,1,2.27,8.81c.45,10.88.83,21.75,1.24,32.63.29,7.74.57,15.49.9,23.23.23,5.4.53,10.8.79,16.2a3.14,3.14,0,0,0,1.85,2.78,8.25,8.25,0,0,0,2.3.79,19,19,0,0,1,8.82,4.07,27,27,0,0,1,3.84,3.87,10.38,10.38,0,0,1,2.4,5.59,38.26,38.26,0,0,1,.11,8.82,2.13,2.13,0,0,1-.27.78,15,15,0,0,1-6.56,5.81,90.53,90.53,0,0,1-20.15,6.13,156.73,156.73,0,0,1-37.4,2.14,134.05,134.05,0,0,1-25-3.41,59,59,0,0,1-13.84-4.91,8.11,8.11,0,0,1-4.58-5.56,13.7,13.7,0,0,1,0-4c.26-2.28.67-4.54,1-6.8a7.49,7.49,0,0,1,2.39-4.35,26.27,26.27,0,0,1,7.12-4.81c2.18-1.06,4.42-2,6.66-3a4.22,4.22,0,0,0,2.88-4.14q.6-21.33,1.21-42.68c.28-9.92.5-19.84.76-29.76a16.68,16.68,0,0,1,1.63-6.91q2.31-4.8,4.61-9.61c1.14-2.39.84-3.88-1.19-5.58a21.32,21.32,0,0,0-7.1-3.58,64.84,64.84,0,0,0-12.25-2.68c-5.74-.77-11.48-1.61-17.22-2.44s-11.35-1.63-17-2.46C66,82.88,59.85,82,53.67,81.05c-5.2-.79-10.4-1.57-15.58-2.5A24.25,24.25,0,0,1,33.45,77a4.53,4.53,0,0,1-2.62-2.93Z"/></g></svg>