<svg id="Layer_1" data-name="Layer 1" xmlns="http://www.w3.org/2000/svg" viewBox="0 0 300 300"><title>Tempo_Web_SVG_2</title><path d="M71.22,130.57H73.4v6h4.28v-6l.56.15a1.61,1.61,0,0,0,.81,1.45l.09,1.16.93-.08c-.28.73-.56,1.35-.76,2-.06.2.08.46.12.69l.5-.12,1.16-.3c0,.62-.31.81-.76.88a1.31,1.31,0,0,0-1.06.66c.36.49.77.44,1.23.15.19-.13.43-.18.61-.3,1.35-.93,2.76-.22,4.15-.34-.07,1.37-.42,1.79-1.57,2.11a1,1,0,0,0-.48.37.61.61,0,0,1-.77.27c-.87-.23-1.74-.44-2.62-.63-.65-.15-.78,0-.82.64a2.81,2.81,0,0,1-.23,1c-.43.91-.41,1.1.38,1.67-.19.26-.51.51-.54.79a4.78,4.78,0,0,0,2.56,4.25.7.7,0,0,1,.3.19c.39.58.76,1.17,1.15,1.77l-.52.47a2.79,2.79,0,0,0-1,2.32c0,.66.35,1.2.82,1.26a3.29,3.29,0,0,0,2.53-.46c.74-.55,1-.5,1.69.12A1.39,1.39,0,0,1,85,153.8c-.78.11-1.56.26-2.34.4a1.12,1.12,0,0,0-.93,1.55c.25.73.53,1.45.75,2.06-.31.62-.6,1.19-.92,1.84a4.18,4.18,0,0,0,1.15.09.9.9,0,0,1,1.11.52.89.89,0,0,1,0,1.17,2.28,2.28,0,0,0-.47,2c.1.37-.16.42-.41.44s-.78,0-1.17,0A2.53,2.53,0,0,0,81,164c-.94.34-1.87.72-2.81,1a.9.9,0,0,0-.73.9c.58.32,1.42-.48,1.87.42-.62.55-.62.55-.58.76l2.5.6a5.88,5.88,0,0,0,.73.14l4.5.59c-.16.45-.32.94-.51,1.49-2.11-.65-4.36-.8-6.22-2.13-.21-.15-.45-.23-.58.05s-.42.53,0,.77a5.25,5.25,0,0,0,1,.52c.59.2,1.2.35,1.81.51,1.08.27,2.16.52,3.23.81.18,0,.43.17.47.31a9.64,9.64,0,0,1,.2,1.2l-6,1.2c-.94.19-1.13.41-1.29,1.52a3.25,3.25,0,0,0,.78-.06c1.43-.49,2.83-1.07,4.28-1.51a16.44,16.44,0,0,1,2.47-.37c-.06.72-.12,1.36-.18,2-1.92.28-3.84.61-5.77.81-.73.08-1,.52-1.34,1.16a5.08,5.08,0,0,0,1.09.11c.39-.06.76-.26,1.15-.35,1.3-.31,2.59-.69,3.91-.88.87-.12.88,0,1.07.85,0,0,0,.07,0,.2-.25,0-.53.11-.82.15-.57.07-1.16.08-1.73.19s-.93.38-1.45.14a.53.53,0,0,0-.36.05l-2.26.9c-.28.11-.43.32-.29.56a.7.7,0,0,0,.55.35,6.07,6.07,0,0,0,1.69-.54,12.06,12.06,0,0,1,3.88-1c.18.47.33.88.49,1.29l-4,1a6.59,6.59,0,0,1-.75.25c-.37.06-.67.13-.71.59a8.89,8.89,0,0,1-.2,1.07c1.18-.5,2.21-.91,3.23-1.36a2.21,2.21,0,0,1,2.21.13,1.37,1.37,0,0,1-1.16,1.32,8.49,8.49,0,0,0-1.12.33c-.53.23-1,.48-1.57.75s-.83.52-1.27.71c-.73.3-.78.33-.6,1.21.42-.28.85-.53,1.23-.83a9.65,9.65,0,0,1,4.1-1.77.68.68,0,0,1,.57.19,1.24,1.24,0,0,1-.53,2,1.74,1.74,0,0,1-.48.22c-1.4.31-2.75.91-4.26.62-.72-.13-.78,0-.54.7a2.41,2.41,0,0,1-.35,2.46c-.58.62-.72,1.17-.39,1.72-.13.38-.34.68-.27.89s.4.41.8.79c-.32.22-.62.41-.9.63-.11.09-.25.25-.24.37.06.53,1.08.89,1.53.59a1.62,1.62,0,0,1,1.88-.13c-.57.32-1.08.57-1.57.88a.83.83,0,0,0-.39.52,2.57,2.57,0,0,0,.09,1,2.41,2.41,0,0,0,.44.8c.19.22.38.17.54-.11a13.1,13.1,0,0,1,.73-1.1c1.24-1.72,4.38-3.26,6.63-2.32A17.08,17.08,0,0,0,93,193.92c2.12.24,4.26.24,6.4.35l2.48.14c1.43.07,2.85.16,4.27.2a9.23,9.23,0,0,1,2-.08,10.9,10.9,0,0,0,2.72.25,93.63,93.63,0,0,0,9.91.09,3.09,3.09,0,0,1,.53,0l8.38,0c2.28,0,4.57-.16,6.83,0a24,24,0,0,0,5.75-.34,40.18,40.18,0,0,1,8.55-.54,11.11,11.11,0,0,0,3.36-.27,9,9,0,0,1,1.32-.37c1.6-.14,3.21-.27,4.81-.32,3-.1,6-.13,8.95-.22a8.84,8.84,0,0,1,3.36.14c.17.06.42-.11.63-.17a4.78,4.78,0,0,1,1.35-.34,14.31,14.31,0,0,1,2.34.32,1.65,1.65,0,0,0,1.5-.31c.61-.58,1.15-1.23,1.73-1.84.27-.29.55-.57.83-.85.61-.6,1.45-1.1,1.79-1.82a6.5,6.5,0,0,0,.53-3.83c-.05-.25-.09-.51-.14-.82a3.41,3.41,0,0,1,.44.17.52.52,0,0,0,.76-.24.9.9,0,0,0,0-.75,7.34,7.34,0,0,0-1-1.37,1.51,1.51,0,0,0-.76-.4c-.43-.1-.91.07-1.28-.32-.08-.08-.3-.06-.46-.05a11.84,11.84,0,0,0-1.57.21c-.5.12-.77-.14-1.11-.48l.72-.19,3.51-.78a5.36,5.36,0,0,1,.77-.18c.75-.05.75,0,.89-.83a3.16,3.16,0,0,0-2.3.22,10.53,10.53,0,0,1-4.58.69,4.5,4.5,0,0,1-.55-.09c.19-.38.35-.72.51-1,1.12-.16,2.3-.34,3.49-.5a3.69,3.69,0,0,1,1.05,0c1,.18,1.2,0,.9-1a3.1,3.1,0,0,0-.92.09,9.91,9.91,0,0,1-3.49.54c-1,0-1,0-1.43-.92a.58.58,0,0,1-.05-.14c-.12-.38.06-.64.45-.59l7,.84c.06-.23.27-.57.18-.76s-.5-.24-.77-.32a1.92,1.92,0,0,0-.48,0,9.52,9.52,0,0,1-3.71-.34,2.18,2.18,0,0,0-.63-.08l-1-.09c0-.71.28-1.52,0-1.94-.57-.8-.36-1.22.2-1.84.35-.4.65-.49,1-.23.65.44,1.25,1,1.89,1.42a2.51,2.51,0,0,0,.56.22,3.38,3.38,0,0,0-2.23-2.2c-.29-.12-.69-.36-.74-.61a1.16,1.16,0,0,1,.56-1.34c1.14-.72,2.22-1.52,3.33-2.28a1,1,0,0,1,.51-.22c1.27.08,2.64-.38,3.81.8a6,6,0,0,0,0-.62,2.48,2.48,0,0,1,0-.71,1.47,1.47,0,0,0-.75-1.88c-.41-.24-.86-.43-1.27-.67a3.31,3.31,0,0,1-.58-.47,1.8,1.8,0,0,1,2.4-.42c.43.32.91.27,1-.17.06-.24-.17-.55-.24-.76.09-.1.26-.2.27-.32a2.59,2.59,0,0,0-.05-.78,7.47,7.47,0,0,1-.29-1.39,2.81,2.81,0,0,0-.66-1.68l-1.36-1.84.72-.35a8.59,8.59,0,0,0-1-1.05,7.73,7.73,0,0,0-1.63-.87,3.53,3.53,0,0,1-1.45-1.25,1.72,1.72,0,0,0,.37-1.65,9.84,9.84,0,0,0-.43-1.47c-.12-.36-.25-.71-.38-1.09l1.86-.66a2.35,2.35,0,0,0,1,1.78,1.34,1.34,0,0,0,.15-1.32c-.32-.9-.27-1,.63-1.34a2.81,2.81,0,0,1,.56-.18c.6-.13.66-.22.43-.85a1.6,1.6,0,0,0-.62,0c-.45.2-.87.47-1.3.71-.62.34-.74.26-.74-.49.11,0,.21,0,.31,0s.23,0,.5,0a6.45,6.45,0,0,0-.62-1.34,9.57,9.57,0,0,0-4.79-3.52c.17-.29.35-.56.5-.85a6,6,0,0,0,.19-2.82,7.34,7.34,0,0,1,.09-.82c.2.18.41.34.59.53s.35.53.71.19l-.17-1.41a1,1,0,0,1,.31.48c.08.36.09.74.2,1.09a1.35,1.35,0,0,0,.4.55s.35-.15.41-.29a2.33,2.33,0,0,0,.19-1c0-.49-.3-1-.3-1.45a7.89,7.89,0,0,1,.3-1.78,3.4,3.4,0,0,1,.4-.73c1.55-.63,1.41-.88.89-1.75.76-.58.87-1.24.22-1.79a25.41,25.41,0,0,0-2.43-1.84,7.26,7.26,0,0,0-5.73-.6,2,2,0,0,1-1.77-.18,4.23,4.23,0,0,0-2.79-.8q-12.3-.36-24.61-.65-5.73-.14-11.43-.7a63.7,63.7,0,0,0-8.84-.45c-3.38.14-6.75.18-10.13.3s-6.57.28-9.85.47c-4.13.24-8.26.52-12.39.8-2.34.16-4.71,0-7,.52a8.13,8.13,0,0,0-1.19.5c-.17.07-.34.25-.49.23a12.37,12.37,0,0,0-2.58.12c-1.17.13-2.35.14-3.57.2.17-13.85.35-27.8.53-41.76.51,0,1,0,1.42,0l18.67.51,15.8.45q11.57.34,23.12.71,6.67.22,13.36.5c3.06.13,6.11.36,9.16.45,4.64.13,9.27.19,13.9.27,1.39,0,2.79,0,4.22,0,.05-.85.1-1.69.14-2.54.24-4.91.51-9.82.7-14.73.18-4.56.23-9.12.4-13.68a111.25,111.25,0,0,0-.1-12.25c-.06-1-.13-1.92-.19-2.9l-.42,0c-4.49-.25-9-.49-13.46-.76-7.71-.45-15.42-1-23.14-1.36q-11.11-.57-22.26-.93c-5-.15-10-.11-15.07-.16-.79,0-1.58,0-2.37-.07H81a14.07,14.07,0,0,0-.3,1.93c-.13,4.18-.22,8.38-.33,12.57q-.33,13.58-.67,27.15c0,.9,0,1.8,0,2.69l-.28,0a1.92,1.92,0,0,1-.11-.46c0-2.1,0-4.21,0-6.31,0-6.21.06-12.42.08-18.63a2,2,0,0,0-.16-.7,4.66,4.66,0,0,1-.34-.76q-.71-4.95-1.38-9.92c-.19-1.42,0-1.08-1.29-1.39-.08-.7-.15-1.41-.23-2.13l-.13-.07c-.1.14-.27.26-.29.42a11,11,0,0,0-.17,1.42c0,.3-.11.51-.44.53-.56,0-.71.4-.78.92-.45,3.32-.93,6.65-1.41,10a2.49,2.49,0,0,1-.22.57,2.4,2.4,0,0,0-.26.63q0,6.52-.08,13-.06,15.81-.14,31.62v.59c-.48-.06-.88-.1-1.27-.17-.65-.12-.85,0-.85.68l.21,27.74C70.21,130.5,70.32,130.59,71.22,130.57Z"/><path d="M229,240.37a7.76,7.76,0,0,0-3.82-2.07A131.29,131.29,0,0,0,211.24,236a166.22,166.22,0,0,0-17.41-1.1,107.33,107.33,0,0,0-13.3.38c-5,.55-10,1.25-15,1.8a36.29,36.29,0,0,1-5.61.19,24.9,24.9,0,0,1-7.62-1.92,30.6,30.6,0,0,1-6.61-3.21,3.41,3.41,0,0,0-2.14-.62c-6.05.15-12.1.27-18.14.4-15.79.32-31.58.66-47.37.93a2.06,2.06,0,0,0-2.19,1.52c-.08.23-.17.46-.25.7a30.79,30.79,0,0,0-1.24,7.62,106.53,106.53,0,0,0,.09,14.84,11.6,11.6,0,0,0,1,4.13,1.37,1.37,0,0,0,1.42.86c8.54-.23,17.07-.42,25.61-.62l39.36-.89c1.09,0,2.19,0,3.31,0a4.93,4.93,0,0,0,.07-.57,1.07,1.07,0,0,1,.72-1.09c2.79-1.36,5.52-2.88,8.37-4.08A29.82,29.82,0,0,1,168,252.93c4.1.28,8.18.63,12.28.84,5,.26,10.07.43,15.11.61a83.36,83.36,0,0,0,12.34-.39,117.22,117.22,0,0,0,17.52-3.35,7.36,7.36,0,0,0,4.65-3.75A5.45,5.45,0,0,0,229,240.37Z"/><path d="M75.63,228.62c-.11-1.22-.09-2.44-.11-3.66a.72.72,0,0,1,.1-.49,2.84,2.84,0,0,0,.63-1.87c.13-10.06.33-20.12.37-30.18,0-13.18.09-26.35-.48-39.52-.19-4.43-.48-8.86-.73-13.29a.64.64,0,0,0-.12-.38,1.52,1.52,0,0,0-1.44-.34,1,1,0,0,0-.81.92c-.29,2.26-.75,4.51-.88,6.78-.37,6.35-.75,12.71-.85,19.07-.11,6.52.1,13.05.16,19.58,0,2.86,0,5.73,0,8.6a5.87,5.87,0,0,0-.44-1.17,2,2,0,0,0-.84-.65c-.22-.12-.44,0-.44.32s-.07.81-.08,1.22c0,6,.49,11.9,1,17.84a4.67,4.67,0,0,0,.41,1.13,2.6,2.6,0,0,1,.23.62q.52,4.53,1,9.06a2.7,2.7,0,0,0,1,2.12c.11.08.14.31.15.47,0,1.34.05,2.69.12,4a1.07,1.07,0,0,0,.41.77A1.11,1.11,0,0,0,75.63,228.62Z"/></svg>