<svg id="Layer_1" data-name="Layer 1" xmlns="http://www.w3.org/2000/svg" viewBox="0 0 300 300"><title>Tempo_Web_SVG_2</title><path d="M174.68,49.24a.72.72,0,0,0,0-.89c-1.68-2.77-3.33-5.56-5-8.34-.09-.16-.19-.31-.3-.49l-.41.24L77.77,95.83l-.3.18v.1c.11.15.23.29.32.44q2.49,4.11,5,8.23a2.47,2.47,0,0,0,.64.69q7.1,5.11,14.21,10.21c.14.11.3.2.44.3l39.62-27.52c0,.2,0,.31,0,.42q.18,6.68.37,13.36.51,18.75,1,37.51l.81,29.7q.45,16.94.91,33.88.42,15.28.82,30.56a2.44,2.44,0,0,0,.09.54q3.33,13,6.68,26.05h3.93c.6,0,1.21-.07,1.81-.08l9.48-.12.42,0v-.54l-.24-51.21q-.1-21.28-.2-42.57l-.21-42.63q-.09-21.32-.2-42.63c0-3.9,0-7.8,0-11.7a1.94,1.94,0,0,1,.25-.94Q169,58.64,174.68,49.24Z"/></svg>