<svg id="Layer_1" data-name="Layer 1" xmlns="http://www.w3.org/2000/svg" viewBox="0 0 300 300"><title>Tempo_Web_SVG_2</title><g id="m1ioea"><path d="M221.19,279.45l-.67-.18a4.36,4.36,0,0,1-3.33-3,42,42,0,0,1-1.17-5q-2.47-13.09-4.88-26.21-2.37-12.91-4.72-25.83-2.25-12.36-4.46-24.71-2.25-12.57-4.48-25.16-.94-5.28-1.84-10.58a1.12,1.12,0,0,0-.8-.94L134.17,132l-18.67-8-.64-.25-.34.63q-17.08,33.87-34.18,67.75a9.36,9.36,0,0,1-.93,1.55,3.88,3.88,0,0,1-5.09,1.06A4.17,4.17,0,0,1,72,189.58a9.91,9.91,0,0,1,.68-1.53Q106.31,120.77,140,53.51c2-3.95,3.94-7.91,5.94-11.86a4.17,4.17,0,0,1,4.4-2.4,5,5,0,0,1,4.23,3.52,4.94,4.94,0,0,1-.53,3.38L138,77.92,119.06,115.4c-.09.19-.19.39-.33.66l75,32c-.25-1.42-.47-2.75-.7-4.07q-2.11-12.18-4.21-24.36-1.87-10.83-3.7-21.68-1.92-11.33-3.82-22.65-1.8-10.69-3.57-21.38Q176.07,44,174.43,34c-.5-3-1-6-1.45-9a1.44,1.44,0,0,1,.24-1.11,10.15,10.15,0,0,1,2.38-2,11.75,11.75,0,0,1,8.05-1,5.87,5.87,0,0,1,1.28.44,2.44,2.44,0,0,1,1.61,2c1.31,8.22,2.71,16.43,4.09,24.64q1.91,11.46,3.83,22.91,2,11.83,3.95,23.68,2.22,13.38,4.47,26.74,2,11.83,4,23.68,2.16,13,4.35,26,2,12.23,4.07,24.45t4.09,24.44q2.17,13,4.33,26,2,12.22,4.09,24.44a13.81,13.81,0,0,1,.34,4.88,4.73,4.73,0,0,1-4.4,4.21,3,3,0,0,0-.43.12Z"/></g></svg>