<svg id="Layer_1" data-name="Layer 1" xmlns="http://www.w3.org/2000/svg" viewBox="0 0 300 300"><title>Tempo_Web_SVG_2</title><path d="M84.62,42.53c1.21-.47,1.44-1.58,1.74-2.65a3.77,3.77,0,0,1,.42-1.29,10.55,10.55,0,0,1,1.45-1.29c-.44-.88,0-1.82.35-2.79a2.32,2.32,0,0,0,.16-1c-.16-1.47.59-2.62,1.26-3.8s1.29-2.48,2-3.65a8.54,8.54,0,0,1,1.6-1.45c.32,1.64.61,3.09.89,4.55,2,10.33,4,20.66,6,31s4,20.71,5.79,31.1c1.57,9,2.89,18.15,4.35,27.22s2.85,17.94,4.35,26.9,3.06,18.16,4.69,27.22c2.2,12.23,4.46,24.46,7.54,36.51a146.31,146.31,0,0,0,13.2,34.28A63.62,63.62,0,0,0,150,257a36.3,36.3,0,0,0,4.5,3.89,6.76,6.76,0,0,0,7.25.59,20,20,0,0,0,5.4-3.73,47.94,47.94,0,0,0,8.17-10.32,109.33,109.33,0,0,0,12.31-29.28,101.86,101.86,0,0,0,2.47-14.41c.64-5.55,1.23-11.12,1.71-16.68.44-5.05.77-10.11,1-15.17q.56-10.08,1-20.16c.23-5.56.44-11.13.53-16.71.23-15.2.38-30.41.56-45.62,0-4.07,0-8.14.14-12.19s.55-8,.93-12c.41-4.29.91-8.58,1.43-12.86.61-5,1.27-9.92,1.95-14.88.49-3.65,1-7.29,1.56-10.94,0-.24.09-.48.14-.8.72.64,1.51,1.09,1.58,2.14,0,.27.35.56.6.74a2,2,0,0,1,.75,1.17,8.5,8.5,0,0,0,.74,1.7c.43.81.9,1.6,1.38,2.38.73,1.19,1.45,2.4,2.25,3.54.24.33.74.48,1.19.75-.06.44.22.76.71,1a1,1,0,0,1,.32.69,2.06,2.06,0,0,0,.69,1.35,14.75,14.75,0,0,1,1,1.22,4,4,0,0,0,.74.75,1.7,1.7,0,0,1,.88,2,6.5,6.5,0,0,0-.13,1.1,6.09,6.09,0,0,1,.86-.73,4.77,4.77,0,0,1,.93-.34c-.16,2.19-.33,4.25-.46,6.3q-.37,6.06-.71,12.11-.5,9.39-1,18.77c-.24,4.68-.45,9.37-.68,14.06q-.42,8.82-.83,17.64-.35,7.38-.68,14.75-.42,9.07-.83,18.15c-.23,4.85-.43,9.71-.68,14.56q-.45,8.44-1,16.88c-.28,4.49-.57,9-.93,13.48s-.75,9.22-1.21,13.83-1,9.07-1.54,13.6A83.53,83.53,0,0,1,190,258.46a42,42,0,0,1-13.21,12.45c-10.83,6.21-21.86,6.08-32.9.59-5.88-2.92-10.59-7.31-14.74-12.33A92.2,92.2,0,0,1,115.94,237a153.8,153.8,0,0,1-10-31c-1-4.9-1.71-9.86-2.46-14.8-.8-5.37-1.52-10.74-2.22-16.12-.68-5.19-1.31-10.38-1.94-15.58s-1.23-10.27-1.84-15.4c-.52-4.35-1-8.69-1.55-13s-1.13-8.76-1.7-13.14c-.6-4.65-1.22-9.3-1.82-14s-1.25-9.38-1.82-14.07C89.87,84,89.21,78,88.51,72c-.46-3.89-.92-7.77-1.43-11.66-.63-4.77-1.3-9.54-2-14.31-.14-1-.33-2-.5-3Z"/><path d="M141.64,82.33c-.3.21-.45.41-.62.42s-.4-.24-.39-.34A.64.64,0,0,1,141,82C141.14,81.93,141.33,82.14,141.64,82.33Z"/></svg>