<svg id="Layer_1" data-name="Layer 1" xmlns="http://www.w3.org/2000/svg" viewBox="0 0 300 300"><defs><style>.cls-1{fill:#080907;}</style></defs><title>Tempo_Web_SVG_2</title><path class="cls-1" d="M252.78,217.93l-3.24-.28-2.09.28s-.38-1.11-3.81-1.23l-4.2-.29-4.38-.86c-2.17-.91-4.57-2-4.65-2.07l-3.07.93-2.09-2.95-3-.67-1.81,1L211.62,204l39.64-56.88L250.11,143l-1.81-28.39L243,111,182.56,49.1l-3.48-3.57L139.46,30.81,108.58,42.86,45.5,129.37l-2.09,37.07S128.06,262.91,130.73,268l3.62,1.23s17.06-1.52,23.92-1.23l17.81-3.53,24.3-6.19,26.3,3.81,26.67,4.19,3.24-45.92Zm-76.7-88.61-1.24,3.62.67,7.72-4.76,14.49.85,4.09-3.52,4.48-1.52,6.86.66,4.67-4.48,4.48-5.05,3.52-3.52,5.05-2.1-.57-2.95-1.52-5.62-2-3.81-1.82-3.34-1.23-2.67-4.39-2-5.62.29-5.05-2.1-2.95-2.38-5.05-2.95-5.91s.57-4.48-2.39-12.19v-3.24l-2.09-2.39-2.29-3.24.29-4.76,1.43-5.14.57-4,7.43-10.67,3.24-2.67,2.67-2.38,2.09-1.43a16.31,16.31,0,0,0,3.24-1.9,15.3,15.3,0,0,1,3-1.34l3.9.29,5.91-.67,7.72,3,6.19,6.57,4.19,2.1,3.53,3.24.28,6.48,2.67,3.62Z"/></svg>