<svg id="Layer_1" data-name="Layer 1" xmlns="http://www.w3.org/2000/svg" viewBox="0 0 500 300"><title>Tempo_Web_SVG_2</title><path d="M450.42,209.09c-.05-1,0-2.1-.11-3.14a108.74,108.74,0,0,0-4.15-21.45c-1.13-3.72-2.49-7.36-3.65-11.08-1.69-5.42-3.3-10.87-4.94-16.32s-3.1-10.7-4.81-16c-1.85-5.76-3.91-11.46-5.85-17.2q-3.12-9.19-6.17-18.41c-1.45-4.36-2.81-8.76-4.32-13.1a37.53,37.53,0,0,0-4.05-8.74,55.23,55.23,0,0,0-8.94-10.48,52.41,52.41,0,0,0-14.35-8.88c-17.29-7.52-35-13.74-53.51-17.54a129.64,129.64,0,0,0-22.8-2.88,67.64,67.64,0,0,0-18.16,1.75,57.51,57.51,0,0,0-19,9.14A36.09,36.09,0,0,0,266.5,64a57.62,57.62,0,0,0-6.11,11.73,41,41,0,0,0-2.61,19.16c.46,4.78,1.3,9.49,2.18,14.2a17.65,17.65,0,0,1,.51,3.61,2.18,2.18,0,0,1-.39.13c-.92,0-1.76.12-1.73,1.35a.3.3,0,0,1-.1.2c-.68.5-.71,1.27-.89,2a2,2,0,0,1-.51,1,1.93,1.93,0,0,0-.55,1.52,2,2,0,0,1-.31,1.13,1.37,1.37,0,0,0-.3,1.23c.06.32.14.77,0,1a2.25,2.25,0,0,0-.42,2.3,2.41,2.41,0,0,1-.06.88c-.41,3.23-.84,6.45-1.23,9.68-.1.81-.12,1.62-.18,2.46h-3.5c.33-11.23.66-22.38,1-33.63-5.81-.24-11.48-.31-17.24-.62V87.83l-.91-.34c0-.42-.06-.79-.09-1.16q-.28-4.38-.58-8.74c0-.73-.14-1.44-1-1.58-.15-.88-.27-1.7-.44-2.5a24.71,24.71,0,0,0-.59-2.4c-2.14-7.23-6.08-13.12-12.69-17-.42-.25-.82-.52-1.24-.77a121.13,121.13,0,0,0-25.41-11.17A38.28,38.28,0,0,0,182,40.2c-1.83-.12-3.66-.22-5.49-.35-.44,0-.88-.12-1.31-.19H169.1a8.29,8.29,0,0,1-1.09.19,43.73,43.73,0,0,0-7.55,1.07,57.49,57.49,0,0,0-19.55,8.47C130.74,56.14,120.68,63,111,70.54A103,103,0,0,0,98.77,81.22c-2.41,2.57-4.88,5.07-7.29,7.63-.82.87-1.59,1.8-2.33,2.73A69.48,69.48,0,0,0,80.82,105q-6.61,14-13,28.09c-3.78,8.27-7.52,16.56-10.69,25.09a205,205,0,0,0-6.85,20.29c-2.5,9.75-4.91,19.52-7.42,29.26a151,151,0,0,0-4.56,24.57,57.33,57.33,0,0,0-.3,7.17,110.42,110.42,0,0,0,1.77,15.38c.35,1.94.75,3.87,1.14,5.9l3.65-.38c-.08-.44-.12-.74-.18-1-.53-2.37-1.11-4.73-1.59-7.12A50.88,50.88,0,0,1,41.44,242a112,112,0,0,1,3.34-26.67c2.86-11.54,5.81-23.06,8.76-34.58a84.23,84.23,0,0,1,2.71-9.6c3.85-10,7.66-20,11.93-29.79,4.58-10.53,9.64-20.85,14.56-31.23,1.61-3.41,3.32-6.8,5.21-10.06A78,78,0,0,1,105.2,80a289.18,289.18,0,0,1,38.42-28,90.11,90.11,0,0,1,9-5A39.19,39.19,0,0,1,164.8,43.5,84.6,84.6,0,0,1,177,43.33a48.8,48.8,0,0,1,10,1.41,96.45,96.45,0,0,1,21.47,8.09,72.6,72.6,0,0,1,8.05,4.67,27,27,0,0,1,11.54,18c.09.47.29.94-.3,1.28-.13.08-.14.47-.11.72.13,1.64.32,3.27.44,4.91.11,1.35.18,2.69.23,4,0,.32,0,.87-.19.93-.8.32-.58,1-.58,1.52q0,6.41,0,12.8V103h-7.14c-.3,1.54-2.19,58.56-2,59.55l18.38.48c6.17.17,12.35.32,18.52.5s12.23.37,18.31.46a201.9,201.9,0,0,0,.47-26.48H267c0-.53,0-.94,0-1.34.08-3,.15-6,.25-9a22.12,22.12,0,0,0,.19-3.23c-.14-1.19-.21-2.39-.38-3.57-.09-.6-.28-1.21-.33-1.84a8.11,8.11,0,0,0-.37-1.51c-.29-1-.65-2-.86-3-.19-.83-.23-1-1.07-1.18l-.79-.17c0-.4-.07-.77-.13-1.14-.28-1.81-.49-3.64-.87-5.42A69.63,69.63,0,0,1,261,86.44a30.58,30.58,0,0,1,2.47-10.31,61.54,61.54,0,0,1,6.28-10.87,27.15,27.15,0,0,1,7.63-7.36c.86-.53,1.68-1.13,2.52-1.69A48.47,48.47,0,0,1,288,51.8a57.18,57.18,0,0,1,18.72-4.3,54.54,54.54,0,0,1,15.29,1A327.09,327.09,0,0,1,360.54,59.6c9.26,3.3,18.54,6.55,27.6,10.4a69.62,69.62,0,0,1,12.52,6.74,21.69,21.69,0,0,1,8.62,11.43c.92,2.89,1.82,5.78,2.67,8.69,3.31,11.38,6.53,22.8,10.37,34,2.86,8.38,5.94,16.7,8.87,25.07q5.21,14.88,10.3,29.79a94.36,94.36,0,0,1,4.26,16.15,42.83,42.83,0,0,1-1.46,19.41,25.63,25.63,0,0,1-6.91,11.37,19.91,19.91,0,0,1-9.82,5.36,41.94,41.94,0,0,1-12.75.34c-2.11-.25-4.2-.69-6.41-1.06-.24,1.27-.49,2.6-.75,4a5.59,5.59,0,0,0,.57.15c3.23.44,6.44,1,9.68,1.26a44.4,44.4,0,0,0,8.07,0,28.89,28.89,0,0,0,14.73-6.14,17.89,17.89,0,0,0,4.91-5.48c.69-1.25,1.34-2.51,1.94-3.8a29.29,29.29,0,0,0,2.87-12,11.48,11.48,0,0,1,.18-1.42v-3.37C450.54,210,450.45,209.53,450.42,209.09Z"/></svg>