<svg id="Layer_1" data-name="Layer 1" xmlns="http://www.w3.org/2000/svg" viewBox="0 0 300 300"><title>Tempo_Web_SVG_2</title><path d="M268,252.44c-.11-3.81-.21-7.62-.32-11.44q-.42-14.7-.86-29.4L266.16,188q-.42-14.44-.86-28.88Q265,147,264.61,135q-.48-16.54-1-33.09-.36-12.14-.7-24.29l-1.11-37.67a2.54,2.54,0,0,0-1.88-2.49,5.72,5.72,0,0,0-2-.1c-2.5.3-5,.65-7.49,1-7.28,1.07-14.55,2.25-21.85,3.16A7.39,7.39,0,0,0,223,45.14c-.21.33-.42.65-.6,1Q218.68,53,215,59.87a6.85,6.85,0,0,0-.79,3.55c.13,2.89.27,5.77.46,8.65a1.56,1.56,0,0,1-.55,1.58,3.77,3.77,0,0,0-.79.85c-2.16,3-4.3,5.93-6.47,8.87a4,4,0,0,0-.79,2.21c-.07,1-.16,1.94-.14,2.9q.19,8.79.43,17.58.42,16.1.86,32.18.28,10.63.56,21.26.42,15.6.85,31.21a10,10,0,0,1-.13,1.73,4.43,4.43,0,0,1-4.05,4.11q-3.28.54-6.57,1l-28.09,4.28a3.79,3.79,0,0,0-3.43,4c0,2.43,0,4.87,0,7.3v.72a3.54,3.54,0,0,1-.45-.06,12.78,12.78,0,0,1-7.28-4.82,34.17,34.17,0,0,1-5.19-9.33,107.94,107.94,0,0,1-5.81-22.92c-.78-5-1.39-9.93-2-14.91s-1.1-10.06-1.65-15.09q-.74-6.59-1.48-13.16t-1.49-13q-.75-6.39-1.49-12.77-.8-6.8-1.61-13.6c-.51-4.12-1-8.25-1.57-12.37a3.61,3.61,0,0,0-3.21-3.49c-.16,0-.35-.33-.36-.52a24.07,24.07,0,0,1-.12-3.17,2.22,2.22,0,0,0-1.24-2.22A38.38,38.38,0,0,0,127,70.12Q87.3,54.25,47.57,38.48a5.73,5.73,0,0,0-2.4-.32,6.34,6.34,0,0,0-4.47,2.56.82.82,0,0,1-1,.31c-1.65-.42-3.3-.79-5-1.19a3.67,3.67,0,0,0-2.56.34,1.55,1.55,0,0,0-.92,1.38q-.08,1.45-.12,2.91a1.78,1.78,0,0,0,.1.55,3.81,3.81,0,0,1,.26.88q.14,18.59.22,37.17.14,23.18.25,46.35l.39,72.33q.07,13.63.15,27.28.09,15.57.16,31.15a1,1,0,0,1-.18.65,2,2,0,0,0-.58,1.77c.05.51.07,1,.09,1.54.06,1.3.45,1.84,1.73,1.95a21.77,21.77,0,0,0,4.7.12c5.88-.74,11.73-1.63,17.59-2.47,4.14-.58,8.27-1.18,12.41-1.75a4.29,4.29,0,0,0,3.86-3.2,7.74,7.74,0,0,0,.2-1.86q0-13,0-26.05v-.81l4.2-.52c1.39-.17,2.78-.31,4.16-.53,2.36-.38,3.92-2.44,3.92-5.11q0-57.69,0-115.39A7.24,7.24,0,0,1,85,107c.62-2.84,2.39-5,5.57-5.23,2.81-.22,5.61-.58,8.41-.89l15-1.63c4.6-.5,9.2-1,13.81-1.46a2.38,2.38,0,0,0,1.9-1.16c1.24-2,2.79-3.7,3.72-5.94.57,3.82,1.18,7.58,1.68,11.35,1.17,8.85,2.35,17.71,3.4,26.58.78,6.67,1.4,13.37,2,20.06.69,7.35,1.26,14.72,2,22.07a146.14,146.14,0,0,0,2.5,15.68,99.14,99.14,0,0,0,8.42,23.24,16.42,16.42,0,0,0,8.93,8.37c1.29.5,2.66.81,4.06,1.22,0,1.75.05,3.58,0,5.41A4.49,4.49,0,0,0,167.7,228a10.87,10.87,0,0,0,4.18,2.74c5.06,1.94,10.12,3.88,15.22,5.74q32,11.63,63.93,23.2a10.88,10.88,0,0,0,5.34.55,3.57,3.57,0,0,0,3.25-2.7c.05-.25.11-.5.17-.77,1.79.56,3.55,1.13,5.32,1.67a3.86,3.86,0,0,0,1.26.2c1.11,0,1.5-.85,1.77-1.76v-3C268.11,253.38,268.05,252.91,268,252.44Z"/></svg>