<svg id="Layer_1" data-name="Layer 1" xmlns="http://www.w3.org/2000/svg" viewBox="0 0 300 300"><title>Tempo_Web_SVG_2</title><path d="M164.24,42.1c1.06.09,2.12.13,3.18.26A6.64,6.64,0,0,1,171.19,44a3.27,3.27,0,0,1,1.18,2.26c.18,2.9.41,5.79.58,8.69a3.9,3.9,0,0,1-2,3.63,10,10,0,0,1-4.59,1.24c-1.42.16-2.83.34-4.33.52q-7.11,47.51-14.22,95.09c.67.3.77,1.06.88,1.84q2.1,14.12,4.22,28.24,1.75,11.81,3.51,23.62,2,13.52,4.05,27,1.77,11.77,3.51,23.55c0,.22.08.42.12.64,1.52.2,3,.41,4.56.58a10.48,10.48,0,0,1,5.81,2.58c.41.35.85.71.79,1.38s-.31,1-1,1.05c-1.66.09-3.33.16-5,.22-7.31.3-14.61.11-21.9-.32a81.35,81.35,0,0,0-12.09.27c-3.42.31-6.87.45-10.3.55-3.91.12-7.82.13-11.73.16a6.52,6.52,0,0,1-1.63-.26,1.06,1.06,0,0,1-.85-1.13c0-.74,0-1.49,0-2.24a1.94,1.94,0,0,1,1.85-1.93c2.48-.29,5-.56,7.51-.84.21-1.44.43-2.87.64-4.29q1.18-8,2.36-16t2.39-16.09q1.25-8.42,2.5-16.84t2.5-16.85q1.25-8.42,2.5-16.84,1.29-8.69,2.57-17.35c0-.11.06-.25,0-.31-.85-1.13-.72-2.51-1-3.78-1.49-8.06-2.9-16.13-4.34-24.19q-2.2-12.35-4.4-24.7l-4.29-24.07-3-17c0-.23-.09-.45-.11-.56-1.36-.23-2.66-.36-3.91-.69a7,7,0,0,1-4.73-3.8c-.93-1.94-2-3.83-2.95-5.75a6.11,6.11,0,0,1-.49-4.18,3,3,0,0,1,2.21-2.51,43.78,43.78,0,0,1,5.76-1.14,296.33,296.33,0,0,1,32.5-1.34c1.17,0,2.34-.06,3.51-.1Z"/></svg>