<svg id="Layer_1" data-name="Layer 1" xmlns="http://www.w3.org/2000/svg" viewBox="0 0 300 300"><title>Tempo_Web_SVG_2</title><path d="M187.87,57.92c21.34-5.53,30.45-10.63,30.45-10.63L204.86,15.55a143.23,143.23,0,0,1-25.51,9.59,143.72,143.72,0,0,1-26.95,4l3.68,34.28S166.52,63.46,187.87,57.92Z"/><path d="M150.63,63.89l-.19-34.48a142.64,142.64,0,0,1-27.23-1,142.9,142.9,0,0,1-26.42-6.66L87,54.82s9.63,4,31.46,7.15S150.63,63.89,150.63,63.89Z"/><path d="M86.3,123.74l34.08-5.23a143.28,143.28,0,0,1-3-27.08,142.65,142.65,0,0,1,2.73-27.11L86,59.43S83.39,69.55,83.5,91.6,86.3,123.74,86.3,123.74Z"/><path d="M121.82,83.67l1,34.46a143.14,143.14,0,0,1,27.25.32,142.83,142.83,0,0,1,26.58,6l9-33.28s-9.73-3.8-31.62-6.38S121.82,83.67,121.82,83.67Z"/><path d="M178.81,125.37a143.25,143.25,0,0,1,21,17.33,143.47,143.47,0,0,1,16.94,21.35l27.88-20.28S239.46,134.71,224,119s-24.4-21.1-24.4-21.1Z"/><path d="M252.21,167.57,217.77,166a143.08,143.08,0,0,1-2.39,27.15,142.73,142.73,0,0,1-8,26l32.5,11.5s4.53-9.41,8.77-31S252.21,167.57,252.21,167.57Z"/><path d="M185.18,238.18a143.12,143.12,0,0,1-24.09,12.74L175.93,282s9.86-3.45,28.16-15.76,25.2-20.13,25.2-20.13l-23.23-25.48A143.61,143.61,0,0,1,185.18,238.18Z"/><path d="M108.1,232.67l-16,30.52s8.67,5.83,29.47,13.12,31.22,8.14,31.22,8.14l6.51-33.86a142.85,142.85,0,0,1-26.53-6.25A142.72,142.72,0,0,1,108.1,232.67Z"/><path d="M90.75,209.77a143.15,143.15,0,0,1-10.81-25L47.75,197.12s2.67,10.1,13.5,29.3,18.1,26.7,18.1,26.7L106.57,232A143.62,143.62,0,0,1,90.75,209.77Z"/></svg>