<svg id="Layer_1" data-name="Layer 1" xmlns="http://www.w3.org/2000/svg" viewBox="0 0 300 300"><title>Tempo_Web_SVG_2</title><path d="M117.37,140.13c-3.25-18.16-4.61-52.31-23.58-74.81S63.16,31,40.59,40.45c0,0-23.31,8.67-22,53.67A153.09,153.09,0,0,0,44.05,174c3.25,5.15,8.54,18,10.71,25.21s30.49,60.31,62.07,55,27.78-46.08,25.89-51.64S120.63,158.29,117.37,140.13Z"/><path d="M249.58,45.46S222.07,33.94,198,71.89c-23.36,36.74-16.13,43.37-20.47,53.54s-21.82,68.44-27,77S134.12,241,162.84,258.79c27,16.67,57.88-23.17,59.77-33.88s13.56-29.55,19.25-36.73S273,146.56,274,96.29C274.79,53.73,249.58,45.46,249.58,45.46Z"/></svg>