<svg id="Layer_1" data-name="Layer 1" xmlns="http://www.w3.org/2000/svg" viewBox="0 0 300 300"><title>Tempo_Web_SVG_2</title><path d="M255.78,151.12v2.12a4.93,4.93,0,0,0-.07.66,110.19,110.19,0,0,1-1.15,14.4,92,92,0,0,1-3.87,16.46,103.3,103.3,0,0,1-22.79,37.83c-18.09,19.19-40.16,30.54-66.52,33.26a98.91,98.91,0,0,1-18.77.05A107.53,107.53,0,0,1,124,252.58c-21.77-5.85-40.1-17.2-54.54-34.56A107.06,107.06,0,0,1,44.4,154.93a99,99,0,0,1,1.28-23.12,97.94,97.94,0,0,1,10.48-30.47,121.84,121.84,0,0,1,26-32.7,100.51,100.51,0,0,1,33.66-20.15,91.22,91.22,0,0,1,25.46-5.22l3.73-.2h1.67c2.13.15,4.26.31,6.39.45,2.3.15,4.61.25,6.9.44a116.66,116.66,0,0,1,20.42,3.46,98.1,98.1,0,0,1,31.23,14.22,96.42,96.42,0,0,1,31,35.57,118.58,118.58,0,0,1,13.1,52.86C255.71,150.42,255.75,150.77,255.78,151.12ZM78.29,147.57c0,8.86.46,13.73,1.69,19.41A63.24,63.24,0,0,0,95.75,197.2a74.13,74.13,0,0,0,21,15.53,89.08,89.08,0,0,0,30.38,9.09,44.37,44.37,0,0,0,14.85-.63,90.41,90.41,0,0,0,29.48-12.12,66.62,66.62,0,0,0,17.31-15.7c8.08-10.58,11.78-22.63,12-35.84a96.42,96.42,0,0,0-1.43-17.21,87.45,87.45,0,0,0-5.93-20.79A63.84,63.84,0,0,0,193.1,93.29c-11.3-8.5-24.16-12.83-38.16-13.91a74.37,74.37,0,0,0-17.69.85A76,76,0,0,0,110,90.08a62.34,62.34,0,0,0-27.33,33.34A76.16,76.16,0,0,0,78.29,147.57Z"/></svg>