<svg id="Layer_1" data-name="Layer 1" xmlns="http://www.w3.org/2000/svg" viewBox="0 0 300 300"><title>Tempo_Web_SVG_2</title><path d="M208.56,235.7a13.06,13.06,0,0,0-2.59-4.93,3,3,0,0,0-2-1.15c-2.13-.09-17.33-.24-18.51-.15a1.82,1.82,0,0,0-1.85,1.48c0,.09-.06.16,0,.1a22,22,0,0,0-2.29.22,1.61,1.61,0,0,0-1.26,1.65c-2.48-.34-4.46.74-4.82,2.77l-48-.21c0-.22,1-34.42,1-36.9s.19-4.84.29-7.26c.13-3,.24-6,.38-8.95.08-1.85.21-3.7.31-5.55.06-1.09.1-2.18.16-3.27,0-.8.12-1.59.17-2.39.09-1.43.16-2.86.27-4.29.08-1.16.45-5.75.57-6.88.22-2,1.14-9.28,1.37-10.87.26-1.76.55-3.52.83-5.27s.6-3.77.93-5.64c.47-2.7,1-5.4,1.46-8.09.66-3.53,1.33-7.06,2-10.58.51-2.52,6.25-26.61,6.94-28.91,1.83-6.12,3.61-12.25,5-18.49.7-3.18,1.32-6.38,1.89-9.58.41-2.29.72-4.59,1-6.89.22-1.77.43-3.54.5-5.32.09-2.14.12-4.3,0-6.44a24.85,24.85,0,0,0-.7-5.17,24.26,24.26,0,0,0-7.48-12.14c-3.59-3.2-7.93-4.86-12.51-6a26.92,26.92,0,0,0-4.92-.62c-2.63-.16-5.27-.25-7.91-.25a43.21,43.21,0,0,0-11,1.36,26.31,26.31,0,0,0-11.53,5.82,17.27,17.27,0,0,0-5.15,8.32,49.51,49.51,0,0,0-1.49,10.48c-.12,2.31-.12,4.63,0,6.94.11,3.09.28,6.19.58,9.27s.76,6.31,1.27,9.45c.72,4.44,1.53,8.86,2.34,13.28.51,2.75,1.14,5.47,1.64,8.22.29,1.57.45,3.16.65,4.74.13,1,.23,2,.35,3s.29,2.25.43,3.37.29,2.14.41,3.2.23,2.19.35,3.28.23,2.15.35,3.22c.17,1.45.36,2.9.52,4.35.13,1.17.22,2.33.35,3.5s.3,2.43.43,3.64.23,2.23.34,3.35.28,2.47.41,3.71c.09.86.16,1.72.25,2.58.14,1.2.3,2.4.42,3.6s.22,2.48.35,3.72c.16,1.58.35,3.16.52,4.74.14,1.31.29,2.62.41,3.93.16,1.77.31,3.54.46,5.31.08.94.52,5.28.65,6.52s.28,2.72.41,4.08c.21,2.21.42,4.41.62,6.62.12,1.42.21,2.85.32,4.28.17,2.09,1.46,36.9,1.48,41.89,0,2.14,0,6.72,0,6.82-.63.16-1.21.28-1.78.47a2,2,0,0,0-1.38,2c0,.3-.13,46.46-.16,47.29,0,0-.24,4,1.91,4.12,2,.08,18.45,0,19.24,0a3.43,3.43,0,0,0,3.25-1.71,2.26,2.26,0,0,0,.32-1.07q0-3.79,0-7.59c0-.52.11-.72.69-.72,3.66,0,43.29-.21,46.86-.24a.57.57,0,0,1,.6.39,5.26,5.26,0,0,0,1.67,2.3,4.36,4.36,0,0,0,2.67.81.74.74,0,0,1,.7.37,5.9,5.9,0,0,0,1.42,1.52,5.28,5.28,0,0,0,1.92.49,9.38,9.38,0,0,0,1.41,0c.75,1.64,2.23,2,3.83,2.06,5.48.07,16.38.18,16.81.07,1.52-.38,2-1.92,2.32-3.38a93.88,93.88,0,0,0,2.2-20A75,75,0,0,0,208.56,235.7Z"/></svg>