<svg id="Layer_1" data-name="Layer 1" xmlns="http://www.w3.org/2000/svg" viewBox="0 0 300 300"><title>Tempo_Web_SVG_2</title><path d="M228.88,193.07a12.32,12.32,0,0,0-1.21-.24c-4.31-.57-8.61-1.19-12.93-1.66s-8.52-.79-12.78-1.16l-11.37-1-12.79-1c-2.11-.16-4.22-.29-6.33-.44,0-.05,0-.09,0-.12l.18-.42a31.18,31.18,0,0,0,2.83-12.29c.05-4.62,0-9.23-.09-13.84-.12-7.07-.3-14.14-.46-21.21q-.18-7.85-.39-15.69-.24-9.06-.51-18.11-.2-7.14-.41-14.29c-.17-5.41-.36-10.83-.53-16.25-.15-4.87-.35-9.74-1-14.58Q170,52,168.9,43.3a12.15,12.15,0,0,0-1.59-5.5.87.87,0,0,1,0-.58,4.64,4.64,0,0,0-.35-3.39c-1.06-2-2.12-4-3.16-6a1.59,1.59,0,0,0-1-.83c-.12,0-.28-.12-.32-.23a1.75,1.75,0,0,0-1.52-1.16c-1.87-.31-3.74-.59-5.62-.86a1.24,1.24,0,0,0-1.55.93,2.94,2.94,0,0,0-3.39.66,11.37,11.37,0,0,0-1.31,1.61q-5.23,7.44-10.45,14.89Q113,79.49,88,116.63c-6,9-12,17.93-17.47,27.2-1.21,2-2.21,4.21-3.31,6.31a2.41,2.41,0,0,0,.38,2.77.59.59,0,0,1,0,.71c-.7,1.42-1.38,2.86-2.09,4.29a4.09,4.09,0,0,0-.23,3.16,5.61,5.61,0,0,1,.35,1.24c.18,2.54.36,5.09.46,7.63a7.57,7.57,0,0,1-.32,2.15,3.12,3.12,0,0,0,.35,2.69c.68,1,1.32,2.05,2,3.05a13.13,13.13,0,0,0,3.68,3.89.64.64,0,0,1,.2.2,12.79,12.79,0,0,0,5.38,4.21,12,12,0,0,1,1.93,1.13,53.06,53.06,0,0,0,12.87,7.27A183.27,183.27,0,0,0,113.87,201a103.61,103.61,0,0,0,12.71,2.32c2.83.3,5.68.51,8.52.68q9.54.6,19.1,1.12,8.06.45,16.12.82c7.27.33,14.54.63,21.81.94a30.6,30.6,0,0,0,6.34-.3A158.14,158.14,0,0,0,215,202.72a95.48,95.48,0,0,0,11.74-4,7.24,7.24,0,0,0,3.87-3.71c0-.27,0-.53,0-.79A2.68,2.68,0,0,0,228.88,193.07Zm-68.56-6.47c-7.27-.22-14.54-.46-21.81-.67a28.92,28.92,0,0,0-3.09.14c-1.28.09-1.56.57-1.07,1.78-1.5-.09-3-.18-4.49-.29-3.11-.21-6.21-.43-9.32-.63a.86.86,0,0,1-.78-.42c-.12-.19-.3-.35-.4-.55a3.35,3.35,0,0,0-2.68-1.7l-3.15-.53c14.95-23.2,30.31-46.14,44.51-69.92,0,1.09,0,2.14,0,3.2q.18,20.86.39,41.74c0,4.46,0,8.92.16,13.38a23.07,23.07,0,0,0,3.19,10.72c.69,1.22,1.54,2.35,2.32,3.52l.2.28C163,186.63,161.64,186.64,160.32,186.6Z"/><path d="M196,234.29q-5.22-7-10.48-14a1.51,1.51,0,0,0-.75-.51q-8.23-2.53-16.49-5a1.49,1.49,0,0,0-.91,0q-7.92,2.79-15.82,5.62a2,2,0,0,0-.82.62q-4.92,6.84-9.81,13.72a1.88,1.88,0,0,0-.32,1.08q.12,9.22.32,18.44a1.52,1.52,0,0,0,.3.81q5.14,7,10.32,14a1.65,1.65,0,0,0,.79.55c4.86,1.58,9.73,3.13,14.59,4.7.87.28,1.72.6,2.58.9h.33l.51-.23,16.24-6a1.75,1.75,0,0,0,.93-.74c3.14-5,6.31-10,9.45-15a1.93,1.93,0,0,0,.3-1.09q-.47-8.62-1-17.24A1.51,1.51,0,0,0,196,234.29Z"/></svg>