<svg id="Layer_1" data-name="Layer 1" xmlns="http://www.w3.org/2000/svg" viewBox="0 0 300 300"><title>Tempo_Web_SVG_2</title><polygon points="117.55 149.2 131.91 166.17 232.76 166.17 180.46 264.9 189.7 283.45 260.98 149.2 117.55 149.2"/><path d="M191.64,198.37v-1.06L184,184.88a72.27,72.27,0,1,1,21.61-98.77l12.74-8.41.52-.34L227.84,52l-24.57,7.73c-.83-.75-1.68-1.49-2.54-2.22l.07-.08.65-26.89L181.12,45c-1.36-.62-2.73-1.22-4.12-1.78L169.59,18.4,155.36,37.62q-2.76-.36-5.56-.52L135.62,16.55,128.3,38.39q-3.33.61-6.59,1.48L102.79,25.41l-.2,22.07q-3.45,1.88-6.7,4L74.22,43.89l6.44,20.44q-3,3.18-5.7,6.65l-22-.53L65,87.32A86.37,86.37,0,0,0,61.44,96l-20.75,6.19,16.56,12.27a88.06,88.06,0,0,0-.58,9.66L39,136.3l19.56,6.55a86.3,86.3,0,0,0,2.42,9L47.76,169.18l21.21.19a87.5,87.5,0,0,0,4.91,7.38L66.65,197.3,87,190.89q3.17,2.75,6.59,5.17l-.55,22.7,18.21-13q3.19,1.29,6.49,2.34l6.91,23.15,14.23-19.21c1.76.1,3.53.16,5.32.16l14.42,20.89,8-23.74c1.41-.37,2.81-.78,4.19-1.21l20.62,15.75Z"/></svg>