<svg id="Layer_1" data-name="Layer 1" xmlns="http://www.w3.org/2000/svg" viewBox="0 0 300 450"><title>Tempo_Web_SVG_2</title><path d="M175.26,133.29s34.26-24,36.48-49.83-4.89-50.28-8.9-56.07-15.72-15-37.15-13.72c0,0-10.38.15-8.9,11.13a19.25,19.25,0,0,0,10.38,14.83s15.28,5.78,26.26,16.91c0,0-9.94,25.95-40.64,54.43,0,0-9.2,7-1.34,18.39,0,0-6.08,1-4.15,9s8.31,16.76,19.58,27.29A81.48,81.48,0,0,1,183.64,188s7.71,44.49-31.45,110.49-67.63,92.85-67.63,92.85S65,409.53,73,423.33s27.59,20.46,47.61.89S194,346.35,211.82,272,188.61,145.31,175.26,133.29Z"/></svg>