<svg id="Layer_1" data-name="Layer 1" xmlns="http://www.w3.org/2000/svg" viewBox="0 0 300 300"><title>Tempo_Web_SVG_2</title><path d="M229.87,66.59c-1.12-7.38-3.44-13.26-7.09-18-4.9-6.34-12.14-10.37-18.53-13.93-4.33-2.41-9.24-5.14-14.21-7.39a65.14,65.14,0,0,0-15.33-5,63.08,63.08,0,0,0-16.92-.57A91.16,91.16,0,0,0,87.71,66.6C83,75,80.74,82.36,80.94,89.25c.2,6.57,2.65,12.81,4.76,17.51,2.93,6.51,7.81,15.79,16.29,21.22,5.48,3.52,12.13,5.32,20.32,5.52,7.1.17,14.37-.85,21.39-1.83l.76-.11c5.51-.77,13.71-1.7,21.26-.85s13.52,3.33,18,7.54A31.08,31.08,0,0,1,191,149.41a107,107,0,0,1,4.18,13.65c.67,2.59,1.36,5.26,2.14,7.83,2.65,8.77,6.67,17.12,10.56,25.21a215,215,0,0,1,8.85,20.11,69.27,69.27,0,0,1,4.39,23.9c-.1,8.64-2.3,16.05-6.55,22A32.27,32.27,0,0,1,194.32,275c-6.59,1.22-13.51.33-20.21-.53-2.67-.34-5.43-.7-8.16-.92-8.53-.7-17.18-.12-25.53.44-6.74.45-13.7.91-20.52.7a67.43,67.43,0,0,1-22.26-4.26c-7.49-2.95-13.28-7.28-17.23-12.88-3.2-4.55-5.42-10.2-7-17.78-1-4.85-2.07-12,.09-18.51,2.09-6.25,7-11.41,11.34-16l13.3-14L96,189.32l-13.3,14c-4.55,4.78-9.71,10.19-12,17.08-2.39,7.15-1.25,14.87-.18,20.05,1.64,8,4,14,7.46,18.89,4.29,6.09,10.54,10.78,18.57,13.95a70.56,70.56,0,0,0,23.27,4.46c7,.22,14-.25,20.8-.7,8.25-.56,16.78-1.12,25.1-.45,2.66.22,5.38.57,8,.91a106.58,106.58,0,0,0,13.53,1.16,42.43,42.43,0,0,0,7.61-.65A35.26,35.26,0,0,0,217,263.87c4.61-6.49,7-14.47,7.11-23.72a72.35,72.35,0,0,0-4.57-25,218.26,218.26,0,0,0-9-20.4c-3.84-8-7.81-16.23-10.4-24.78-.76-2.51-1.44-5.15-2.1-7.71-2.47-9.53-5-19.38-12.27-26.23a29,29,0,0,0-9.17-5.79,40.55,40.55,0,0,0-10.52-2.54c-7.8-.88-15.86,0-22,.85l-.76.11c-6.91,1-14,2-20.9,1.8-7.64-.18-13.79-1.83-18.79-5-5.94-3.81-10.76-10.15-15.17-19.94-2-4.45-4.33-10.32-4.5-16.37-.19-6.33,1.9-13.22,6.38-21.08a88.2,88.2,0,0,1,67.74-43.42,60.09,60.09,0,0,1,16.13.54c10.26,1.86,19.59,7.05,28.62,12.07,6.14,3.42,13.1,7.29,17.62,13.14,3.33,4.33,5.46,9.76,6.49,16.62a112.14,112.14,0,0,1,.74,19l3,.07A115.45,115.45,0,0,0,229.87,66.59Z"/></svg>