<svg id="Layer_1" data-name="Layer 1" xmlns="http://www.w3.org/2000/svg" viewBox="0 0 300 450"><title>Tempo_Web_SVG_2</title><path d="M256.12,306.9a118.83,118.83,0,0,0-3.13-17,59.47,59.47,0,0,0-11.1-21.51c-7.58-9.53-16.06-18.14-26.2-25a67.85,67.85,0,0,0-15.55-7.75c-7.36-2.59-14.71-5.26-22.45-6.44-5.37-.82-10.78-1.37-16.19-1.87-3.45-.32-6.93-.34-10.4-.5a3.5,3.5,0,0,1-.41,0c3.36-.69,6.7-1.26,10-2.1a92.39,92.39,0,0,0,10.71-3.24,52.43,52.43,0,0,0,7.89-4.2c7.47-4.53,15-9,22.32-13.77a160,160,0,0,0,18.79-14.21,64.21,64.21,0,0,0,14.38-18.62,78.47,78.47,0,0,1,7.39-10.75c2.61-3.42,5-7,7.38-10.59a40.87,40.87,0,0,0,6.41-18.67,50.25,50.25,0,0,0-6-29.52A15.54,15.54,0,0,0,246.79,97c-4.09-3.83-8-7.87-12.21-11.54-8.29-7.19-18-11.62-28.65-14.18a158.35,158.35,0,0,0-18.45-3.52,89,89,0,0,0-20.31-.25,141.15,141.15,0,0,0-48.25,14.24,125,125,0,0,0-37.1,28.39c-4.53,5-9.25,9.93-13.73,15a47.8,47.8,0,0,0-10,16.93,27.46,27.46,0,0,0-1.57,9.81c.25,4.76.25,9.53.53,14.28a26.18,26.18,0,0,0,3.65,12.09A143.62,143.62,0,0,0,72.57,195.8,103.24,103.24,0,0,0,85,208a90.15,90.15,0,0,0,16.9,11.67,64.12,64.12,0,0,0,15.46,5.25,83.36,83.36,0,0,0,14.4,2.28s.09,0,0,0c-4,.79-8,1.55-12.09,2.41a80.19,80.19,0,0,0-20.53,7.78,23.49,23.49,0,0,0-4.61,3.35,27.05,27.05,0,0,1-9.71,5.47c-7.53,2.52-14,6.75-20,11.83A35.73,35.73,0,0,0,56.2,268.8a69.86,69.86,0,0,0-7.38,21.07A59.14,59.14,0,0,0,48.24,300a68.61,68.61,0,0,0,1.7,15.78,97.5,97.5,0,0,0,7.33,19.61A88.69,88.69,0,0,0,69.82,355a98,98,0,0,0,16.45,14.74A164,164,0,0,0,114,386.21,75.43,75.43,0,0,0,129,390.86a230,230,0,0,0,28.82,4.64c3.35.33,6.71.48,10.07.72.37,0,.74.09,1.11.13h8.4l3.77-.32a95.66,95.66,0,0,0,29-6.79,29.77,29.77,0,0,0,5.15-3c6-4.12,11.82-8.36,17.79-12.46a30.25,30.25,0,0,0,7.37-7.17c6.33-8.68,11.42-18,14-28.49a90.06,90.06,0,0,0,1.86-11.21,85.27,85.27,0,0,0,.63-10.71A86.26,86.26,0,0,0,256.12,306.9Z"/></svg>