<svg id="Layer_1" data-name="Layer 1" xmlns="http://www.w3.org/2000/svg" viewBox="0 0 300 300"><title>Tempo_Web_SVG_2</title><path d="M249.63,161.8c-.35-4.55-2.22-9.19-5.93-11.84-6.8-4.86-16.36-1.4-24.49-3.36-8.5-2-14.44-9.76-22.45-13.29a8.2,8.2,0,0,0-3.71-.88,7.6,7.6,0,0,0-3.64,1.36c-4.45,2.85-7.25,7.79-8.46,12.93-3.12,13.24,4.7,28.18,17.36,33.15-4.85,4.75-5.64,14.58-4.48,21.27-15.45-2.1-32.29-3.42-47,2.34-3.21-9.1-8.58-24.32-15.25-31.29a67.36,67.36,0,0,1-8.39-18.72c-2.86-10.44-2.8-22.61,4.08-31a52.74,52.74,0,0,1,7.22-6.7c7.38-6.16,14.43-13.28,17.71-22.32a33,33,0,0,0,.34-21.38c6.53,6.44,16.87,7.1,25.9,5.46,2-.37,5-2.06,5.25-4.12a51,51,0,0,0,17.09,17.74c6.52,4.08,14.5,6.69,22,4.76s13.7-9.53,12.09-17.06a24.32,24.32,0,0,0-3.38-7.36L219.12,51c-2.36-3.93-4.78-7.92-8.21-11-4.86-4.3-11.28-6.3-17.54-8q-11.9-3.22-24-5.53c-5.91-1.13-12.37-2-17.67.83-4.17-2.69-8.5-5.28-13.3-6.52s-10.19-1-14.36,1.68c-3.93,2.54-6.29,6.86-8.46,11q-15.48,29.57-29.27,60a96,96,0,0,1-7.18,13.89c-7.3,11-19.12,18.68-25.06,30.45a37.15,37.15,0,0,0,3.17,37.87c10.7,14.55,9.66,35.46,18.53,51.19a53.7,53.7,0,0,0,37,26.13c3,.52,6,.79,8.88,1.82a27.37,27.37,0,0,1,8.63,5.53c6.75,6,12.45,13.53,20.71,17.12,10.52,4.57,22.61,1.66,33.69-1.31,7.66-2.05,14.31-5.06,21.83-7.6,11-3.73,23-8.27,28.52-18.5,3.67-6.82,3.7-14.92,4.19-22.65,1.11-17.6,5-34.88,8.82-52.1C249,170.88,250,166.35,249.63,161.8Z"/></svg>