<svg id="Layer_1" data-name="Layer 1" xmlns="http://www.w3.org/2000/svg" viewBox="0 0 300 300"><title>Tempo_Web_SVG_2</title><path d="M103.74,51.89c4.88,0,104.35-3.06,108.58-3.18v-3c-4.23-.13-103.7-3.19-108.58-3.19-4.08,0-7.14-3.88-7.16-3.92l-2.7.91V54.9l2.7.91S99.62,51.89,103.74,51.89Z"/><path d="M228.18,224a8.39,8.39,0,0,0-5.42,2h0c-5.42,3-13.82,2.44-13.82,2.44H146.35a33.24,33.24,0,0,1-12.94-3,14.1,14.1,0,1,0,0,13.89,33.24,33.24,0,0,1,12.94-3h62.59s8.4-.54,13.82,2.44h0A8.4,8.4,0,1,0,228.18,224Z"/><path d="M101.68,142.25v0H163s31.56.87,37.65,2.81c0,0,5.23.09,5.23-5.71s-5.23-5.71-5.23-5.71c-6.09,1.93-37.65,2.8-37.65,2.8h-61.8c-.23-2.86-.49-6.51-.67-10.29-.4-8.39-3.34-9.86-3.34-9.86H89.28V60l-2.93-5.46V48.4l-2.27-4-2.27,4v6.13L78.88,60v56.26H71s-2.94,1.47-3.34,9.86-1.2,16.14-1.2,16.14,4.8,8.53,4.8,16.66-7.86,23.19-7.86,50.39S66,260.49,84.08,260.49s20.66-24,20.66-51.19S96.88,167,96.88,158.91,101.68,142.25,101.68,142.25Z"/></svg>