<svg id="Layer_1" data-name="Layer 1" xmlns="http://www.w3.org/2000/svg" viewBox="0 0 300 300"><title>Tempo_Web_SVG_2</title><circle cx="91.16" cy="67.58" r="30.08" transform="translate(-13.09 22.75) rotate(-13.28)"/><circle cx="223.42" cy="108.95" r="30.08" transform="translate(-23.91 133.73) rotate(-31.72)"/><path d="M228.28,172a30.08,30.08,0,0,0-49.16-23.25,30.53,30.53,0,0,0,.3-4.2,30.09,30.09,0,1,0-11,23.25,30.54,30.54,0,0,0-.29,4.2,30.08,30.08,0,1,0,60.15,0Z"/><circle cx="219.88" cy="232.42" r="30.08" transform="translate(-72.21 101.83) rotate(-22.5)"/><path d="M105.39,162.76a30.07,30.07,0,1,0-33.06,4.3A30,30,0,0,0,62,189.73a30.28,30.28,0,0,0,.88,7.24,30.1,30.1,0,1,0,42.89,19.54,30.08,30.08,0,0,0-.38-53.75Z"/></svg>