<svg id="Layer_1" data-name="Layer 1" xmlns="http://www.w3.org/2000/svg" viewBox="0 0 300 300"><title>Tempo_Web_SVG_2</title><path d="M226.41,120.44C226.41,95.7,229,93.88,229,63s-5.46-39.66-5.46-39.66H76.5S71,32,71,63s2.55,32.75,2.55,57.49h66.24v1.64l-7.27,8.3,2.29,11.83s-2.7,23.87-2.7,46.08,4.57,61.23,4.57,61.23a69.34,69.34,0,0,1,.83,8.51c0,3.32-2.91,11-4.15,12.87l.83,5.81h31.54l.83-5.81c-1.24-1.87-4.15-9.55-4.15-12.87a69.34,69.34,0,0,1,.83-8.51s4.57-39,4.57-61.23-2.7-46.08-2.7-46.08l2.29-11.83-7.27-8.3v-1.64Z"/></svg>