<svg id="Layer_1" data-name="Layer 1" xmlns="http://www.w3.org/2000/svg" viewBox="0 0 300 450"><title>Tempo_Web_SVG_2</title><path d="M235.67,90.89c-1.06-11.21-6.78-11.11-6.78-11.11H108.52a139.3,139.3,0,0,0-5-16.36c-5.14-16-12.16-25.92-19.41-25.54-13,.67-21.78,34.07-19.69,74.61s14.29,72.86,27.26,72.19c8.43-.43,15.11-14.74,18.17-35.84,3,.07,53.84,1.31,71.6,3,18.31,1.69,20.53,16.29,20.53,16.29,4.66,96.73-24.55,188.69-24.55,188.69C137.2,384.61,90.1,384.29,90.1,384.29s-11,6.35-13.54,14.29,1.11,13.17,1.11,13.17S121,415.14,159.9,401.6s39.79-30.16,57.35-98.21S236.73,102.11,235.67,90.89Z"/></svg>