<svg id="Layer_1" data-name="Layer 1" xmlns="http://www.w3.org/2000/svg" viewBox="0 0 300 300"><title>Tempo_Web_SVG_2</title><path d="M263.14,131.61c-3.92,2-55.32,10.4-61,10.4s-22.16,5.43-22.16,5.43c-7.39-2.72-14.32,2.41-14.32,2.41s-10.1,0-16.28.75-6.49,1.51-6.49,1.51l-.45-7.39c2-1.2,2.41-10.85,2.41-10.85s1.51-6.93,1.51-20.8S149,69.65,149,69.65s.75-13.87-4.68-24.42S104.1,16.29,79.68,28.65s-21.25,22-21.25,22A18.35,18.35,0,0,1,55.71,62,14.43,14.43,0,0,0,53,71.61S15.46,207.44,26.32,233.06s34.82,39.05,74.32,41.76,155.57-3.92,155.57-3.92,1.2-3-.76-10.4-.45-38.29-1.5-44.92,1.05-38.29,3-45.68,8.14-15.53,10.85-17.34,7.84-24.42,7.84-24.42S267.06,129.65,263.14,131.61Z"/></svg>