<svg id="Layer_1" data-name="Layer 1" xmlns="http://www.w3.org/2000/svg" viewBox="0 0 300 300"><title>Tempo_Web_SVG_2</title><path d="M270.86,155.1l-28.21-2.57L173.57,157c.28-13.37.51-24.9.6-29.85.26-15.46-10.48-14.72-10.48-14.72l-4.78-.06s-10.7-1.09-10.94,14.37c-.08,5.21-.23,17.69-.39,31.94l-11.48.74-2-2.78c-18.79-2.5-42.29,5.6-42.29,5.6L90.37,168l2.14,5.57s24.29,5.25,42.65.54l1.64-3,10.65-.58c-.28,25.1-.55,51-.55,51s-.93,13.07-10.44,18.83c0,0-.74,2.13,1.53,5.41.65.93,2.2,2.76,4.1,4.92a17.78,17.78,0,0,0-.18,1.79,17.07,17.07,0,1,0,34.1,1.72,16.84,16.84,0,0,0-.09-2.85c2-2.15,3.69-4,4.37-4.91,2.39-3.21,1.71-5.36,1.71-5.36-9.32-6.07-9.83-19.16-9.83-19.16s.59-27.17,1.14-52.81l70.1-3.82,27.71-5.9,1.31-2.25Z"/><path d="M102,133.56a3,3,0,0,0,4.31-.11L182.85,53a3,3,0,0,0-.11-4.31l-1.26-1.2,10.7-11.26-2.63-5.49-5.27-1.14L174,40.35a3,3,0,0,0-4.19.22L93.29,121.06a3,3,0,0,0,.11,4.31Z"/><path d="M87.25,130.71a11.87,11.87,0,0,0-16.66-2.18L32.21,158.05A11.87,11.87,0,0,0,30,174.7h0a12.16,12.16,0,0,0,1.12,1.24,11.86,11.86,0,0,0,11.67,7.26l39.65-2.47L81,157l-9.23.58,13.29-10.23a11.87,11.87,0,0,0,2.18-16.65Z"/></svg>