<svg id="Layer_1" data-name="Layer 1" xmlns="http://www.w3.org/2000/svg" viewBox="0 0 300 300"><title>Tempo_Web_SVG_2</title><path d="M93.89,120.54l1.86-7.05L90.18,112l1.49-23.38L79.56,80.77l-.51-56.38H46.38V85.27L39,96.41l1.49,40.47L30.43,148l14.1,13.36-1.86,33.05L39,198.51l2.6,25.62-3.71,18.93,3.34,10.4-3.34,10.39,4.82,16.34L61.6,286.5,95,276.1s1.48-39.72.37-50.86l5.19-7.05-11.5-47.9s9.65-33,15.59-40.84Z"/><path d="M255.84,54.71,236.91,25.38,185.32,13.5,140.78,32.43,122.23,52.11,107.75,80l-4.3,23.34L111.09,142l24.13,20.79L188.29,175l25.61-3L251,152l18.18-35.27.37-17.82ZM228.75,152s-22.64,25.25-50.85,14.11-41.57-20.42-41.57-20.42l7.79-8.17,5.94-31.93S156,74,182,54s46-6.68,46-6.68L236.54,54s14.11,12.62,16.33,41.58S228.75,152,228.75,152Z"/><polygon points="222.21 242.37 155.06 179.87 148.58 186.84 215.73 249.34 211.35 254.05 246.21 286.5 261.59 269.97 226.72 237.52 222.21 242.37"/></svg>