<svg id="Layer_1" data-name="Layer 1" xmlns="http://www.w3.org/2000/svg" viewBox="0 0 300 300"><defs><style>.cls-1{fill:#080907;}</style></defs><title>Tempo_Web_SVG_2</title><path class="cls-1" d="M237.12,253.79C230.75,238,191.78,18.16,191.78,18.16A5.66,5.66,0,0,0,183.72,16c-5.44,2.91-3.75,9.84-3.75,9.84-7.08,11.14-39.57,107.86-61,173-1.18-5.94-4.8-24.06-6.75-31.52-2.34-9-11.71-8.25-11.71-8.25l-8.52.75a11.15,11.15,0,0,0-8.81,5.06s-22.58,45.54-25.77,51.91S55.78,227,55.78,227L78.59,213.5l16.78-30.82,11.47,52.91c-4.55,14-7.35,22.61-7.35,22.61l2.06,1.12,5.53-8.34-2.91,9.65,1.6.66L122,238.71l-7.21,28.48,2,.47C120,256,136.87,221,136.87,221c6.37-34.76,49-151.41,49-151.41l21.46,168.93,13.4,46,2,.38-4.77-36.54,13.3,25.2c3.47,1.78,6.84,7.87,6.84,7.87l6.56-3.56S243.49,269.63,237.12,253.79Z"/></svg>