<svg id="Layer_1" data-name="Layer 1" xmlns="http://www.w3.org/2000/svg" viewBox="0 0 300 450"><title>Tempo_Web_SVG_2</title><path d="M197.88,252.42a57,57,0,0,0-53.27,37.86l-3.86-132.36a57,57,0,1,0-1.08-37L137.8,56.67C134.16,47,112.11,49.07,105,50s-18.07.13-24-.67-8.61.48-8.61.48l0,4.62c-2.62.12-11.26-3.6-11.26-3.6-.19,2.94-.37,8.41-.37,8.41a47.37,47.37,0,0,1-9-1.41l-6.95-2c-.19,2.73.71,11.13.72,13s.13,49.59.16,53.37-.66,57.8-.2,63.05,1,53.58,1.26,61.77,2.88,51.67,2.37,68.49,4.46,68.68,4.46,68.68C54.28,394.83,56,399,56,399c2.1-.23,7.54-3.84,11.31-6.39s14.25-5.77,14.25-5.77l.46,5.67c.85,1.26,1.79.94,1.79.94l.24,4.41c.44,2.31,3.79,1.86,3.79,1.86s11.76-1.13,18.7-1.18,8,1.42,23.76,2.36,17.14-13.78,17.14-13.78l-1.62-55.62a57,57,0,1,0,52.07-79.11Z"/></svg>