<svg id="Layer_1" data-name="Layer 1" xmlns="http://www.w3.org/2000/svg" viewBox="0 0 300 348"><title>Tempo_Web_SVG_2</title><path d="M224.18,198c-2-8.71-13.47-43.84-25.72-72.28s-43.93-85-43.93-85c-.51-.91-2.33-3.34-4.86-1.92-2.76,1.55-1.31,4.35-1.11,4.76,0,0,45.65,93,49.8,103.56s1.22,28.85,1.22,28.85C193.2,216.48,153.92,212,139.85,209s-49.3-28-49.3-28c-11.84-16.81,0-46.87,0-46.87,5.87-13.16,27.54-47.27,34.42-56.89s19.44-31,19.44-31a2.18,2.18,0,0,0-.91-3.14c-1.89-1-3,1-3,1-3.09,4.6-13.21,19.79-27.59,40.44S80.78,138.69,74.2,166.22,62.56,247.41,60.94,258s-7.69,35.54-7.69,35.54c3.19,3.19,9.82,5.06,9.82,5.06s3.44-39,7.39-78.25,11.13-66.31,11.13-66.31c-.5,22.27,5.88,39,33.21,50.92s79,19.64,79,19.64c2.63.3,3.74-3.44,3.74-3.44-3.32-.52-42.56-7.19-48.37-8.18a55.61,55.61,0,0,0,39.67-10.15C208.43,188.59,202.56,152,202.56,152,207.62,167,220.28,215,223.72,230.2s14,79.51,14,79.51l9-3.14C241.49,292.3,226.2,206.66,224.18,198Z"/></svg>