<svg id="Layer_1" data-name="Layer 1" xmlns="http://www.w3.org/2000/svg" viewBox="0 0 300 300"><title>Tempo_Web_SVG_2</title><path d="M208.89,28.71a11,11,0,0,0-14.73-3c-10.45,7.65-.07,17.74-.07,17.74s-10.3,10.42.47,17.72a11.06,11.06,0,0,0,14.72-3.53c5.57-7.53,4.62-11.06,11.72-14.7C213.83,39.56,214.66,36,208.89,28.71Z"/><path d="M162.2,51.1c12.44,0,22.53-3.48,22.53-7.77s-10.09-7.76-22.53-7.76-22.53,3.48-22.53,7.76S149.75,51.1,162.2,51.1Z"/><circle cx="115.68" cy="43.33" r="18.88" transform="translate(-3.71 11.61) rotate(-5.65)"/><path d="M84.4,33.54a5.4,5.4,0,0,0-5.4,5.4v66.71a5.4,5.4,0,0,0,3.4,5V213.2c-1.21,5.8-2,16.68-2,29.15,0,18.56,1.8,33.61,4,33.61s4-15,4-33.61c0-12.47-.82-23.35-2-29.15V110.66a5.4,5.4,0,0,0,3.4-5V38.94A5.4,5.4,0,0,0,84.4,33.54Z"/><path d="M199.78,129.08H108.65A11.86,11.86,0,0,0,96.8,140.93h0a11.86,11.86,0,0,0,11.85,11.85h91.13a11.86,11.86,0,0,0,11.85-11.85h0A11.86,11.86,0,0,0,199.78,129.08Z"/></svg>