<svg id="Layer_1" data-name="Layer 1" xmlns="http://www.w3.org/2000/svg" viewBox="0 0 300 300"><title>Tempo_Web_SVG_2</title><path d="M116.52,30.88,105.92,176.5s-4.82,66.71-47.31,66.24c-44.86-.5-30.14-93.25-29.19-97.89s22.8-90.08,26.87-98.69c0,0-15.7,8.8-24.41,29.52,0,0-18.15,80.15-17.93,112,.24,33.54,9,63,43.48,70.26,39.88,8.37,55.45-41.83,57.34-62.27,0,0-9.77,57.94,24.6,72.39,50.29,21.15,84.78-20.06,109.2-71.16a678.26,678.26,0,0,0,37.18-96.23s2.51-12.06-7-27.44c0,0-19,68.46-32.69,95.9s-38.75,95.51-88.61,89c-51-6.67-23.61-159-17.6-226.14,0,0,.47-4.92-11-5.59C119.2,25.82,116.76,27.61,116.52,30.88Z"/></svg>