<svg id="Layer_1" data-name="Layer 1" xmlns="http://www.w3.org/2000/svg" viewBox="0 0 300 300"><title>Tempo_Web_SVG_2</title><path d="M49.86,135.88c-3.93-5.67-3.71-21.6-3.71-21.6v-72c.28-.27-10.38,0-10.38,0v72s.22,15.93-3.7,21.6c0,0-4.58,4.36-4.58,12.65s4.58,12.65,4.58,12.65c3.92,5.67,3.7,21.6,3.7,21.6v97.43c-.27.27,10.38,0,10.38,0V182.78s-.22-15.93,3.71-21.6c0,0,4.58-4.36,4.58-12.65S49.86,135.88,49.86,135.88Z"/><path d="M174.76,20.4C127.81,15.43,85,37,67.3,47.38c-5.15,3-7,5.53-7,5.53a36.41,36.41,0,0,0-1.64,22.93C62,88.27,68.85,93.2,76.81,90c6.93-2.8,25.52-10.36,31-12.59,7.69-3.08,21.43-8.57,27.16-10.89,8-3.21,9.49-11.53,3.29-22.81a34.74,34.74,0,0,0-8.35-10,92.93,92.93,0,0,1,21.66-3c37.46,0,100.61,25.69,100.61,81.7s-35,90.28-76,90.28c-17.93,0-38.24-10.74-57.43-25a34.77,34.77,0,0,0,11.36-6.46c9.75-8.4,11.23-16.73,4.88-22.52-5.52-5-20.37-18.52-24.76-22.5-6.1-5.6-17-15.61-21.56-19.78-6.35-5.79-14.51-3.57-22,6.91a36.46,36.46,0,0,0-6.47,21.92v.14h0a2.31,2.31,0,0,0,.49,1.12c11.88,16,60.3,73.71,116.69,73.71,65.64,0,95.1-44.26,95.1-92.06S235.41,26.83,174.76,20.4Z"/></svg>