<svg id="Layer_1" data-name="Layer 1" xmlns="http://www.w3.org/2000/svg" viewBox="0 0 300 450"><title>Tempo_Web_SVG_2</title><path d="M274.09,95.44c-4.71-7.09-11.77-7.85-18.47-5.09a23.68,23.68,0,0,0-11.48,9.53A1513,1513,0,0,0,83.06,200.14c-2.4-.24-6.7-2.57-9.08-15.38C70,163.06,56.19,68,55.62,60.59S59.2,54.8,59.2,54.8l-.69-10.53c-.87-10-11.41-8.34-11.41-8.34s-9.19.71-11.36,12.37-5.27,143.22,15.9,183.26C35,253.71,26.94,329.09,24.84,360.79s0,49.77,9.32,52.23C44.81,415.84,47,405.51,47,405.51l.45-8.68c-4.32-1.39-3.95-4.06-3.95-4.06,2-26,27.31-117.87,29.41-124.85s6.46-8.6,6.46-8.6c38.93,35.6,150.16,109.91,150.16,109.91,9.49,14.16,19.53,12.62,25.63,6.69,6.43-6.26,2.86-14.32,2.86-14.32-4.19-11.41-21.88-12.32-21.88-12.32-10.27-5.82-120.92-98.16-126.86-103.59s-7.92-7.12-9.5-13.82,8.54-13.58,8.54-13.58c13.86-12.84,139.24-96,139.24-96s13.38-1.49,22-6.55C274.4,112.86,278.35,101.85,274.09,95.44Z"/></svg>