<svg id="Layer_1" data-name="Layer 1" xmlns="http://www.w3.org/2000/svg" viewBox="0 0 300 450"><title>Tempo_Web_SVG_2</title><path d="M79.72,89.28c2.37-1.85,4.72-3.56,7.3-4.18,2.91-.69,6.29,0,9.28.63l43.59,9.06c3.1.65,6.3,1.31,8.93,2.83a30.08,30.08,0,0,1,6.47,5.78l19.81,21.38c.36.39.71.76,1,1.14a4.82,4.82,0,0,0,0,.84,5.23,5.23,0,0,0,2.13,3.63,6.42,6.42,0,0,0,1.51.8,8.23,8.23,0,0,1,.5,1.74,2.54,2.54,0,0,0,4,1.62,9.75,9.75,0,0,0,2.71-3l.43-.08c6.77-1.22,13.63-.08,20.9,1.12,1.8.3,3.67.61,5.51.88,7.91,1.14,19.46,1.93,28.28-4.34,5.5-3.91,8.87-9.77,12.12-15.93a585.94,585.94,0,0,0,28.62-63.24,2.53,2.53,0,0,0-4.72-1.81,577.78,577.78,0,0,1-28.38,62.69c-2.95,5.61-6,10.9-10.57,14.17-5.59,4-13.42,5.07-24.63,3.45-1.79-.25-3.62-.56-5.4-.85-6.86-1.14-13.93-2.31-21-1.37a6.65,6.65,0,0,0-1.11-2.88c-1.72-2.49-5-2.86-7.38-2l-.58.26c-.09-.1-.18-.19-.26-.29L159,100a34.35,34.35,0,0,0-7.65-6.72c-3.33-1.93-7.1-2.72-10.43-3.41L97.33,80.78c-3.33-.69-7.48-1.55-11.49-.59-3.55.85-6.51,3-9.22,5.1a207.32,207.32,0,0,0-29.14,27.52,50.25,50.25,0,0,0-6.91,9.69,20.12,20.12,0,0,0-2.49,12c.44,3.52,2,6.7,3.35,9.51L50,161.56c3,6.21,6.44,13.24,12.22,18.29,6.27,5.47,14.41,7.85,21.6,10,11.76,3.44,24,4.23,35.75,5,5.25.34,10.69.69,16,1.27,11.12,1.22,23.73,2.6,35.82,5.23,13,2.84,23.82,6.81,33,12.15a145.23,145.23,0,0,1,13.22,9c5.76,4.27,11.28,8.55,15.53,14s7.11,12.09,9.29,17.79a187.54,187.54,0,0,1,10.67,41.68,36.72,36.72,0,0,1,.3,10.93,23.61,23.61,0,0,1-5.28,11,46,46,0,0,1-9.85,8.74c-2.77,1.88-5.74,3.63-8.62,5.32-5,2.95-10.17,6-14.7,9.93-4.36,3.79-7.46,8.64-10.46,13.32-1,1.6-2.08,3.25-3.16,4.81A36.51,36.51,0,0,1,187.19,372a77.66,77.66,0,0,1-7.48,3,69.4,69.4,0,0,0-9.11,3.75c-4.52,2.36-8.41,5.61-12.18,8.75-1.54,1.28-3.13,2.61-4.72,3.84-6.39,4.93-12,7.24-17.15,7.07a35.86,35.86,0,0,1-4.42-.53,24.61,24.61,0,0,0-8.38-.38c-.74.13-1.42.31-2.09.48a10.74,10.74,0,0,1-2.61.48h0c-2.59,0-5-2.38-7.29-5A353.44,353.44,0,0,1,85.44,359.3l-.28-.42c-3.08-4.55-6.26-9.26-11.24-12.19a32.76,32.76,0,0,0-8-3.13c-6.3-1.8-13.06-3.27-19.79-1.9-11.79,2.41-19.67,12.81-24.21,21.11-2.61,4.77-5.93,12-4.68,19.41a16.79,16.79,0,0,0,5.33,9.57,13,13,0,0,0,8.57,3.47,11.91,11.91,0,0,0,1.88-.15,2.53,2.53,0,0,0-.83-5c-4.73.79-9.17-4-10-8.73-.47-2.83-.56-7.57,4.14-16.16,4-7.36,10.89-16.56,20.78-18.58,5.66-1.15,11.71.19,17.4,1.81A29.34,29.34,0,0,1,71.36,351c4,2.35,6.85,6.58,9.61,10.67l.28.42a359.32,359.32,0,0,0,26.66,34.67c3,3.48,6.49,6.7,11.1,6.7h.09a15.31,15.31,0,0,0,3.84-.65c.59-.15,1.15-.3,1.68-.39a20.62,20.62,0,0,1,6.7.39,41,41,0,0,0,5.06.59h.71c6.15,0,12.61-2.66,19.7-8.13,1.66-1.28,3.29-2.64,4.87-4,3.72-3.1,7.24-6,11.29-8.16a65.6,65.6,0,0,1,8.46-3.46,80.79,80.79,0,0,0,8-3.18,41.48,41.48,0,0,0,16.08-13.76c1.13-1.62,2.21-3.32,3.25-4.95,2.94-4.59,5.71-8.92,9.52-12.23,4.19-3.64,8.94-6.43,14-9.39,2.94-1.74,6-3.53,8.89-5.5A51,51,0,0,0,252,321a28.75,28.75,0,0,0,6.35-13.35,41.75,41.75,0,0,0-.28-12.44,192.48,192.48,0,0,0-11-42.81c-2.31-6-5.31-13-10-19.09s-10.7-10.65-16.5-15a150.28,150.28,0,0,0-13.69-9.28c-21.72-12.67-47.8-15.52-70.8-18-5.43-.6-10.93-.95-16.24-1.29-12-.78-23.42-1.52-34.65-4.8-6.69-2-14.26-4.17-19.7-8.91-5-4.37-8.19-10.92-11-16.69L46,141.78a26.29,26.29,0,0,1-2.89-7.93c-.8-6.41,3.7-12.55,8.2-17.72A202.88,202.88,0,0,1,79.72,89.28ZM182.87,126.2a1.35,1.35,0,0,1,.17.34c-.09-.15-.19-.29-.28-.43A.53.53,0,0,1,182.87,126.2Z"/></svg>