<svg id="Layer_1" data-name="Layer 1" xmlns="http://www.w3.org/2000/svg" viewBox="0 0 300 300"><title>Tempo_Web_SVG_2</title><path d="M232.87,268a5.58,5.58,0,0,0,1.8-3.88c0-3.64-4.48-6.82-11.17-8.56a5.58,5.58,0,0,0,1.8-3.88c0-3.64-4.48-6.82-11.17-8.56a5.6,5.6,0,0,0,1.8-3.89c0-3.63-4.48-6.81-11.17-8.55a5.62,5.62,0,0,0,1.8-3.89c0-5.5-10.26-10-22.93-10s-22.93,4.47-22.93,10c0,3.64,4.48,6.82,11.17,8.56a5.6,5.6,0,0,0-1.8,3.88c0,3.64,4.48,6.82,11.17,8.56a5.62,5.62,0,0,0-1.8,3.89c0,3.63,4.48,6.81,11.17,8.56a5.58,5.58,0,0,0-1.8,3.88c0,3.64,4.48,6.82,11.17,8.56a5.58,5.58,0,0,0-1.8,3.88c0,5.51,10.26,10,22.93,10S244,282,244,276.53C244,272.9,239.56,269.71,232.87,268Z"/><path d="M176.62,14.24C129.16,9.22,85.84,31,68,41.52c-.49.29-.94.57-1.38.85V54.65C82.6,45,120,24.7,153.17,24.7c37.88,0,101.72,26,101.72,82.6s-35.35,90.17-76.83,90.17c-37.23,0-85.66-38.88-111.46-73.31v14.08c18,21.47,64.65,67.61,115.46,67.61,66.37,0,93.38-44.45,93.38-92.78S237.93,20.73,176.62,14.24Z"/><path d="M57.91,147.2c0-11.73-4.36-21.76-10.52-25.85a89.93,89.93,0,0,1-.79-12.2V36.38c.28-.28-10.49,0-10.49,0v72.77a89.38,89.38,0,0,1-.77,12c-6.3,4-10.78,14.13-10.78,26,0,12.32,4.79,22.76,11.44,26.42.13,2.8.11,4.77.11,4.77v98.5c-.28.28,10.49,0,10.49,0v-98.5s0-2,.11-4.91C53.23,169.69,57.91,159.36,57.91,147.2Z"/></svg>