<svg id="Layer_1" data-name="Layer 1" xmlns="http://www.w3.org/2000/svg" viewBox="0 0 300 300"><title>Tempo_Web_SVG_2</title><path d="M42.41,105.7c5-5.86,9.72-11.39,15.89-14.78h0c5-2.72,10.8-3.94,16.44-5.12,12.26-2.57,24.94-5.2,37.53-5,5.36.1,11,.73,16.35,1.33,13.12,1.46,26.67,3,39.14-2.43,5.91-2.55,7.35-6.07,7.51-8.56s-.74-5.86-5.82-9.26c-13.5-9-30.8-9.34-44.7-9.58l-48.68-.83c-1.93,0-4.12-.21-6.43-.4-5.59-.47-11.92-1-17,.48s-9.52,5.46-13.47,9c-1.12,1-2.19,2-3.2,2.79A122.84,122.84,0,0,1,8.72,80.27,3,3,0,0,0,7,83.45a167.89,167.89,0,0,0,10.48,38.22,3,3,0,0,0,2.78,1.87,3.06,3.06,0,0,0,1.07-.19C30.27,119.93,36.45,112.7,42.41,105.7ZM13.27,84.77A128.94,128.94,0,0,0,39.81,68c1.1-.91,2.21-1.9,3.39-2.95,3.47-3.09,7.4-6.6,11.15-7.69,4-1.16,9.72-.68,14.79-.26,2.42.2,4.7.39,6.82.42l48.69.83c13.11.22,29.43.5,41.46,8.57,2.08,1.39,3.24,2.81,3.17,3.89s-1.53,2.41-3.9,3.44c-11,4.75-23.19,3.4-36.09,2-5.54-.61-11.27-1.25-16.9-1.36-13.27-.26-26.29,2.48-38.88,5.11-6.07,1.28-12.35,2.59-18.09,5.74h0C48.28,89.58,43,95.79,37.85,101.8s-9.8,11.5-16,14.72A160.15,160.15,0,0,1,13.27,84.77Z"/><path d="M75.74,153.73c3.26-2,6.63-4.17,10.25-5.21h0a41,41,0,0,1,9.94-1.1,1193.45,1193.45,0,0,1,138.94,4.05c6.13.54,12.46,1.09,18.6-1s12.59-7.83,12.41-15.62c-.17-7.34-5.78-13.36-16.69-17.88a168.63,168.63,0,0,0-53.54-12.55c-7.87-.53-15.84-.51-23.54-.48H165a519.32,519.32,0,0,1-75.12-5.65c-3.93-.59-8.39-1.26-12.71,0a28.26,28.26,0,0,0-6.66,3.25L44,117.66c-5.34,3.24-17.18,11.53-21.8,15.12a3,3,0,0,0-1.06,3.13L31.85,176.8a3,3,0,0,0,1.82,2,3.14,3.14,0,0,0,1.09.2,3,3,0,0,0,1.63-.49c8.74-5.7,17.89-11.41,26.74-16.93C67.35,159,71.57,156.36,75.74,153.73ZM36.61,171.26l-9.12-34.93c5.19-3.89,15.12-10.78,19.66-13.54l26.51-16.06a23.88,23.88,0,0,1,5.25-2.63c3-.9,6.48-.38,10.21.18A526.3,526.3,0,0,0,165,110h7.11c7.6,0,15.46,0,23.12.46a163,163,0,0,1,51.64,12.11c5.86,2.43,12.86,6.56,13,12.48.1,4.55-4.11,8.37-8.33,9.79-4.94,1.67-10.64,1.17-16.19.68a1200.28,1200.28,0,0,0-139.61-4.07,45.94,45.94,0,0,0-11.41,1.33h0c-4.45,1.27-8.35,3.74-11.8,5.91-4.16,2.62-8.37,5.24-12.59,7.87C52.25,161.34,44.32,166.29,36.61,171.26Z"/><path d="M290.56,204c-2.2-3.2-5.5-5.06-8.7-6.69-37.67-19.17-79.11-24.83-125.47-29.79-18.18-1.94-36.63-3.8-54.84-5.52a25.33,25.33,0,0,0-6.85,0,25.1,25.1,0,0,0-6.43,2.37l-.72.34c-2.91,1.38-6,2.61-9,3.8-1.71.69-3.42,1.37-5.12,2.09a149.93,149.93,0,0,0-34.94,20.72,3,3,0,0,0-1.05,3L50,247.1A3,3,0,0,0,51.47,249a3.13,3.13,0,0,0,1.46.37,2.89,2.89,0,0,0,1-.16,54.83,54.83,0,0,0,10.93-5.67,55.67,55.67,0,0,1,8.78-4.75,61.68,61.68,0,0,0,10.3-5.5c1.36-.84,2.76-1.71,4.15-2.5,5.9-3.36,12.48-5.84,18.85-8.24,8.21-3.1,16.69-6.3,25.41-6.68a81.2,81.2,0,0,1,9.41.3c2.12.15,4.31.3,6.5.34,4.49.1,9-.25,13.28-.58,3.18-.25,6.46-.5,9.65-.57,10.11-.21,20.39,1.4,30.34,3,5.64.89,11.47,1.8,16.66,4,1.32.57,2.62,1.22,4,1.91a50.17,50.17,0,0,0,6.52,2.92c4.51,1.55,9.13,1.87,13.6,2.17l30.25,2.05c3.36.23,7.53.51,11.32-1.37,3.61-1.8,6.38-5.37,8-10.34C293.81,213.77,293.34,208,290.56,204Zm-4.41,13.88c-.78,2.38-2.29,5.5-5,6.85-2.32,1.15-5.46.94-8.23.75l-30.26-2.05c-4.07-.27-8.29-.56-12-1.85a46.31,46.31,0,0,1-5.77-2.6c-1.4-.71-2.84-1.44-4.35-2.08-5.87-2.51-12.08-3.48-18.08-4.43-10.2-1.6-20.75-3.26-31.4-3-3.36.07-6.72.33-10,.59-4.18.32-8.5.65-12.69.56-2,0-4.17-.19-6.22-.33a90.78,90.78,0,0,0-10.09-.31c-9.67.43-19,4-27.26,7.06-6.58,2.49-13.39,5.05-19.7,8.65-1.48.84-2.93,1.74-4.34,2.61a56.46,56.46,0,0,1-9.29,5,60.37,60.37,0,0,0-9.79,5.25c-2.27,1.4-4.46,2.75-6.63,3.81L43.75,194.82a143.64,143.64,0,0,1,32-18.72c1.66-.7,3.34-1.37,5-2,3.06-1.23,6.23-2.5,9.31-3.95l.75-.36a20.1,20.1,0,0,1,4.89-1.87,20.41,20.41,0,0,1,5.23.05c18.18,1.72,36.61,3.57,54.76,5.52,45.76,4.89,86.63,10.46,123.39,29.17,2.61,1.33,5.07,2.69,6.47,4.74C288.05,210.91,286.8,215.88,286.15,217.84Z"/></svg>