<svg id="Layer_1" data-name="Layer 1" xmlns="http://www.w3.org/2000/svg" viewBox="0 0 300 450"><title>Tempo_Web_SVG_2</title><path d="M289.28,189.33,226,198.24c4.78-6.45,13.29-8.57,20.64-11.81a60,60,0,0,0,15.27-9.68,5,5,0,0,0,2-3,3.51,3.51,0,0,0-2.74-3.45,9.57,9.57,0,0,0-4.74.27,86.05,86.05,0,0,0-30.84,14.32c3.36-7.33,9.55-12.91,14.55-19.23s9.05-14.46,6.93-22.25a3.73,3.73,0,0,0-1.9-2.71,3.65,3.65,0,0,0-2,0c-7.42,1.39-13,7.62-16.61,14.27s-5.69,14-9.49,20.57c-.55-14.88-1.1-29.84-2.24-44.71,9.64.11,16,.2,16,.2l.39-21.25-18.45-.12a285.42,285.42,0,0,0-8.66-44c-1.71-6-3.69-12-4-18.22s1.42-12.86,6-17.07a232.78,232.78,0,0,1-65.33-6.12Q141.89,39.61,143,55c1.23,17.45-8.69,33.73-11.18,51-.15,1-.28,2-.42,3.06L121.31,109a13.33,13.33,0,0,0-11.91,7.12s-7,3.56-17.67-.62c0,0,12,14.68,37.67,15.08-.89,15.75-.76,31.58-.63,47.36l.35,41.94c.11,13.6.23,27.25,2.13,40.72.6,4.2,1.36,8.53.23,12.62a2.24,2.24,0,0,1-.71,1.27c-1.12.82-2.5-.63-3.15-1.87a91.32,91.32,0,0,0-15.69-21.3,111.4,111.4,0,0,1-8-8.29c-3.29-4.08-5.59-8.84-8.39-13.27a70.14,70.14,0,0,0-15.82-17.62c.22,8.5,1.35,17.43,4.64,25.27,4.9,11.67,10.2,23.89,20.23,31.59,4.46,3.42,10.11,6.37,11.5,11.81a2.87,2.87,0,0,1-.17,2.32c-1.07,1.59-3.51.38-5.09-.71-4.51-3.11-10-4.24-15.35-5.59a155.81,155.81,0,0,1-43.62-18.55,3.08,3.08,0,0,0-.81,3.3,8.85,8.85,0,0,0,1.9,3c7.53,9,15.92,17.49,26.24,23,9.13,4.89,19.37,7.23,29,11.17,4.08,1.68,8.62,4.47,8.81,8.88a2.25,2.25,0,0,1-.22,1.18c-.46.79-1.55.87-2.47.83-5.77-.3-11.4-1.9-17.15-2.48-8.7-.88-17.44.6-26.17.83A92.33,92.33,0,0,1,29,299.17,140.5,140.5,0,0,1,9.77,287.66a12,12,0,0,0,2.83,8.19,36,36,0,0,0,6.53,6c7.14,5.51,13.86,14.69,22.42,17.53a113.22,113.22,0,0,0,64.82,1.79c2.72-.74,5.91-1.5,8.12.25,2.51,2,2,6.23-.26,8.5s-5.61,3-8.78,3.46c-5.5.77-11.13.93-16.45,2.56-4.11,1.25-8,3.37-12.28,3.8s-8.59-.92-12.69-2.34c-7.68-2.65-15.24-5.64-22.79-8.62C48,333.9,53.9,340.07,60.75,345.07s15,8.87,23.48,8.45c14.66-.74,25.48-13.54,38.68-20-.32,8-6.64,14.48-13.19,19.14S95.78,361.31,91.31,368a2.78,2.78,0,0,0-.65,2.1,2.85,2.85,0,0,0,1.53,1.56c7.74,4.42,17.62,6.4,25.52,2.28,5.77-3,9.58-8.75,12.49-14.56s5.22-12,9.15-17.19c1.78,10.82,2.22,21.84,4,32.65s5.13,21.69,11.91,30.31c10.43,13.26,27.63,19.56,38.9,32.11-8.88-15.69-18.42-30.29-25.67-46.8a111,111,0,0,1-8.86-33.91c-.78-8-.78-16.42-4.54-23.53-2.64-5-7-8.95-9.55-14-.32-.62-.56-1.51,0-1.93a1.45,1.45,0,0,1,.87-.22c5.85-.18,11.32,3.34,14.92,8s5.62,10.23,7.49,15.77,3.68,11.2,6.94,16.06c5.24,7.8,13.65,12.76,21.31,18.21,9.47,6.75,19.12,15,30.74,15.21a354,354,0,0,1-44.48-59,312.72,312.72,0,0,0,34.4,13.14c15.24,4.87,31.33,8.79,47.13,6.27,4-.63,8.55-2.21,9.85-6.05-11.61-4.63-24.27-6.26-35.78-11.14-10.21-4.32-19.18-11.06-28.77-16.61a137.52,137.52,0,0,0-53-17.54c12.83-3,26.22-1.66,39.41-1.37s28.06.42,38.61-7.48c6.27-4.7,10.81-11.3,15.22-17.77a5.11,5.11,0,0,0,1.11-2.48c.1-1.81-1.64-3.11-3.18-4.06-5.84,6.33-14.32,9.67-22.81,11.14s-17.17,1.25-25.78,1.59a201.52,201.52,0,0,0-43.6,6.52A112.4,112.4,0,0,0,181.79,269c4-3.4,7.88-7.15,10.5-11.73s3.89-10.11,2.55-15.21c-13.24,9.55-29.11,15.43-41,26.63-3,2.82-5.74,6-9.26,8.12a3.34,3.34,0,0,1-1.92.63c-.69-.06-.76-.2-.84-.88-1.45-12.19.21-24.59-1.15-36.79-.81-7.36-.64-14.28-1.49-21.64A282.31,282.31,0,0,1,143,130.45c18.13-.14,44,.06,63,.27.08.9.17,1.81.24,2.72,1.31,15.27.93,30.67,4.42,45.59-4.29-5-8.77-10.21-14.8-12.93-6.42-2.89-14.24-2.81-19.68-7.29-.79,4.27,1.35,8.66,4.46,11.7s7.11,5,11,6.89,7.85,4,10.81,7.16c-4.43-1.21-8.87-2.42-13.38-3.26-8.16-1.51-16.53-1.77-24.59-3.75a119.94,119.94,0,0,1-16.16-5.65c3.89,5.21,9.5,8.91,14.85,12.6a55.87,55.87,0,0,0,21.48,8.92c2,.38,4.22.61,6-.38q-8.43,5.43-17.22,10.29c-8.86,4.9-18.37,9.46-28.49,9.53.7,3.25,4,5.21,7.08,6.41a44.34,44.34,0,0,0,26.73,1.66,19.07,19.07,0,0,0,6.44-2.69c2.41-1.7,4.13-4.19,5.78-6.64-.24,5.48-4.13,10-8.08,13.84s-8.34,7.54-10.13,12.72c3.35,2.52,8.32,1.26,11.6-1.35s5.49-6.32,8.4-9.35,6.51-5.44,8.31-9.19c1.09-2.26,1.4-4.8,2-7.23s1.72-4.92,3.82-6.3,5.42-1.07,6.58,1.16c-6.38,7-11.38,15.62-12.44,25-.7,6.16.29,12.37.21,18.57s-1.46,12.8-5.93,17.09a31.73,31.73,0,0,0,22.09-24.14c1.56-8.32-.42-16.55-.38-25A43.83,43.83,0,0,0,242.85,245c2.35.91,5.62,1.3,6.85-.9a219,219,0,0,1-23.78-30.64c10.33,7.91,22.42,14.36,35.42,14.81a11.45,11.45,0,0,0,5.54-.85,12.7,12.7,0,0,0,4.27-4.23q2.89-4,5.52-8.27a65,65,0,0,1-47.58-10.26c6.13.5,11.95,2.79,18,4a75.17,75.17,0,0,0,15.5,1.19c5.76-.05,11.92-.6,16.41-4.21a28.35,28.35,0,0,0,5.14-6l5-7.13a3.84,3.84,0,0,0,.83-1.81C290,190,290,189.23,289.28,189.33ZM148.11,109.21a281.21,281.21,0,0,1,30.23-69.68A243,243,0,0,1,203,109.58Z"/></svg>