<svg id="Layer_1" data-name="Layer 1" xmlns="http://www.w3.org/2000/svg" viewBox="0 0 300 450"><defs><style>.cls-1{fill:#080907;}</style></defs><title>Tempo_Web_SVG_2</title><path class="cls-1" d="M184.62,232.32a43.23,43.23,0,0,0,6.54-2.87A32.42,32.42,0,0,0,195,227.2c2-1.42,3.92-2.94,5.84-4.46a17.87,17.87,0,0,0,2.22-2.13,11.82,11.82,0,0,1,2.56-2.33,8.79,8.79,0,0,0,1.62-1.36c1.65-1.72,3.23-3.52,4.92-5.2a37.19,37.19,0,0,0,3.55-4.08c.43-.57.9-1.1,1.32-1.67,1.4-1.85,3.11-3.45,4.35-5.43.68-1.09,1.45-2.13,2.12-3.23,1-1.7,2.11-3.4,3-5.18,1.19-2.36,2.12-4.84,3.37-7.16,1-1.86,1.24-3.92,2-5.85.57-1.53.63-3.25,1.14-4.84a8.68,8.68,0,0,0,.23-1.91,15.41,15.41,0,0,1,.09-1.93c.3-1.43.33-2.94,1.12-4.24a.88.88,0,0,0,.16-.55,13.69,13.69,0,0,1,.4-3.43c.15-1.66.21-3.33.3-5s.19-3.34.28-5a28.73,28.73,0,0,0-.59-5.55,14.92,14.92,0,0,0-.76-4c0-2.35-1.16-4.45-1.54-6.72a1.19,1.19,0,0,0-.15-.35,9.91,9.91,0,0,1-1.62-4.46c0-.23-.22-.45-.35-.67s-.53-.62-.6-1c-.29-1.43-1.58-2.36-1.81-3.8a19.07,19.07,0,0,1-2.71-4.61c-.08-.22-.33-.39-.5-.58-.37-.44-.74-.89-1.13-1.31-1.2-1.26-2.41-2.49-3.6-3.76a37.19,37.19,0,0,1-3.1-3.43,25.13,25.13,0,0,1-3-4.05c-.15-.33-.55-.53-.79-.83-.95-1.22-2.5-1.82-3.3-3.22-.16-.29-.62-.42-1-.61a15.28,15.28,0,0,1-3.11-1.87c-1.66-1.61-4-2-5.67-3.57A35.29,35.29,0,0,1,195,95.41a6.09,6.09,0,0,0-1.09-.38c-1.24-.49-2.65-.53-3.74-1.42a1.13,1.13,0,0,0-.36-.14,21,21,0,0,1-3.49-1,22.49,22.49,0,0,0-5.72-1.62c-2.41-.46-4.77-1.12-7.15-1.69a2.84,2.84,0,0,0-.76-.1,24.49,24.49,0,0,1-3.43-.54c-2-.24-3.92-.67-5.88-1-2.53-.4-5.12-.45-7.68-.66-1.09-.09-2.17-.27-3.26-.32a29,29,0,0,0-3.09,0c-2.05.11-4.12-.29-6.16.17a1.4,1.4,0,0,1-.76-.06,5.15,5.15,0,0,0-2.67-.06c-1.54.17-3.06.42-4.6.5s-3.15.72-4.78.34a1,1,0,0,0-.38,0c-1.72.47-3.46.85-5.22,1.16-2.14.38-4.22,1.07-6.32,1.64a2.32,2.32,0,0,0-1,.43,3.27,3.27,0,0,1-1.9.85,3.37,3.37,0,0,0-.9.33c-1.26.63-2.52,1.26-3.76,1.92-1.44.76-3.23.93-4.22,2.48-.09.14-.34.15-.51.25-.5.28-1,.61-1.5.87a20,20,0,0,0-2.94,2.16,18.7,18.7,0,0,0-1.59,1.36,13.06,13.06,0,0,1-1.89,1.28,2,2,0,0,0-.51.57,44.59,44.59,0,0,1-3.15,4.1,34.63,34.63,0,0,0-4.42,6.28,22.69,22.69,0,0,0-1.7,4.91c-.24,1-.44,2-.68,3-.54,2.24-1.36,4.43-1.07,6.79,0,.19-.07.38-.07.58,0,.89,0,1.79,0,2.68s.17,2.06.25,3.09a35.6,35.6,0,0,0,.36,4.4c.54,2.66,1,5.31,1.32,8a50.13,50.13,0,0,1,.64,6.13,15.75,15.75,0,0,0,.49,2.85c.14.69.27,1.39.45,2.07.56,2.25.84,4.56,1.58,6.77a10.64,10.64,0,0,1,.53,3.4,6.29,6.29,0,0,0,.35,2.44c.47,1.2.91,2.42,1.3,3.64a16.66,16.66,0,0,1,.78,3,16.15,16.15,0,0,0,1.86,5.86,2.88,2.88,0,0,1,.45,1.84,10.09,10.09,0,0,0,.89,4.89,36.44,36.44,0,0,0,2,4.2c1,2.07,2.29,4,3.14,6.19a5.22,5.22,0,0,0,.54,1c1.24,1.8,2.57,3.54,3.7,5.41.52.85,1.35,1.4,1.8,2.24a20,20,0,0,0,3.42,4.42c1.39,1.44,2.89,2.76,4.13,4.33a4.65,4.65,0,0,0,.92.7,41.19,41.19,0,0,1,5.1,4.14,10.65,10.65,0,0,0,2.26,1.45,16.91,16.91,0,0,1,1.5.84c1.19.87,2.43,1.68,3.62,2.55,2.47,1.81,5.42,2.65,8,4.18a.8.8,0,0,0,.37.11,6.32,6.32,0,0,1,2.31.95,8,8,0,0,0,1.58.71c2.58.75,5,2,7.78,2.13a6.18,6.18,0,0,1,1.26.46,14.41,14.41,0,0,0,2.6.73c2.17.25,4.36.38,6.55.55.71.06,1.42.08,2.12.17a11.2,11.2,0,0,0,3.27-.06c2.17-.36,4.34-.67,6.5-1,1-.14,1.92-.23,2.87-.37a7.23,7.23,0,0,0,1.32-.3C179.18,234.31,181.87,233.22,184.62,232.32Zm-9.93-11.81-2.24.56a7.54,7.54,0,0,1-2.66.44,1.76,1.76,0,0,0-.76.07,15.82,15.82,0,0,1-5.56.42c-2.23,0-4.47-.26-6.69-.45a23.22,23.22,0,0,1-6.36-1.5,9.41,9.41,0,0,0-1.3-.29c-.63-.14-1.27-.24-1.88-.44s-1.29-.57-2-.81-1.33-.42-2-.6a4.69,4.69,0,0,1-2.18-1.14,3.27,3.27,0,0,0-1.22-.5,8.42,8.42,0,0,1-2.57-1.26c-1-.79-2.14-1.43-3.22-2.13-.85-.55-1.45-1.49-2.59-1.58-.16,0-.31-.21-.45-.34-1.52-1.48-3.06-3-4.55-4.46a38.13,38.13,0,0,1-2.71-3,16.19,16.19,0,0,1-2.08-3.21c-.45-1-1.45-1.63-1.78-2.71a9.67,9.67,0,0,1-2.12-3.79,31.85,31.85,0,0,0-1.6-3.06c-.09-.17-.31-.3-.33-.46-.22-1.59-1.43-2.71-1.94-4.16s-1.08-2.74-1.61-4.12a16.14,16.14,0,0,1-1.14-2.85c-.18-1-1-1.73-1.36-2.73-.7-2.26-1.79-4.39-2.25-6.73a2.53,2.53,0,0,0-.18-.55,46.55,46.55,0,0,1-3.26-8.41,7.65,7.65,0,0,1-.1-1c0-.32,0-.74-.18-.92-.89-.86-1-2.08-1.46-3.11a15,15,0,0,1-1-3.3c-.21-1.13-.88-2.15-.74-3.37a1.75,1.75,0,0,0-.45-1,2.7,2.7,0,0,1-.4-1.85c0-1,.12-1.92.13-2.89a41,41,0,0,1,1.73-9.88,14,14,0,0,1,1.69-3.88c1.16-1.85,2.21-3.77,3.28-5.67a21,21,0,0,1,3-4c1.23-1.32,2.36-2.74,3.62-4a52.2,52.2,0,0,1,9.74-7.58,11.3,11.3,0,0,1,1.56-.77c2.59-1.14,5.19-2.27,7.8-3.37a7.46,7.46,0,0,1,1.68-.46,50.19,50.19,0,0,0,5.25-1.28,21.86,21.86,0,0,1,4.19-.63c2.77-.23,5.53-.36,8.3-.54a21.55,21.55,0,0,1,5,.34,13.25,13.25,0,0,0,3.09.13,22.79,22.79,0,0,1,5.92.76c1.88.47,3.8.7,5.64,1.34a26.07,26.07,0,0,0,5.77,1.57,1.69,1.69,0,0,1,.54.2c3,1.41,6.14,2.31,9.2,3.48,1.74.66,3.37,1.6,5,2.42a2,2,0,0,1,.62.46,4.78,4.78,0,0,0,3.44,1.91,1.37,1.37,0,0,1,.85.43c1.45,1.45,3.38,2.32,4.63,4a17.37,17.37,0,0,0,2.59,2.3c1.11,1,2.2,2,3.29,3,.38.35.71.76,1.11,1.08a6.55,6.55,0,0,1,2.55,3.53,4.6,4.6,0,0,0,.87,1.26,14.05,14.05,0,0,1,2.36,4,7.68,7.68,0,0,0,.95,1.9,16,16,0,0,1,1.43,2.94c.55,1.37,1.3,2.67,1.89,4A27.9,27.9,0,0,1,221,148.9a5,5,0,0,0,.4,1.29,7.44,7.44,0,0,1,.7,3.38,3.34,3.34,0,0,0,.14,1.14,22.71,22.71,0,0,1,1,7.23,32.26,32.26,0,0,1-.51,5.39c-.19,1.27-.46,2.53-.77,3.78a12.32,12.32,0,0,1-1,3.09,37.85,37.85,0,0,0-2.4,5.46,13.17,13.17,0,0,1-1,1.84c-.22.39-.5.75-.7,1.16a29,29,0,0,1-2.43,4.13,20.76,20.76,0,0,0-1.16,2.42,11.08,11.08,0,0,1-.95,1.43,36.32,36.32,0,0,1-2.32,3.07c-1.76,1.95-3,4.29-4.76,6.25a15.81,15.81,0,0,1-2.87,2.85,4.71,4.71,0,0,0-.87,1,9,9,0,0,1-1,1.37c-1.81,1.62-3.4,3.45-5.38,4.91-1.5,1.11-3,2.2-4.53,3.23-.7.47-1.4.92-2.13,1.32a9,9,0,0,0-2.8,1.66c-1.82.63-3.37,1.82-5.26,2.35a18.57,18.57,0,0,0-4.36,1.49A4.93,4.93,0,0,1,174.69,220.51Z"/><path class="cls-1" d="M76.48,236l-.24-.17a.25.25,0,0,0-.1.12s0,.14.07.14Z"/><path class="cls-1" d="M75.53,391.46c-.92-17.29-2.87-50.16-5.49-76.06-3.88-38.2-1.59-54.85.83-72.47.37-2.66.74-5.41,1.09-8.21,2.58-20.58,3.91-35.13,1.31-94.73C70.7,80.8,44.29,14.48,44,13.81A2.89,2.89,0,0,0,38.65,16c.27.66,26.31,66.08,28.84,124.27,2.57,59.14,1.27,73.49-1.27,93.76-.34,2.76-.72,5.5-1.08,8.14-2.36,17.19-4.81,35-.86,73.84,4.29,42.32,7.52,113.36,7.15,118.53a2.89,2.89,0,0,0,5.41,1.89c.4-.8.59-1.16.11-14.34C76.64,413.69,76.14,402.82,75.53,391.46Z"/><path class="cls-1" d="M261,359.76c-.33-.43-33.67-44.09-50.19-70.77-17-27.41-29.53-34.88-30.05-35.19a2.89,2.89,0,1,0-2.9,5c.12.07,11.82,7,28,33.23,16.67,26.92,50.18,70.8,50.52,71.24a2.9,2.9,0,0,0,4.05.54A2.9,2.9,0,0,0,261,359.76Z"/></svg>